<svg width="20" height="20" viewBox="0 0 20 20" fill="none" xmlns="http://www.w3.org/2000/svg">
<g id="Carousel Horizontal">
<path id="Vector" d="M13.9649 14.5859C13.9649 14.8069 13.8771 15.0189 13.7208 15.1752C13.5645 15.3314 13.3526 15.4192 13.1316 15.4192H6.8724C6.65138 15.4192 6.43942 15.3314 6.28314 15.1752C6.12686 15.0189 6.03906 14.8069 6.03906 14.5859V5.41341C6.03906 5.1924 6.12686 4.98044 6.28314 4.82416C6.43942 4.66788 6.65138 4.58008 6.8724 4.58008H13.1307C13.2402 4.58008 13.3485 4.60163 13.4496 4.64351C13.5507 4.68539 13.6426 4.74677 13.72 4.82416C13.7974 4.90154 13.8587 4.9934 13.9006 5.09451C13.9425 5.19561 13.9641 5.30398 13.9641 5.41341V14.5859H13.9649Z" stroke="#E8E8E8" stroke-linejoin="round"/>
<path id="Vector_2" d="M0.8125 14.1784H2.4525C2.67351 14.1784 2.88548 14.0906 3.04176 13.9344C3.19804 13.7781 3.28583 13.5661 3.28583 13.3451V6.65511C3.28583 6.4341 3.19804 6.22214 3.04176 6.06585C2.88548 5.90957 2.67351 5.82178 2.4525 5.82178H0.8125" stroke="#E8E8E8" stroke-linecap="round" stroke-linejoin="round"/>
<path id="Vector_3" d="M19.1843 5.82178H17.5443C17.3233 5.82178 17.1113 5.90957 16.955 6.06585C16.7987 6.22214 16.7109 6.4341 16.7109 6.65511V13.3451C16.7109 13.5661 16.7987 13.7781 16.955 13.9344C17.1113 14.0906 17.3233 14.1784 17.5443 14.1784H19.1843" stroke="#E8E8E8" stroke-linecap="round" stroke-linejoin="round"/>
</g>
</svg>
