<svg width="16" height="16" viewBox="0 0 16 16" fill="none" xmlns="http://www.w3.org/2000/svg">
<g id="Filter 1" clip-path="url(#clip0_4203_40724)">
<path id="Vector" d="M14.533 1.39992C14.6073 1.30087 14.6525 1.1831 14.6636 1.05979C14.6747 0.936481 14.6513 0.812513 14.5959 0.701776C14.5406 0.591039 14.4555 0.497908 14.3501 0.432818C14.2448 0.367728 14.1235 0.333252 13.9996 0.333252H1.98698C1.86317 0.333252 1.74181 0.367728 1.63649 0.432818C1.53117 0.497908 1.44606 0.591039 1.39069 0.701776C1.33533 0.812513 1.31189 0.936481 1.32301 1.05979C1.33413 1.1831 1.37936 1.30087 1.45365 1.39992L6.65898 8.39392V14.9999C6.65898 15.1237 6.69346 15.2451 6.75855 15.3504C6.82364 15.4557 6.91677 15.5408 7.0275 15.5962C7.13824 15.6516 7.26221 15.675 7.38552 15.6639C7.50882 15.6528 7.6266 15.6075 7.72565 15.5333L9.05898 14.5333C9.14178 14.4712 9.20898 14.3906 9.25526 14.2981C9.30155 14.2055 9.32565 14.1034 9.32565 13.9999V8.39325L14.533 1.39992Z" stroke="#E8E8E8" stroke-linecap="round" stroke-linejoin="round"/>
</g>
<defs>
<clipPath id="clip0_4203_40724">
<rect width="16" height="16" fill="white"/>
</clipPath>
</defs>
</svg>
