<svg width="20" height="20" viewBox="0 0 20 20" fill="none" xmlns="http://www.w3.org/2000/svg">
<g id="Gallery View">
<path id="Vector" d="M19.2787 11.805C19.2787 12.026 19.191 12.238 19.0347 12.3943C18.8784 12.5505 18.6664 12.6383 18.4454 12.6383H1.55208C1.33107 12.6383 1.11911 12.5505 0.962828 12.3943C0.806547 12.238 0.71875 12.026 0.71875 11.805V2.84334C0.71875 2.62233 0.806547 2.41037 0.962828 2.25409C1.11911 2.09781 1.33107 2.01001 1.55208 2.01001H18.4454C18.6664 2.01001 18.8784 2.09781 19.0347 2.25409C19.191 2.41037 19.2787 2.62233 19.2787 2.84334V11.805Z" stroke="#E8E8E8" stroke-linejoin="round"/>
<path id="Vector_2" d="M3.56182 17.1567C3.56182 17.3777 3.47403 17.5896 3.31775 17.7459C3.16146 17.9022 2.9495 17.99 2.72849 17.99H1.55599C1.33498 17.99 1.12301 17.9022 0.966734 17.7459C0.810454 17.5896 0.722656 17.3777 0.722656 17.1567V15.8958C0.722656 15.6748 0.810454 15.4629 0.966734 15.3066C1.12301 15.1503 1.33498 15.0625 1.55599 15.0625H2.72849C2.9495 15.0625 3.16146 15.1503 3.31775 15.3066C3.47403 15.4629 3.56182 15.6748 3.56182 15.8958V17.1567Z" stroke="#E8E8E8" stroke-linejoin="round"/>
<path id="Vector_3" d="M8.80094 17.1567C8.80094 17.3777 8.71314 17.5896 8.55686 17.7459C8.40058 17.9022 8.18862 17.99 7.9676 17.99H6.79427C6.57326 17.99 6.3613 17.9022 6.20502 17.7459C6.04874 17.5896 5.96094 17.3777 5.96094 17.1567V15.8958C5.96094 15.6748 6.04874 15.4629 6.20502 15.3066C6.3613 15.1503 6.57326 15.0625 6.79427 15.0625H7.9676C8.18862 15.0625 8.40058 15.1503 8.55686 15.3066C8.71314 15.4629 8.80094 15.6748 8.80094 15.8958V17.1567Z" stroke="#E8E8E8" stroke-linejoin="round"/>
<path id="Vector_4" d="M14.0392 17.1567C14.0392 17.3777 13.9514 17.5896 13.7951 17.7459C13.6389 17.9022 13.4269 17.99 13.2059 17.99H12.0326C11.8115 17.99 11.5996 17.9022 11.4433 17.7459C11.287 17.5896 11.1992 17.3777 11.1992 17.1567V15.8958C11.1992 15.6748 11.287 15.4629 11.4433 15.3066C11.5996 15.1503 11.8115 15.0625 12.0326 15.0625H13.2059C13.4269 15.0625 13.6389 15.1503 13.7951 15.3066C13.9514 15.4629 14.0392 15.6748 14.0392 15.8958V17.1567Z" stroke="#E8E8E8" stroke-linejoin="round"/>
<path id="Vector_5" d="M19.2814 17.1567C19.2814 17.3777 19.1936 17.5896 19.0373 17.7459C18.881 17.9022 18.6691 17.99 18.4481 17.99H17.2747C17.0537 17.99 16.8418 17.9022 16.6855 17.7459C16.5292 17.5896 16.4414 17.3777 16.4414 17.1567V15.8958C16.4414 15.6748 16.5292 15.4629 16.6855 15.3066C16.8418 15.1503 17.0537 15.0625 17.2747 15.0625H18.4481C18.6691 15.0625 18.881 15.1503 19.0373 15.3066C19.1936 15.4629 19.2814 15.6748 19.2814 15.8958V17.1567Z" stroke="#E8E8E8" stroke-linejoin="round"/>
</g>
</svg>
