<svg width="20" height="20" viewBox="0 0 20 20" fill="none" xmlns="http://www.w3.org/2000/svg">
<g id="Thumb Up Like" clip-path="url(#clip0_3059_183966)">
<path id="Vector" d="M16.875 10.3584H17.875C18.7083 10.3584 19.375 11.0251 19.375 11.8584C19.375 12.6917 18.7083 13.3584 17.875 13.3584H16.875" stroke="#D3D3D3" stroke-miterlimit="10" stroke-linecap="round" stroke-linejoin="round"/>
<path id="Vector_2" d="M16.875 16.3584H17.125C17.9583 16.3584 18.625 15.6917 18.625 14.8584C18.625 14.0251 17.9583 13.3584 17.125 13.3584H16.875" stroke="#D3D3D3" stroke-miterlimit="10" stroke-linecap="round" stroke-linejoin="round"/>
<path id="Vector_3" d="M16.8763 10.3583H17.4596C18.293 10.3583 18.9596 9.6916 18.9596 8.85827C18.9596 8.02494 18.293 7.35827 17.4596 7.35827H12.4596L12.543 7.1916C13.3763 5.77494 13.8763 4.10827 13.9596 2.35827C14.043 1.77494 13.793 1.27494 13.293 0.941604C12.9596 0.691604 12.6263 0.691604 12.2096 0.774937C11.793 0.858271 11.4596 1.10827 11.293 1.4416C9.59297 4.41577 8.46214 8.1666 5.54297 10.2749H3.54297" stroke="#D3D3D3" stroke-miterlimit="10" stroke-linecap="round" stroke-linejoin="round"/>
<path id="Vector_4" d="M16.8763 16.3584H16.293C17.2096 16.3584 17.8763 17.1084 17.7096 18.0251C17.6263 18.7751 16.9596 19.2751 16.2096 19.2751H10.793C10.4596 19.2751 10.043 19.2751 9.70964 19.1917L5.29297 18.4417H3.54297" stroke="#D3D3D3" stroke-miterlimit="10" stroke-linecap="round" stroke-linejoin="round"/>
<path id="Vector_5" d="M3.54167 8.8584H0.625V19.2751H3.54167V8.8584Z" stroke="#D3D3D3" stroke-miterlimit="10" stroke-linecap="round" stroke-linejoin="round"/>
</g>
<defs>
<clipPath id="clip0_3059_183966">
<rect width="20" height="20" fill="white"/>
</clipPath>
</defs>
</svg>
