<svg width="20" height="20" viewBox="0 0 20 20" fill="none" xmlns="http://www.w3.org/2000/svg">
<g id="Bullet List">
<g id="bullet-list--points-bullet-unordered-list-lists-bullets">
<path id="Vector" d="M1.42913 4.28575C1.82362 4.28575 2.14342 3.96595 2.14342 3.57146C2.14342 3.17698 1.82362 2.85718 1.42913 2.85718C1.03464 2.85718 0.714844 3.17698 0.714844 3.57146C0.714844 3.96595 1.03464 4.28575 1.42913 4.28575Z" stroke="#E8E8E8" stroke-linecap="round" stroke-linejoin="round"/>
<path id="Vector_2" d="M6.42969 3.57153H19.2868" stroke="#E8E8E8" stroke-linecap="round" stroke-linejoin="round"/>
<path id="Vector_3" d="M1.42913 10.7142C1.82362 10.7142 2.14342 10.3944 2.14342 9.99993C2.14342 9.60544 1.82362 9.28564 1.42913 9.28564C1.03464 9.28564 0.714844 9.60544 0.714844 9.99993C0.714844 10.3944 1.03464 10.7142 1.42913 10.7142Z" stroke="#E8E8E8" stroke-linecap="round" stroke-linejoin="round"/>
<path id="Vector_4" d="M6.42969 10H19.2868" stroke="#E8E8E8" stroke-linecap="round" stroke-linejoin="round"/>
<path id="Vector_5" d="M1.42913 17.1429C1.82362 17.1429 2.14342 16.8231 2.14342 16.4286C2.14342 16.0342 1.82362 15.7144 1.42913 15.7144C1.03464 15.7144 0.714844 16.0342 0.714844 16.4286C0.714844 16.8231 1.03464 17.1429 1.42913 17.1429Z" stroke="#E8E8E8" stroke-linecap="round" stroke-linejoin="round"/>
<path id="Vector_6" d="M6.42969 16.4287H19.2868" stroke="#E8E8E8" stroke-linecap="round" stroke-linejoin="round"/>
</g>
</g>
</svg>
