<svg width="20" height="20" viewBox="0 0 20 20" fill="none" xmlns="http://www.w3.org/2000/svg">
<g id="Store Open" clip-path="url(#clip0_4424_8485)">
<path id="Vector" d="M12.0846 16.2499H10.418V12.0833H12.0846" stroke="#E8E8E8" stroke-miterlimit="10" stroke-linecap="round" stroke-linejoin="round"/>
<path id="Vector_2" d="M10.418 14.5833H12.0846" stroke="#E8E8E8" stroke-miterlimit="10" stroke-linecap="round" stroke-linejoin="round"/>
<path id="Vector_3" d="M7.08203 16.2499V12.0833" stroke="#E8E8E8" stroke-miterlimit="10" stroke-linecap="round" stroke-linejoin="round"/>
<path id="Vector_4" d="M13.75 16.2499V12.0833L15.4167 16.2499V12.0833" stroke="#E8E8E8" stroke-miterlimit="10" stroke-linecap="round" stroke-linejoin="round"/>
<path id="Vector_5" d="M4.58333 12.0833L3.75 12.9166V15.4166L4.58333 16.2499L5.41667 15.4166V12.9166L4.58333 12.0833Z" stroke="#E8E8E8" stroke-miterlimit="10" stroke-linecap="round" stroke-linejoin="round"/>
<path id="Vector_6" d="M7.08203 12.0833H8.7487V13.7499L7.08203 14.5833" stroke="#E8E8E8" stroke-miterlimit="10" stroke-linecap="round" stroke-linejoin="round"/>
<path id="Vector_7" d="M17.082 11.25V18.75H2.08203V11.25" stroke="#E8E8E8" stroke-miterlimit="10" stroke-linecap="round" stroke-linejoin="round"/>
<path id="Vector_8" d="M0.417969 18.75H18.7513" stroke="#E8E8E8" stroke-miterlimit="10" stroke-linecap="round" stroke-linejoin="round"/>
<path id="Vector_9" d="M18.7513 6.24992H0.417969L2.91797 2.08325H16.2513L18.7513 6.24992Z" stroke="#E8E8E8" stroke-miterlimit="10" stroke-linecap="round" stroke-linejoin="round"/>
<path id="Vector_10" d="M2.91797 6.24992L5.41797 2.08325" stroke="#E8E8E8" stroke-miterlimit="10" stroke-linecap="round" stroke-linejoin="round"/>
<path id="Vector_11" d="M6.25 6.24992L7.91667 2.08325" stroke="#E8E8E8" stroke-miterlimit="10" stroke-linecap="round" stroke-linejoin="round"/>
<path id="Vector_12" d="M9.58203 6.24992V2.08325" stroke="#E8E8E8" stroke-miterlimit="10" stroke-linecap="round" stroke-linejoin="round"/>
<path id="Vector_13" d="M9.58464 8.33333L7.91797 9.58333L6.2513 8.33333L4.58464 9.58333L2.91797 8.33333L1.66797 9.58333L0.417969 8.33333V6.25" stroke="#E8E8E8" stroke-miterlimit="10" stroke-linecap="round" stroke-linejoin="round"/>
<path id="Vector_14" d="M2.91797 8.33333V6.25" stroke="#E8E8E8" stroke-miterlimit="10" stroke-linecap="round" stroke-linejoin="round"/>
<path id="Vector_15" d="M9.58203 8.33333V6.25" stroke="#E8E8E8" stroke-miterlimit="10" stroke-linecap="round" stroke-linejoin="round"/>
<path id="Vector_16" d="M6.25 8.33333V6.25" stroke="#E8E8E8" stroke-miterlimit="10" stroke-linecap="round" stroke-linejoin="round"/>
<path id="Vector_17" d="M16.25 6.24992L13.75 2.08325" stroke="#E8E8E8" stroke-miterlimit="10" stroke-linecap="round" stroke-linejoin="round"/>
<path id="Vector_18" d="M12.9167 6.24992L11.25 2.08325" stroke="#E8E8E8" stroke-miterlimit="10" stroke-linecap="round" stroke-linejoin="round"/>
<path id="Vector_19" d="M9.58203 8.33333L11.2487 9.58333L12.9154 8.33333L14.582 9.58333L16.2487 8.33333L17.4987 9.58333L18.7487 8.33333V6.25" stroke="#E8E8E8" stroke-miterlimit="10" stroke-linecap="round" stroke-linejoin="round"/>
<path id="Vector_20" d="M16.25 8.33333V6.25" stroke="#E8E8E8" stroke-miterlimit="10" stroke-linecap="round" stroke-linejoin="round"/>
<path id="Vector_21" d="M12.918 8.32167V6.25" stroke="#E8E8E8" stroke-miterlimit="10" stroke-linecap="round" stroke-linejoin="round"/>
</g>
<defs>
<clipPath id="clip0_4424_8485">
<rect width="20" height="20" fill="white"/>
</clipPath>
</defs>
</svg>
