<svg width="20" height="20" viewBox="0 0 20 20" fill="none" xmlns="http://www.w3.org/2000/svg">
<g id="Synchronize Arrow Time">
<path id="Vector" d="M2.50391 2.62117L5.51097 5.62823H2.50391V2.62117Z" fill="#E8E8E8" stroke="#E8E8E8"/>
<path id="Vector_2" d="M9.66406 5.25244V10.2524H12.9974" stroke="#E8E8E8" stroke-linejoin="round"/>
<path id="Vector_3" d="M3.7125 16.0834C4.90364 17.2993 6.43855 18.1213 8.1108 18.4388C9.78305 18.7564 11.5124 18.5542 13.0664 17.8595C14.6203 17.1649 15.9242 16.011 16.8028 14.5532C17.6814 13.0953 18.0925 11.4034 17.9807 9.7049C17.869 8.00644 17.2399 6.38291 16.178 5.05268C15.116 3.72245 13.6722 2.74931 12.0407 2.26415C10.4091 1.77898 8.66818 1.80506 7.05192 2.33887C5.43566 2.87268 4.02163 3.88863 3 5.25007" stroke="#E8E8E8" stroke-linejoin="round"/>
</g>
</svg>
