<svg width="18" height="18" viewBox="0 0 18 18" fill="none" xmlns="http://www.w3.org/2000/svg">
<path d="M4.26667 16.2267H12.7807C13.1571 16.2267 13.518 16.0772 13.7841 15.8111C14.0502 15.545 14.1997 15.1841 14.1997 14.8077V6.29365L9.9427 2.03662H4.26667C3.89032 2.03662 3.52939 2.18612 3.26327 2.45224C2.99716 2.71836 2.84766 3.07929 2.84766 3.45563V14.8077C2.84766 15.1841 2.99716 15.545 3.26327 15.8111C3.52939 16.0772 3.89032 16.2267 4.26667 16.2267ZM9.2332 3.45563L12.7807 7.00315H9.2332V3.45563ZM6.04043 8.42216C6.18023 8.42221 6.31866 8.44979 6.44781 8.50334C6.57696 8.55688 6.69429 8.63534 6.79312 8.73423C6.89194 8.83312 6.97032 8.95051 7.02378 9.07969C7.07724 9.20888 7.10473 9.34732 7.10468 9.48713C7.10464 9.62694 7.07705 9.76537 7.02351 9.89451C6.96996 10.0237 6.89151 10.141 6.79262 10.2398C6.69373 10.3386 6.57634 10.417 6.44715 10.4705C6.31797 10.5239 6.17952 10.5514 6.03972 10.5514C5.75736 10.5513 5.48661 10.439 5.28703 10.2393C5.08744 10.0396 4.97537 9.76877 4.97546 9.48642C4.97555 9.20407 5.08781 8.93332 5.28753 8.73373C5.48725 8.53414 5.75807 8.42207 6.04043 8.42216ZM6.39518 11.9697L7.52826 12.9367L9.2332 9.84117L12.0712 14.0982H4.97617L6.39518 11.9697Z" fill="#1E77CC"/>
</svg>
