<svg width="397" height="46" viewBox="0 0 397 46" fill="none" xmlns="http://www.w3.org/2000/svg">
<rect width="358" height="7" rx="3.5" transform="matrix(1 0 0 -1 22 16)" fill="#1C0029"/>
<path d="M6.42285 40.3486H4.57227V39.377H6.42285C6.74512 39.377 7.00553 39.3249 7.2041 39.2207C7.40267 39.1165 7.54753 38.9733 7.63867 38.791C7.73307 38.6055 7.78027 38.3939 7.78027 38.1562C7.78027 37.9316 7.73307 37.7217 7.63867 37.5264C7.54753 37.3278 7.40267 37.1683 7.2041 37.0479C7.00553 36.9274 6.74512 36.8672 6.42285 36.8672H4.94824V43H3.72266V35.8906H6.42285C6.97298 35.8906 7.4401 35.9883 7.82422 36.1836C8.21159 36.3757 8.50618 36.6426 8.70801 36.9844C8.90983 37.3229 9.01074 37.7103 9.01074 38.1465C9.01074 38.6055 8.90983 38.9993 8.70801 39.3281C8.50618 39.6569 8.21159 39.9092 7.82422 40.085C7.4401 40.2607 6.97298 40.3486 6.42285 40.3486ZM11.291 38.7227V43H10.1142V37.7168H11.2372L11.291 38.7227ZM12.9072 37.6826L12.8974 38.7764C12.8258 38.7633 12.7477 38.7536 12.663 38.7471C12.5816 38.7406 12.5003 38.7373 12.4189 38.7373C12.2171 38.7373 12.0397 38.7666 11.8867 38.8252C11.7337 38.8805 11.6051 38.9619 11.5009 39.0693C11.4 39.1735 11.3219 39.3005 11.2665 39.4502C11.2112 39.5999 11.1787 39.7676 11.1689 39.9531L10.9003 39.9727C10.9003 39.6406 10.9329 39.333 10.998 39.0498C11.0631 38.7666 11.1608 38.5176 11.291 38.3027C11.4244 38.0879 11.5904 37.9202 11.789 37.7998C11.9908 37.6794 12.2236 37.6191 12.4872 37.6191C12.5589 37.6191 12.6354 37.6257 12.7167 37.6387C12.8014 37.6517 12.8649 37.6663 12.9072 37.6826ZM13.41 40.417V40.3047C13.41 39.9238 13.4654 39.5706 13.5761 39.2451C13.6867 38.9163 13.8462 38.6315 14.0546 38.3906C14.2662 38.1465 14.5233 37.9577 14.8261 37.8242C15.132 37.6875 15.4771 37.6191 15.8612 37.6191C16.2486 37.6191 16.5936 37.6875 16.8964 37.8242C17.2024 37.9577 17.4611 38.1465 17.6727 38.3906C17.8843 38.6315 18.0455 38.9163 18.1561 39.2451C18.2668 39.5706 18.3222 39.9238 18.3222 40.3047V40.417C18.3222 40.7979 18.2668 41.151 18.1561 41.4766C18.0455 41.8021 17.8843 42.0869 17.6727 42.3311C17.4611 42.5719 17.204 42.7607 16.9013 42.8975C16.5985 43.0309 16.2551 43.0977 15.871 43.0977C15.4836 43.0977 15.1369 43.0309 14.8309 42.8975C14.5282 42.7607 14.271 42.5719 14.0595 42.3311C13.8479 42.0869 13.6867 41.8021 13.5761 41.4766C13.4654 41.151 13.41 40.7979 13.41 40.417ZM14.5868 40.3047V40.417C14.5868 40.6546 14.6112 40.8792 14.66 41.0908C14.7089 41.3024 14.7854 41.488 14.8895 41.6475C14.9937 41.807 15.1272 41.9323 15.2899 42.0234C15.4527 42.1146 15.6464 42.1602 15.871 42.1602C16.0891 42.1602 16.2779 42.1146 16.4374 42.0234C16.6001 41.9323 16.7336 41.807 16.8378 41.6475C16.9419 41.488 17.0184 41.3024 17.0673 41.0908C17.1194 40.8792 17.1454 40.6546 17.1454 40.417V40.3047C17.1454 40.0703 17.1194 39.849 17.0673 39.6406C17.0184 39.429 16.9403 39.2419 16.8329 39.0791C16.7287 38.9163 16.5953 38.7894 16.4325 38.6982C16.273 38.6038 16.0826 38.5566 15.8612 38.5566C15.6399 38.5566 15.4478 38.6038 15.285 38.6982C15.1255 38.7894 14.9937 38.9163 14.8895 39.0791C14.7854 39.2419 14.7089 39.429 14.66 39.6406C14.6112 39.849 14.5868 40.0703 14.5868 40.3047ZM20.9393 43H19.7576V37.375C19.7576 36.9486 19.8423 36.5889 20.0115 36.2959C20.1841 36.0029 20.4298 35.7799 20.7489 35.627C21.0711 35.474 21.4536 35.3975 21.8963 35.3975C22.1567 35.3975 22.4074 35.4251 22.6483 35.4805C22.8924 35.5358 23.1447 35.6058 23.4051 35.6904L23.2244 36.6475C23.0584 36.5921 22.8745 36.54 22.6727 36.4912C22.4709 36.4391 22.2381 36.4131 21.9744 36.4131C21.6196 36.4131 21.3576 36.4945 21.1883 36.6572C21.0223 36.8167 20.9393 37.056 20.9393 37.375V43ZM21.9989 37.7168V38.5762H18.9471V37.7168H21.9989ZM23.9617 37.7168V43H22.785V37.7168H23.9617ZM26.6521 35.5V43H25.4705V35.5H26.6521ZM30.3874 43.0977C29.9968 43.0977 29.6436 43.0342 29.3278 42.9072C29.0153 42.777 28.7484 42.5964 28.5271 42.3652C28.309 42.1341 28.1413 41.8623 28.0241 41.5498C27.9069 41.2373 27.8483 40.9004 27.8483 40.5391V40.3438C27.8483 39.9303 27.9086 39.556 28.029 39.2207C28.1495 38.8854 28.3171 38.599 28.5319 38.3613C28.7468 38.1204 29.0007 37.9365 29.2937 37.8096C29.5866 37.6826 29.904 37.6191 30.2458 37.6191C30.6234 37.6191 30.9538 37.6826 31.237 37.8096C31.5202 37.9365 31.7546 38.1156 31.9401 38.3467C32.1289 38.5745 32.2689 38.8464 32.3601 39.1621C32.4545 39.4779 32.5017 39.8262 32.5017 40.207V40.71H28.4196V39.8652H31.3396V39.7725C31.333 39.5609 31.2907 39.3623 31.2126 39.1768C31.1377 38.9912 31.0222 38.8415 30.8659 38.7275C30.7097 38.6136 30.5013 38.5566 30.2409 38.5566C30.0456 38.5566 29.8715 38.599 29.7185 38.6836C29.5687 38.765 29.4434 38.8838 29.3425 39.04C29.2416 39.1963 29.1635 39.3851 29.1081 39.6064C29.056 39.8245 29.03 40.0703 29.03 40.3438V40.5391C29.03 40.7702 29.0609 40.985 29.1228 41.1836C29.1879 41.3789 29.2823 41.5498 29.406 41.6963C29.5297 41.8428 29.6794 41.9583 29.8552 42.043C30.031 42.1243 30.2312 42.165 30.4558 42.165C30.739 42.165 30.9913 42.1081 31.2126 41.9941C31.434 41.8802 31.626 41.7191 31.7888 41.5107L32.4089 42.1113C32.295 42.2773 32.1469 42.4368 31.9646 42.5898C31.7823 42.7396 31.5593 42.8617 31.2956 42.9561C31.0352 43.0505 30.7325 43.0977 30.3874 43.0977ZM40.0016 41.1689C40.0016 41.0225 39.9788 40.8923 39.9332 40.7783C39.8909 40.6644 39.8144 40.5602 39.7037 40.4658C39.593 40.3714 39.4368 40.2803 39.235 40.1924C39.0364 40.1012 38.7825 40.0085 38.4732 39.9141C38.1347 39.8099 37.8222 39.6943 37.5357 39.5674C37.2525 39.4372 37.0051 39.2874 36.7935 39.1182C36.582 38.9456 36.4176 38.7487 36.3004 38.5273C36.1832 38.3027 36.1246 38.0439 36.1246 37.751C36.1246 37.4613 36.1848 37.1976 36.3053 36.96C36.429 36.7223 36.6031 36.5173 36.8277 36.3447C37.0556 36.1689 37.3241 36.0339 37.6334 35.9395C37.9426 35.8418 38.2844 35.793 38.6588 35.793C39.1861 35.793 39.6402 35.8906 40.0211 36.0859C40.4052 36.2812 40.6998 36.5433 40.9049 36.8721C41.1132 37.2008 41.2174 37.5638 41.2174 37.9609H40.0016C40.0016 37.7266 39.9511 37.5199 39.8502 37.3408C39.7525 37.1585 39.6028 37.0153 39.401 36.9111C39.2024 36.807 38.9501 36.7549 38.6441 36.7549C38.3544 36.7549 38.1135 36.7988 37.9215 36.8867C37.7294 36.9746 37.5862 37.0934 37.4918 37.2432C37.3974 37.3929 37.3502 37.5622 37.3502 37.751C37.3502 37.8844 37.3811 38.0065 37.443 38.1172C37.5048 38.2246 37.5992 38.3255 37.7262 38.4199C37.8531 38.5111 38.0126 38.5973 38.2047 38.6787C38.3967 38.7601 38.623 38.8382 38.8834 38.9131C39.2773 39.0303 39.6207 39.1605 39.9137 39.3037C40.2066 39.4437 40.4508 39.6032 40.6461 39.7822C40.8414 39.9613 40.9879 40.1647 41.0855 40.3926C41.1832 40.6172 41.232 40.8727 41.232 41.1592C41.232 41.4587 41.1718 41.7288 41.0514 41.9697C40.9309 42.2074 40.7584 42.4108 40.5338 42.5801C40.3124 42.7461 40.0455 42.8747 39.733 42.9658C39.4238 43.0537 39.0787 43.0977 38.6978 43.0977C38.356 43.0977 38.0191 43.0521 37.6871 42.9609C37.3583 42.8698 37.0588 42.7314 36.7887 42.5459C36.5185 42.3571 36.3036 42.1227 36.1441 41.8428C35.9846 41.5596 35.9049 41.2292 35.9049 40.8516H37.1305C37.1305 41.0827 37.1695 41.2796 37.2477 41.4424C37.329 41.6051 37.4413 41.7386 37.5846 41.8428C37.7278 41.9437 37.8938 42.0186 38.0826 42.0674C38.2747 42.1162 38.4797 42.1406 38.6978 42.1406C38.9843 42.1406 39.2236 42.0999 39.4156 42.0186C39.6109 41.9372 39.7574 41.8232 39.8551 41.6768C39.9527 41.5303 40.0016 41.361 40.0016 41.1689ZM44.6451 43.0977C44.2544 43.0977 43.9012 43.0342 43.5855 42.9072C43.273 42.777 43.0061 42.5964 42.7847 42.3652C42.5666 42.1341 42.399 41.8623 42.2818 41.5498C42.1646 41.2373 42.106 40.9004 42.106 40.5391V40.3438C42.106 39.9303 42.1662 39.556 42.2867 39.2207C42.4071 38.8854 42.5747 38.599 42.7896 38.3613C43.0044 38.1204 43.2583 37.9365 43.5513 37.8096C43.8443 37.6826 44.1617 37.6191 44.5035 37.6191C44.8811 37.6191 45.2115 37.6826 45.4947 37.8096C45.7779 37.9365 46.0122 38.1156 46.1978 38.3467C46.3866 38.5745 46.5266 38.8464 46.6177 39.1621C46.7121 39.4779 46.7593 39.8262 46.7593 40.207V40.71H42.6773V39.8652H45.5972V39.7725C45.5907 39.5609 45.5484 39.3623 45.4702 39.1768C45.3954 38.9912 45.2798 38.8415 45.1236 38.7275C44.9673 38.6136 44.759 38.5566 44.4986 38.5566C44.3033 38.5566 44.1291 38.599 43.9761 38.6836C43.8264 38.765 43.701 38.8838 43.6001 39.04C43.4992 39.1963 43.4211 39.3851 43.3658 39.6064C43.3137 39.8245 43.2876 40.0703 43.2876 40.3438V40.5391C43.2876 40.7702 43.3186 40.985 43.3804 41.1836C43.4455 41.3789 43.5399 41.5498 43.6636 41.6963C43.7873 41.8428 43.937 41.9583 44.1128 42.043C44.2886 42.1243 44.4888 42.165 44.7134 42.165C44.9966 42.165 45.2489 42.1081 45.4702 41.9941C45.6916 41.8802 45.8837 41.7191 46.0464 41.5107L46.6665 42.1113C46.5526 42.2773 46.4045 42.4368 46.2222 42.5898C46.0399 42.7396 45.8169 42.8617 45.5533 42.9561C45.2928 43.0505 44.9901 43.0977 44.6451 43.0977ZM50.2163 37.7168V38.5762H47.2378V37.7168H50.2163ZM48.0971 36.4229H49.2739V41.54C49.2739 41.7028 49.2967 41.8281 49.3423 41.916C49.3911 42.0007 49.4578 42.0576 49.5425 42.0869C49.6271 42.1162 49.7264 42.1309 49.8403 42.1309C49.9217 42.1309 49.9998 42.126 50.0747 42.1162C50.1496 42.1064 50.2098 42.0967 50.2553 42.0869L50.2602 42.9854C50.1626 43.0146 50.0486 43.0407 49.9184 43.0635C49.7915 43.0863 49.645 43.0977 49.479 43.0977C49.2088 43.0977 48.9695 43.0505 48.7612 42.9561C48.5529 42.8584 48.3901 42.7005 48.2729 42.4824C48.1557 42.2643 48.0971 41.9746 48.0971 41.6133V36.4229ZM57.9554 35.8906H59.1761V40.6416C59.1761 41.182 59.0589 41.6344 58.8246 41.999C58.5902 42.3636 58.2712 42.6387 57.8675 42.8242C57.4671 43.0065 57.0196 43.0977 56.5248 43.0977C56.0137 43.0977 55.558 43.0065 55.1576 42.8242C54.7572 42.6387 54.4414 42.3636 54.2103 41.999C53.9824 41.6344 53.8685 41.182 53.8685 40.6416V35.8906H55.0892V40.6416C55.0892 40.9834 55.1478 41.265 55.265 41.4863C55.3822 41.7044 55.5482 41.8656 55.763 41.9697C55.9779 42.0739 56.2318 42.126 56.5248 42.126C56.8177 42.126 57.07 42.0739 57.2816 41.9697C57.4964 41.8656 57.6625 41.7044 57.7796 41.4863C57.8968 41.265 57.9554 40.9834 57.9554 40.6416V35.8906ZM61.6907 38.7324V45.0312H60.514V37.7168H61.5979L61.6907 38.7324ZM65.1331 40.3096V40.4121C65.1331 40.7962 65.0875 41.1527 64.9964 41.4814C64.9085 41.807 64.7767 42.0918 64.6009 42.3359C64.4284 42.5768 64.2151 42.764 63.9612 42.8975C63.7073 43.0309 63.4144 43.0977 63.0823 43.0977C62.7535 43.0977 62.4655 43.0374 62.2181 42.917C61.9739 42.7933 61.7672 42.6191 61.5979 42.3945C61.4287 42.1699 61.292 41.9062 61.1878 41.6035C61.0869 41.2975 61.0153 40.9622 60.9729 40.5977V40.2021C61.0153 39.8148 61.0869 39.4632 61.1878 39.1475C61.292 38.8317 61.4287 38.5599 61.5979 38.332C61.7672 38.1042 61.9739 37.9284 62.2181 37.8047C62.4622 37.681 62.747 37.6191 63.0726 37.6191C63.4046 37.6191 63.6992 37.6842 63.9563 37.8145C64.2135 37.9414 64.43 38.1237 64.6058 38.3613C64.7815 38.5957 64.9134 38.8789 65.0013 39.2109C65.0892 39.5397 65.1331 39.9059 65.1331 40.3096ZM63.9563 40.4121V40.3096C63.9563 40.0654 63.9336 39.8392 63.888 39.6309C63.8424 39.4193 63.7708 39.2337 63.6731 39.0742C63.5755 38.9147 63.4502 38.791 63.2972 38.7031C63.1474 38.612 62.9668 38.5664 62.7552 38.5664C62.5468 38.5664 62.3678 38.6022 62.2181 38.6738C62.0683 38.7422 61.943 38.8382 61.8421 38.9619C61.7412 39.0856 61.6631 39.2305 61.6077 39.3965C61.5524 39.5592 61.5133 39.7367 61.4905 39.9287V40.876C61.5296 41.1104 61.5963 41.3252 61.6907 41.5205C61.7851 41.7158 61.9186 41.8721 62.0911 41.9893C62.2669 42.1032 62.4915 42.1602 62.7649 42.1602C62.9765 42.1602 63.1572 42.1146 63.3069 42.0234C63.4567 41.9323 63.5787 41.807 63.6731 41.6475C63.7708 41.4847 63.8424 41.2975 63.888 41.0859C63.9336 40.8743 63.9563 40.6497 63.9563 40.4121Z" fill="#E8E8E8"/>
<path d="M117.159 41.7012L119.029 35.8906H120.382L117.833 43H116.92L117.159 41.7012ZM115.431 35.8906L117.286 41.7012L117.54 43H116.622L114.083 35.8906H115.431ZM123.292 43.0977C122.901 43.0977 122.548 43.0342 122.232 42.9072C121.92 42.777 121.653 42.5964 121.432 42.3652C121.213 42.1341 121.046 41.8623 120.929 41.5498C120.811 41.2373 120.753 40.9004 120.753 40.5391V40.3438C120.753 39.9303 120.813 39.556 120.934 39.2207C121.054 38.8854 121.222 38.599 121.436 38.3613C121.651 38.1204 121.905 37.9365 122.198 37.8096C122.491 37.6826 122.809 37.6191 123.15 37.6191C123.528 37.6191 123.858 37.6826 124.142 37.8096C124.425 37.9365 124.659 38.1156 124.845 38.3467C125.033 38.5745 125.173 38.8464 125.265 39.1621C125.359 39.4779 125.406 39.8262 125.406 40.207V40.71H121.324V39.8652H124.244V39.7725C124.238 39.5609 124.195 39.3623 124.117 39.1768C124.042 38.9912 123.927 38.8415 123.77 38.7275C123.614 38.6136 123.406 38.5566 123.145 38.5566C122.95 38.5566 122.776 38.599 122.623 38.6836C122.473 38.765 122.348 38.8838 122.247 39.04C122.146 39.1963 122.068 39.3851 122.013 39.6064C121.961 39.8245 121.935 40.0703 121.935 40.3438V40.5391C121.935 40.7702 121.965 40.985 122.027 41.1836C122.092 41.3789 122.187 41.5498 122.31 41.6963C122.434 41.8428 122.584 41.9583 122.76 42.043C122.935 42.1243 123.136 42.165 123.36 42.165C123.643 42.165 123.896 42.1081 124.117 41.9941C124.338 41.8802 124.531 41.7191 124.693 41.5107L125.313 42.1113C125.199 42.2773 125.051 42.4368 124.869 42.5898C124.687 42.7396 124.464 42.8617 124.2 42.9561C123.94 43.0505 123.637 43.0977 123.292 43.0977ZM127.623 38.7227V43H126.446V37.7168H127.569L127.623 38.7227ZM129.239 37.6826L129.229 38.7764C129.158 38.7633 129.08 38.7536 128.995 38.7471C128.914 38.7406 128.832 38.7373 128.751 38.7373C128.549 38.7373 128.372 38.7666 128.219 38.8252C128.066 38.8805 127.937 38.9619 127.833 39.0693C127.732 39.1735 127.654 39.3005 127.599 39.4502C127.543 39.5999 127.511 39.7676 127.501 39.9531L127.232 39.9727C127.232 39.6406 127.265 39.333 127.33 39.0498C127.395 38.7666 127.493 38.5176 127.623 38.3027C127.756 38.0879 127.922 37.9202 128.121 37.7998C128.323 37.6794 128.556 37.6191 128.819 37.6191C128.891 37.6191 128.967 37.6257 129.049 37.6387C129.133 37.6517 129.197 37.6663 129.239 37.6826ZM131.353 37.7168V43H130.172V37.7168H131.353ZM130.094 36.3301C130.094 36.151 130.152 36.0029 130.269 35.8857C130.39 35.7653 130.556 35.7051 130.767 35.7051C130.976 35.7051 131.14 35.7653 131.261 35.8857C131.381 36.0029 131.441 36.151 131.441 36.3301C131.441 36.5059 131.381 36.6523 131.261 36.7695C131.14 36.8867 130.976 36.9453 130.767 36.9453C130.556 36.9453 130.39 36.8867 130.269 36.7695C130.152 36.6523 130.094 36.5059 130.094 36.3301ZM134.273 43H133.092V37.375C133.092 36.9486 133.176 36.5889 133.345 36.2959C133.518 36.0029 133.764 35.7799 134.083 35.627C134.405 35.474 134.788 35.3975 135.23 35.3975C135.491 35.3975 135.741 35.4251 135.982 35.4805C136.226 35.5358 136.479 35.6058 136.739 35.6904L136.558 36.6475C136.392 36.5921 136.208 36.54 136.007 36.4912C135.805 36.4391 135.572 36.4131 135.308 36.4131C134.954 36.4131 134.692 36.4945 134.522 36.6572C134.356 36.8167 134.273 37.056 134.273 37.375V43ZM135.333 37.7168V38.5762H132.281V37.7168H135.333ZM137.296 37.7168V43H136.119V37.7168H137.296ZM140.884 42.1602C141.077 42.1602 141.249 42.1227 141.402 42.0479C141.558 41.9697 141.684 41.8623 141.778 41.7256C141.876 41.5889 141.929 41.431 141.939 41.252H143.048C143.041 41.5938 142.94 41.9046 142.745 42.1846C142.55 42.4645 142.291 42.6875 141.968 42.8535C141.646 43.0163 141.29 43.0977 140.899 43.0977C140.495 43.0977 140.144 43.0293 139.844 42.8926C139.545 42.7526 139.296 42.5605 139.097 42.3164C138.899 42.0723 138.749 41.7907 138.648 41.4717C138.55 41.1527 138.502 40.8109 138.502 40.4463V40.2754C138.502 39.9108 138.55 39.569 138.648 39.25C138.749 38.9277 138.899 38.6445 139.097 38.4004C139.296 38.1562 139.545 37.9658 139.844 37.8291C140.144 37.6891 140.494 37.6191 140.894 37.6191C141.317 37.6191 141.689 37.7038 142.008 37.873C142.327 38.0391 142.577 38.2718 142.759 38.5713C142.945 38.8675 143.041 39.2126 143.048 39.6064H141.939C141.929 39.4111 141.881 39.2354 141.793 39.0791C141.708 38.9196 141.588 38.7926 141.431 38.6982C141.278 38.6038 141.094 38.5566 140.88 38.5566C140.642 38.5566 140.445 38.6055 140.289 38.7031C140.133 38.7975 140.01 38.9277 139.923 39.0938C139.835 39.2565 139.771 39.4404 139.732 39.6455C139.696 39.8473 139.678 40.0573 139.678 40.2754V40.4463C139.678 40.6644 139.696 40.876 139.732 41.0811C139.768 41.2861 139.83 41.4701 139.918 41.6328C140.009 41.7923 140.133 41.9209 140.289 42.0186C140.445 42.113 140.644 42.1602 140.884 42.1602ZM147.047 41.9404V39.4209C147.047 39.2321 147.012 39.0693 146.944 38.9326C146.876 38.7959 146.771 38.6901 146.631 38.6152C146.495 38.5404 146.322 38.5029 146.114 38.5029C145.922 38.5029 145.756 38.5355 145.616 38.6006C145.476 38.6657 145.367 38.7536 145.289 38.8643C145.211 38.9749 145.172 39.1003 145.172 39.2402H144C144 39.0319 144.05 38.8301 144.151 38.6348C144.252 38.4395 144.398 38.2653 144.59 38.1123C144.783 37.9593 145.012 37.8389 145.279 37.751C145.546 37.6631 145.845 37.6191 146.177 37.6191C146.575 37.6191 146.926 37.6859 147.232 37.8193C147.541 37.9528 147.784 38.1546 147.96 38.4248C148.139 38.6917 148.228 39.027 148.228 39.4307V41.7793C148.228 42.0202 148.244 42.2367 148.277 42.4287C148.313 42.6175 148.363 42.7819 148.428 42.9219V43H147.222C147.167 42.873 147.123 42.7119 147.09 42.5166C147.061 42.318 147.047 42.126 147.047 41.9404ZM147.217 39.7871L147.227 40.5146H146.382C146.164 40.5146 145.972 40.5358 145.806 40.5781C145.64 40.6172 145.502 40.6758 145.391 40.7539C145.281 40.832 145.198 40.9264 145.142 41.0371C145.087 41.1478 145.059 41.2731 145.059 41.4131C145.059 41.5531 145.092 41.6816 145.157 41.7988C145.222 41.9128 145.316 42.0023 145.44 42.0674C145.567 42.1325 145.72 42.165 145.899 42.165C146.14 42.165 146.35 42.1162 146.529 42.0186C146.711 41.9176 146.854 41.7956 146.959 41.6523C147.063 41.5059 147.118 41.3675 147.125 41.2373L147.506 41.7598C147.466 41.8932 147.4 42.0365 147.305 42.1895C147.211 42.3424 147.087 42.4889 146.934 42.6289C146.784 42.7656 146.604 42.8779 146.392 42.9658C146.184 43.0537 145.943 43.0977 145.67 43.0977C145.325 43.0977 145.017 43.0293 144.747 42.8926C144.477 42.7526 144.265 42.5654 144.112 42.3311C143.959 42.0934 143.882 41.8249 143.882 41.5254C143.882 41.2454 143.935 40.998 144.039 40.7832C144.146 40.5651 144.302 40.3828 144.507 40.2363C144.716 40.0898 144.97 39.9792 145.269 39.9043C145.569 39.8262 145.91 39.7871 146.295 39.7871H147.217ZM151.998 37.7168V38.5762H149.019V37.7168H151.998ZM149.879 36.4229H151.055V41.54C151.055 41.7028 151.078 41.8281 151.124 41.916C151.172 42.0007 151.239 42.0576 151.324 42.0869C151.408 42.1162 151.508 42.1309 151.622 42.1309C151.703 42.1309 151.781 42.126 151.856 42.1162C151.931 42.1064 151.991 42.0967 152.037 42.0869L152.042 42.9854C151.944 43.0146 151.83 43.0407 151.7 43.0635C151.573 43.0863 151.426 43.0977 151.26 43.0977C150.99 43.0977 150.751 43.0505 150.543 42.9561C150.334 42.8584 150.171 42.7005 150.054 42.4824C149.937 42.2643 149.879 41.9746 149.879 41.6133V36.4229ZM154.283 37.7168V43H153.101V37.7168H154.283ZM153.023 36.3301C153.023 36.151 153.082 36.0029 153.199 35.8857C153.319 35.7653 153.485 35.7051 153.697 35.7051C153.905 35.7051 154.07 35.7653 154.19 35.8857C154.31 36.0029 154.371 36.151 154.371 36.3301C154.371 36.5059 154.31 36.6523 154.19 36.7695C154.07 36.8867 153.905 36.9453 153.697 36.9453C153.485 36.9453 153.319 36.8867 153.199 36.7695C153.082 36.6523 153.023 36.5059 153.023 36.3301ZM155.464 40.417V40.3047C155.464 39.9238 155.52 39.5706 155.63 39.2451C155.741 38.9163 155.901 38.6315 156.109 38.3906C156.32 38.1465 156.578 37.9577 156.88 37.8242C157.186 37.6875 157.531 37.6191 157.916 37.6191C158.303 37.6191 158.648 37.6875 158.951 37.8242C159.257 37.9577 159.515 38.1465 159.727 38.3906C159.939 38.6315 160.1 38.9163 160.21 39.2451C160.321 39.5706 160.376 39.9238 160.376 40.3047V40.417C160.376 40.7979 160.321 41.151 160.21 41.4766C160.1 41.8021 159.939 42.0869 159.727 42.3311C159.515 42.5719 159.258 42.7607 158.956 42.8975C158.653 43.0309 158.309 43.0977 157.925 43.0977C157.538 43.0977 157.191 43.0309 156.885 42.8975C156.582 42.7607 156.325 42.5719 156.114 42.3311C155.902 42.0869 155.741 41.8021 155.63 41.4766C155.52 41.151 155.464 40.7979 155.464 40.417ZM156.641 40.3047V40.417C156.641 40.6546 156.666 40.8792 156.714 41.0908C156.763 41.3024 156.84 41.488 156.944 41.6475C157.048 41.807 157.181 41.9323 157.344 42.0234C157.507 42.1146 157.701 42.1602 157.925 42.1602C158.143 42.1602 158.332 42.1146 158.492 42.0234C158.654 41.9323 158.788 41.807 158.892 41.6475C158.996 41.488 159.073 41.3024 159.122 41.0908C159.174 40.8792 159.2 40.6546 159.2 40.417V40.3047C159.2 40.0703 159.174 39.849 159.122 39.6406C159.073 39.429 158.995 39.2419 158.887 39.0791C158.783 38.9163 158.65 38.7894 158.487 38.6982C158.327 38.6038 158.137 38.5566 157.916 38.5566C157.694 38.5566 157.502 38.6038 157.339 38.6982C157.18 38.7894 157.048 38.9163 156.944 39.0791C156.84 39.2419 156.763 39.429 156.714 39.6406C156.666 39.849 156.641 40.0703 156.641 40.3047ZM162.647 38.8447V43H161.47V37.7168H162.579L162.647 38.8447ZM162.437 40.1631L162.056 40.1582C162.059 39.7839 162.111 39.4404 162.212 39.1279C162.316 38.8154 162.46 38.5469 162.642 38.3223C162.828 38.0977 163.049 37.9251 163.306 37.8047C163.563 37.681 163.85 37.6191 164.165 37.6191C164.419 37.6191 164.649 37.6549 164.854 37.7266C165.062 37.7949 165.24 37.9072 165.386 38.0635C165.536 38.2197 165.65 38.4232 165.728 38.6738C165.806 38.9212 165.845 39.2256 165.845 39.5869V43H164.663V39.582C164.663 39.3281 164.626 39.1279 164.551 38.9814C164.48 38.8317 164.374 38.7259 164.234 38.6641C164.097 38.599 163.926 38.5664 163.721 38.5664C163.519 38.5664 163.339 38.6087 163.179 38.6934C163.02 38.778 162.885 38.8936 162.774 39.04C162.666 39.1865 162.583 39.3558 162.525 39.5479C162.466 39.7399 162.437 39.945 162.437 40.1631Z" fill="#E8E8E8"/>
<path d="M232.423 40.3486H230.572V39.377H232.423C232.745 39.377 233.006 39.3249 233.204 39.2207C233.403 39.1165 233.548 38.9733 233.639 38.791C233.733 38.6055 233.78 38.3939 233.78 38.1562C233.78 37.9316 233.733 37.7217 233.639 37.5264C233.548 37.3278 233.403 37.1683 233.204 37.0479C233.006 36.9274 232.745 36.8672 232.423 36.8672H230.948V43H229.723V35.8906H232.423C232.973 35.8906 233.44 35.9883 233.824 36.1836C234.212 36.3757 234.506 36.6426 234.708 36.9844C234.91 37.3229 235.011 37.7103 235.011 38.1465C235.011 38.6055 234.91 38.9993 234.708 39.3281C234.506 39.6569 234.212 39.9092 233.824 40.085C233.44 40.2607 232.973 40.3486 232.423 40.3486ZM237.291 38.7227V43H236.114V37.7168H237.237L237.291 38.7227ZM238.907 37.6826L238.897 38.7764C238.826 38.7633 238.748 38.7536 238.663 38.7471C238.582 38.7406 238.5 38.7373 238.419 38.7373C238.217 38.7373 238.04 38.7666 237.887 38.8252C237.734 38.8805 237.605 38.9619 237.501 39.0693C237.4 39.1735 237.322 39.3005 237.267 39.4502C237.211 39.5999 237.179 39.7676 237.169 39.9531L236.9 39.9727C236.9 39.6406 236.933 39.333 236.998 39.0498C237.063 38.7666 237.161 38.5176 237.291 38.3027C237.424 38.0879 237.59 37.9202 237.789 37.7998C237.991 37.6794 238.224 37.6191 238.487 37.6191C238.559 37.6191 238.635 37.6257 238.717 37.6387C238.801 37.6517 238.865 37.6663 238.907 37.6826ZM241.993 43.0977C241.602 43.0977 241.249 43.0342 240.933 42.9072C240.621 42.777 240.354 42.5964 240.133 42.3652C239.915 42.1341 239.747 41.8623 239.63 41.5498C239.513 41.2373 239.454 40.9004 239.454 40.5391V40.3438C239.454 39.9303 239.514 39.556 239.635 39.2207C239.755 38.8854 239.923 38.599 240.138 38.3613C240.352 38.1204 240.606 37.9365 240.899 37.8096C241.192 37.6826 241.51 37.6191 241.851 37.6191C242.229 37.6191 242.559 37.6826 242.843 37.8096C243.126 37.9365 243.36 38.1156 243.546 38.3467C243.735 38.5745 243.875 38.8464 243.966 39.1621C244.06 39.4779 244.107 39.8262 244.107 40.207V40.71H240.025V39.8652H242.945V39.7725C242.939 39.5609 242.896 39.3623 242.818 39.1768C242.743 38.9912 242.628 38.8415 242.472 38.7275C242.315 38.6136 242.107 38.5566 241.847 38.5566C241.651 38.5566 241.477 38.599 241.324 38.6836C241.174 38.765 241.049 38.8838 240.948 39.04C240.847 39.1963 240.769 39.3851 240.714 39.6064C240.662 39.8245 240.636 40.0703 240.636 40.3438V40.5391C240.636 40.7702 240.667 40.985 240.728 41.1836C240.794 41.3789 240.888 41.5498 241.012 41.6963C241.135 41.8428 241.285 41.9583 241.461 42.043C241.637 42.1243 241.837 42.165 242.061 42.165C242.345 42.165 242.597 42.1081 242.818 41.9941C243.04 41.8802 243.232 41.7191 243.394 41.5107L244.015 42.1113C243.901 42.2773 243.752 42.4368 243.57 42.5898C243.388 42.7396 243.165 42.8617 242.901 42.9561C242.641 43.0505 242.338 43.0977 241.993 43.0977ZM246.734 43H245.557V37.209C245.557 36.8151 245.631 36.4847 245.777 36.2178C245.927 35.9476 246.14 35.7441 246.417 35.6074C246.694 35.4674 247.021 35.3975 247.398 35.3975C247.515 35.3975 247.631 35.4056 247.745 35.4219C247.859 35.4349 247.97 35.4561 248.077 35.4854L248.048 36.3936C247.983 36.3773 247.911 36.3659 247.833 36.3594C247.758 36.3529 247.677 36.3496 247.589 36.3496C247.41 36.3496 247.255 36.3838 247.125 36.4521C246.998 36.5173 246.9 36.6133 246.832 36.7402C246.767 36.8672 246.734 37.0234 246.734 37.209V43ZM247.823 37.7168V38.5762H244.747V37.7168H247.823ZM251.007 43.0977C250.616 43.0977 250.263 43.0342 249.947 42.9072C249.635 42.777 249.368 42.5964 249.146 42.3652C248.928 42.1341 248.761 41.8623 248.643 41.5498C248.526 41.2373 248.468 40.9004 248.468 40.5391V40.3438C248.468 39.9303 248.528 39.556 248.648 39.2207C248.769 38.8854 248.936 38.599 249.151 38.3613C249.366 38.1204 249.62 37.9365 249.913 37.8096C250.206 37.6826 250.523 37.6191 250.865 37.6191C251.243 37.6191 251.573 37.6826 251.856 37.8096C252.139 37.9365 252.374 38.1156 252.559 38.3467C252.748 38.5745 252.888 38.8464 252.979 39.1621C253.074 39.4779 253.121 39.8262 253.121 40.207V40.71H249.039V39.8652H251.959V39.7725C251.952 39.5609 251.91 39.3623 251.832 39.1768C251.757 38.9912 251.641 38.8415 251.485 38.7275C251.329 38.6136 251.121 38.5566 250.86 38.5566C250.665 38.5566 250.491 38.599 250.338 38.6836C250.188 38.765 250.063 38.8838 249.962 39.04C249.861 39.1963 249.783 39.3851 249.727 39.6064C249.675 39.8245 249.649 40.0703 249.649 40.3438V40.5391C249.649 40.7702 249.68 40.985 249.742 41.1836C249.807 41.3789 249.901 41.5498 250.025 41.6963C250.149 41.8428 250.299 41.9583 250.474 42.043C250.65 42.1243 250.85 42.165 251.075 42.165C251.358 42.165 251.61 42.1081 251.832 41.9941C252.053 41.8802 252.245 41.7191 252.408 41.5107L253.028 42.1113C252.914 42.2773 252.766 42.4368 252.584 42.5898C252.401 42.7396 252.178 42.8617 251.915 42.9561C251.654 43.0505 251.352 43.0977 251.007 43.0977ZM255.338 38.7227V43H254.161V37.7168H255.284L255.338 38.7227ZM256.954 37.6826L256.944 38.7764C256.872 38.7633 256.794 38.7536 256.71 38.7471C256.628 38.7406 256.547 38.7373 256.466 38.7373C256.264 38.7373 256.086 38.7666 255.933 38.8252C255.78 38.8805 255.652 38.9619 255.548 39.0693C255.447 39.1735 255.369 39.3005 255.313 39.4502C255.258 39.5999 255.225 39.7676 255.216 39.9531L254.947 39.9727C254.947 39.6406 254.98 39.333 255.045 39.0498C255.11 38.7666 255.207 38.5176 255.338 38.3027C255.471 38.0879 255.637 37.9202 255.836 37.7998C256.037 37.6794 256.27 37.6191 256.534 37.6191C256.606 37.6191 256.682 37.6257 256.763 37.6387C256.848 37.6517 256.911 37.6663 256.954 37.6826ZM260.04 43.0977C259.649 43.0977 259.296 43.0342 258.98 42.9072C258.668 42.777 258.401 42.5964 258.179 42.3652C257.961 42.1341 257.794 41.8623 257.676 41.5498C257.559 41.2373 257.501 40.9004 257.501 40.5391V40.3438C257.501 39.9303 257.561 39.556 257.681 39.2207C257.802 38.8854 257.969 38.599 258.184 38.3613C258.399 38.1204 258.653 37.9365 258.946 37.8096C259.239 37.6826 259.556 37.6191 259.898 37.6191C260.276 37.6191 260.606 37.6826 260.889 37.8096C261.173 37.9365 261.407 38.1156 261.592 38.3467C261.781 38.5745 261.921 38.8464 262.012 39.1621C262.107 39.4779 262.154 39.8262 262.154 40.207V40.71H258.072V39.8652H260.992V39.7725C260.985 39.5609 260.943 39.3623 260.865 39.1768C260.79 38.9912 260.674 38.8415 260.518 38.7275C260.362 38.6136 260.154 38.5566 259.893 38.5566C259.698 38.5566 259.524 38.599 259.371 38.6836C259.221 38.765 259.096 38.8838 258.995 39.04C258.894 39.1963 258.816 39.3851 258.76 39.6064C258.708 39.8245 258.682 40.0703 258.682 40.3438V40.5391C258.682 40.7702 258.713 40.985 258.775 41.1836C258.84 41.3789 258.935 41.5498 259.058 41.6963C259.182 41.8428 259.332 41.9583 259.507 42.043C259.683 42.1243 259.883 42.165 260.108 42.165C260.391 42.165 260.644 42.1081 260.865 41.9941C261.086 41.8802 261.278 41.7191 261.441 41.5107L262.061 42.1113C261.947 42.2773 261.799 42.4368 261.617 42.5898C261.435 42.7396 261.212 42.8617 260.948 42.9561C260.687 43.0505 260.385 43.0977 260.04 43.0977ZM264.356 38.8447V43H263.179V37.7168H264.288L264.356 38.8447ZM264.146 40.1631L263.765 40.1582C263.768 39.7839 263.821 39.4404 263.921 39.1279C264.026 38.8154 264.169 38.5469 264.351 38.3223C264.537 38.0977 264.758 37.9251 265.015 37.8047C265.272 37.681 265.559 37.6191 265.875 37.6191C266.129 37.6191 266.358 37.6549 266.563 37.7266C266.771 37.7949 266.949 37.9072 267.095 38.0635C267.245 38.2197 267.359 38.4232 267.437 38.6738C267.515 38.9212 267.554 39.2256 267.554 39.5869V43H266.373V39.582C266.373 39.3281 266.335 39.1279 266.26 38.9814C266.189 38.8317 266.083 38.7259 265.943 38.6641C265.806 38.599 265.635 38.5664 265.43 38.5664C265.228 38.5664 265.048 38.6087 264.888 38.6934C264.729 38.778 264.594 38.8936 264.483 39.04C264.376 39.1865 264.293 39.3558 264.234 39.5479C264.175 39.7399 264.146 39.945 264.146 40.1631ZM271.031 42.1602C271.223 42.1602 271.395 42.1227 271.548 42.0479C271.705 41.9697 271.83 41.8623 271.924 41.7256C272.022 41.5889 272.076 41.431 272.085 41.252H273.194C273.187 41.5938 273.086 41.9046 272.891 42.1846C272.696 42.4645 272.437 42.6875 272.115 42.8535C271.793 43.0163 271.436 43.0977 271.045 43.0977C270.642 43.0977 270.29 43.0293 269.991 42.8926C269.691 42.7526 269.442 42.5605 269.244 42.3164C269.045 42.0723 268.895 41.7907 268.794 41.4717C268.697 41.1527 268.648 40.8109 268.648 40.4463V40.2754C268.648 39.9108 268.697 39.569 268.794 39.25C268.895 38.9277 269.045 38.6445 269.244 38.4004C269.442 38.1562 269.691 37.9658 269.991 37.8291C270.29 37.6891 270.64 37.6191 271.041 37.6191C271.464 37.6191 271.835 37.7038 272.154 37.873C272.473 38.0391 272.724 38.2718 272.906 38.5713C273.091 38.8675 273.187 39.2126 273.194 39.6064H272.085C272.076 39.4111 272.027 39.2354 271.939 39.0791C271.854 38.9196 271.734 38.7926 271.578 38.6982C271.425 38.6038 271.241 38.5566 271.026 38.5566C270.788 38.5566 270.591 38.6055 270.435 38.7031C270.279 38.7975 270.157 38.9277 270.069 39.0938C269.981 39.2565 269.918 39.4404 269.878 39.6455C269.843 39.8473 269.825 40.0573 269.825 40.2754V40.4463C269.825 40.6644 269.843 40.876 269.878 41.0811C269.914 41.2861 269.976 41.4701 270.064 41.6328C270.155 41.7923 270.279 41.9209 270.435 42.0186C270.591 42.113 270.79 42.1602 271.031 42.1602ZM276.543 43.0977C276.153 43.0977 275.8 43.0342 275.484 42.9072C275.171 42.777 274.904 42.5964 274.683 42.3652C274.465 42.1341 274.297 41.8623 274.18 41.5498C274.063 41.2373 274.004 40.9004 274.004 40.5391V40.3438C274.004 39.9303 274.065 39.556 274.185 39.2207C274.305 38.8854 274.473 38.599 274.688 38.3613C274.903 38.1204 275.157 37.9365 275.45 37.8096C275.743 37.6826 276.06 37.6191 276.402 37.6191C276.779 37.6191 277.11 37.6826 277.393 37.8096C277.676 37.9365 277.911 38.1156 278.096 38.3467C278.285 38.5745 278.425 38.8464 278.516 39.1621C278.61 39.4779 278.658 39.8262 278.658 40.207V40.71H274.576V39.8652H277.496V39.7725C277.489 39.5609 277.447 39.3623 277.369 39.1768C277.294 38.9912 277.178 38.8415 277.022 38.7275C276.866 38.6136 276.657 38.5566 276.397 38.5566C276.202 38.5566 276.027 38.599 275.874 38.6836C275.725 38.765 275.599 38.8838 275.499 39.04C275.398 39.1963 275.319 39.3851 275.264 39.6064C275.212 39.8245 275.186 40.0703 275.186 40.3438V40.5391C275.186 40.7702 275.217 40.985 275.279 41.1836C275.344 41.3789 275.438 41.5498 275.562 41.6963C275.686 41.8428 275.835 41.9583 276.011 42.043C276.187 42.1243 276.387 42.165 276.612 42.165C276.895 42.165 277.147 42.1081 277.369 41.9941C277.59 41.8802 277.782 41.7191 277.945 41.5107L278.565 42.1113C278.451 42.2773 278.303 42.4368 278.121 42.5898C277.938 42.7396 277.715 42.8617 277.452 42.9561C277.191 43.0505 276.888 43.0977 276.543 43.0977ZM282.657 41.5693C282.657 41.4521 282.627 41.3464 282.569 41.252C282.51 41.1543 282.398 41.0664 282.232 40.9883C282.069 40.9102 281.828 40.8385 281.509 40.7734C281.229 40.7116 280.972 40.6383 280.738 40.5537C280.507 40.4658 280.308 40.36 280.142 40.2363C279.976 40.1126 279.847 39.9661 279.756 39.7969C279.665 39.6276 279.62 39.4323 279.62 39.2109C279.62 38.9961 279.667 38.7926 279.761 38.6006C279.856 38.4085 279.991 38.2393 280.166 38.0928C280.342 37.9463 280.555 37.8307 280.806 37.7461C281.06 37.6615 281.343 37.6191 281.656 37.6191C282.098 37.6191 282.478 37.694 282.793 37.8438C283.112 37.9902 283.357 38.1904 283.526 38.4443C283.695 38.695 283.78 38.9782 283.78 39.2939H282.603C282.603 39.154 282.567 39.0238 282.496 38.9033C282.427 38.7796 282.323 38.6803 282.183 38.6055C282.043 38.5273 281.867 38.4883 281.656 38.4883C281.454 38.4883 281.286 38.5208 281.153 38.5859C281.023 38.6478 280.925 38.7292 280.86 38.8301C280.798 38.931 280.767 39.0417 280.767 39.1621C280.767 39.25 280.783 39.3298 280.816 39.4014C280.852 39.4697 280.91 39.5332 280.992 39.5918C281.073 39.6471 281.184 39.6992 281.324 39.748C281.467 39.7969 281.646 39.8441 281.861 39.8896C282.264 39.9743 282.611 40.0833 282.901 40.2168C283.194 40.347 283.418 40.5163 283.575 40.7246C283.731 40.9297 283.809 41.1901 283.809 41.5059C283.809 41.7402 283.759 41.9551 283.658 42.1504C283.56 42.3424 283.417 42.5101 283.228 42.6533C283.039 42.7933 282.813 42.9023 282.549 42.9805C282.289 43.0586 281.996 43.0977 281.67 43.0977C281.192 43.0977 280.787 43.013 280.455 42.8438C280.122 42.6712 279.87 42.4515 279.698 42.1846C279.528 41.9144 279.444 41.6344 279.444 41.3447H280.581C280.594 41.5628 280.655 41.737 280.762 41.8672C280.873 41.9941 281.01 42.0869 281.172 42.1455C281.338 42.2008 281.509 42.2285 281.685 42.2285C281.897 42.2285 282.074 42.2008 282.217 42.1455C282.36 42.0869 282.469 42.0088 282.544 41.9111C282.619 41.8102 282.657 41.6963 282.657 41.5693Z" fill="#E8E8E8"/>
<path d="M349.723 35.8906H352.237C352.778 35.8906 353.238 35.972 353.619 36.1348C354 36.2975 354.291 36.5384 354.493 36.8574C354.698 37.1732 354.801 37.5638 354.801 38.0293C354.801 38.3841 354.736 38.6966 354.605 38.9668C354.475 39.237 354.291 39.4648 354.054 39.6504C353.816 39.8327 353.533 39.9743 353.204 40.0752L352.833 40.2559H350.572L350.562 39.2842H352.257C352.55 39.2842 352.794 39.2321 352.989 39.1279C353.185 39.0238 353.331 38.8822 353.429 38.7031C353.53 38.5208 353.58 38.3158 353.58 38.0879C353.58 37.8405 353.531 37.6257 353.434 37.4434C353.339 37.2578 353.193 37.1162 352.994 37.0186C352.796 36.9176 352.543 36.8672 352.237 36.8672H350.948V43H349.723V35.8906ZM353.78 43L352.11 39.8066L353.395 39.8018L355.089 42.9365V43H353.78ZM358.351 43.0977C357.96 43.0977 357.607 43.0342 357.291 42.9072C356.978 42.777 356.712 42.5964 356.49 42.3652C356.272 42.1341 356.104 41.8623 355.987 41.5498C355.87 41.2373 355.811 40.9004 355.811 40.5391V40.3438C355.811 39.9303 355.872 39.556 355.992 39.2207C356.113 38.8854 356.28 38.599 356.495 38.3613C356.71 38.1204 356.964 37.9365 357.257 37.8096C357.55 37.6826 357.867 37.6191 358.209 37.6191C358.587 37.6191 358.917 37.6826 359.2 37.8096C359.483 37.9365 359.718 38.1156 359.903 38.3467C360.092 38.5745 360.232 38.8464 360.323 39.1621C360.418 39.4779 360.465 39.8262 360.465 40.207V40.71H356.383V39.8652H359.303V39.7725C359.296 39.5609 359.254 39.3623 359.176 39.1768C359.101 38.9912 358.985 38.8415 358.829 38.7275C358.673 38.6136 358.464 38.5566 358.204 38.5566C358.009 38.5566 357.835 38.599 357.682 38.6836C357.532 38.765 357.407 38.8838 357.306 39.04C357.205 39.1963 357.127 39.3851 357.071 39.6064C357.019 39.8245 356.993 40.0703 356.993 40.3438V40.5391C356.993 40.7702 357.024 40.985 357.086 41.1836C357.151 41.3789 357.245 41.5498 357.369 41.6963C357.493 41.8428 357.643 41.9583 357.818 42.043C357.994 42.1243 358.194 42.165 358.419 42.165C358.702 42.165 358.954 42.1081 359.176 41.9941C359.397 41.8802 359.589 41.7191 359.752 41.5107L360.372 42.1113C360.258 42.2773 360.11 42.4368 359.928 42.5898C359.745 42.7396 359.522 42.8617 359.259 42.9561C358.998 43.0505 358.696 43.0977 358.351 43.0977ZM363.15 42.0674L364.444 37.7168H365.665L363.829 43H363.067L363.15 42.0674ZM362.159 37.7168L363.477 42.0869L363.541 43H362.779L360.933 37.7168H362.159ZM367.769 37.7168V43H366.588V37.7168H367.769ZM366.51 36.3301C366.51 36.151 366.568 36.0029 366.685 35.8857C366.806 35.7653 366.972 35.7051 367.183 35.7051C367.392 35.7051 367.556 35.7653 367.677 35.8857C367.797 36.0029 367.857 36.151 367.857 36.3301C367.857 36.5059 367.797 36.6523 367.677 36.7695C367.556 36.8867 367.392 36.9453 367.183 36.9453C366.972 36.9453 366.806 36.8867 366.685 36.7695C366.568 36.6523 366.51 36.5059 366.51 36.3301ZM371.505 43.0977C371.114 43.0977 370.761 43.0342 370.445 42.9072C370.133 42.777 369.866 42.5964 369.644 42.3652C369.426 42.1341 369.259 41.8623 369.141 41.5498C369.024 41.2373 368.966 40.9004 368.966 40.5391V40.3438C368.966 39.9303 369.026 39.556 369.146 39.2207C369.267 38.8854 369.434 38.599 369.649 38.3613C369.864 38.1204 370.118 37.9365 370.411 37.8096C370.704 37.6826 371.021 37.6191 371.363 37.6191C371.741 37.6191 372.071 37.6826 372.354 37.8096C372.637 37.9365 372.872 38.1156 373.057 38.3467C373.246 38.5745 373.386 38.8464 373.477 39.1621C373.572 39.4779 373.619 39.8262 373.619 40.207V40.71H369.537V39.8652H372.457V39.7725C372.45 39.5609 372.408 39.3623 372.33 39.1768C372.255 38.9912 372.139 38.8415 371.983 38.7275C371.827 38.6136 371.619 38.5566 371.358 38.5566C371.163 38.5566 370.989 38.599 370.836 38.6836C370.686 38.765 370.561 38.8838 370.46 39.04C370.359 39.1963 370.281 39.3851 370.225 39.6064C370.173 39.8245 370.147 40.0703 370.147 40.3438V40.5391C370.147 40.7702 370.178 40.985 370.24 41.1836C370.305 41.3789 370.4 41.5498 370.523 41.6963C370.647 41.8428 370.797 41.9583 370.972 42.043C371.148 42.1243 371.348 42.165 371.573 42.165C371.856 42.165 372.108 42.1081 372.33 41.9941C372.551 41.8802 372.743 41.7191 372.906 41.5107L373.526 42.1113C373.412 42.2773 373.264 42.4368 373.082 42.5898C372.9 42.7396 372.677 42.8617 372.413 42.9561C372.152 43.0505 371.85 43.0977 371.505 43.0977ZM376.09 41.8281L377.31 37.7168H378.062L377.857 38.9473L376.627 43H375.953L376.09 41.8281ZM375.372 37.7168L376.324 41.8477L376.402 43H375.65L374.219 37.7168H375.372ZM379.205 41.7988L380.128 37.7168H381.275L379.849 43H379.097L379.205 41.7988ZM378.189 37.7168L379.395 41.7793L379.547 43H378.873L377.628 38.9424L377.423 37.7168H378.189Z" fill="#E8E8E8"/>
<rect x="-1.40947" y="1.40947" width="19.7326" height="19.7326" rx="9.8663" transform="matrix(1 0 0 -1 4.68359 24.4176)" stroke="#811DB4" stroke-opacity="0.5" stroke-width="2.81894"/>
<circle cx="8.45683" cy="8.45683" r="7.04736" transform="matrix(1 0 0 -1 4.68359 21.5986)" fill="url(#paint0_linear_4013_221416)" fill-opacity="0.7"/>
<circle cx="8.45683" cy="8.45683" r="7.04736" transform="matrix(1 0 0 -1 4.68359 21.5986)" fill="url(#paint1_linear_4013_221416)" fill-opacity="0.7"/>
<circle cx="8.45683" cy="8.45683" r="7.04736" transform="matrix(1 0 0 -1 4.68359 21.5986)" fill="url(#paint2_linear_4013_221416)" fill-opacity="0.5"/>
<circle cx="8.45683" cy="8.45683" r="7.04736" transform="matrix(1 0 0 -1 4.68359 21.5986)" stroke="#E8E8E8" stroke-width="2.81894"/>
<rect x="-1.40947" y="1.40947" width="19.7326" height="19.7326" rx="9.8663" transform="matrix(1 0 0 -1 129.684 24.4176)" stroke="#811DB4" stroke-opacity="0.5" stroke-width="2.81894"/>
<circle cx="8.45683" cy="8.45683" r="7.04736" transform="matrix(1 0 0 -1 129.684 21.5986)" fill="url(#paint3_linear_4013_221416)" fill-opacity="0.7"/>
<circle cx="8.45683" cy="8.45683" r="7.04736" transform="matrix(1 0 0 -1 129.684 21.5986)" fill="url(#paint4_linear_4013_221416)" fill-opacity="0.7"/>
<circle cx="8.45683" cy="8.45683" r="7.04736" transform="matrix(1 0 0 -1 129.684 21.5986)" fill="url(#paint5_linear_4013_221416)" fill-opacity="0.5"/>
<circle cx="8.45683" cy="8.45683" r="7.04736" transform="matrix(1 0 0 -1 129.684 21.5986)" stroke="#E8E8E8" stroke-width="2.81894"/>
<circle cx="8.45683" cy="8.45683" r="7.04736" transform="matrix(1 0 0 -1 248 21)" fill="url(#paint6_linear_4013_221416)" fill-opacity="0.7"/>
<circle cx="8.45683" cy="8.45683" r="7.04736" transform="matrix(1 0 0 -1 248 21)" fill="url(#paint7_linear_4013_221416)" fill-opacity="0.7"/>
<circle cx="8.45683" cy="8.45683" r="7.04736" transform="matrix(1 0 0 -1 248 21)" fill="url(#paint8_linear_4013_221416)" fill-opacity="0.5"/>
<circle cx="8.45683" cy="8.45683" r="7.04736" transform="matrix(1 0 0 -1 248 21)" stroke="#E8E8E8" stroke-width="2.81894"/>
<rect x="-1.40947" y="1.40947" width="19.7326" height="19.7326" rx="9.8663" transform="matrix(1 0 0 -1 362.684 24.4176)" stroke="#811DB4" stroke-opacity="0.5" stroke-width="2.81894"/>
<circle cx="8.45683" cy="8.45683" r="7.04736" transform="matrix(1 0 0 -1 362.684 21.5986)" fill="url(#paint9_linear_4013_221416)" fill-opacity="0.7"/>
<circle cx="8.45683" cy="8.45683" r="7.04736" transform="matrix(1 0 0 -1 362.684 21.5986)" fill="url(#paint10_linear_4013_221416)" fill-opacity="0.7"/>
<circle cx="8.45683" cy="8.45683" r="7.04736" transform="matrix(1 0 0 -1 362.684 21.5986)" fill="url(#paint11_linear_4013_221416)" fill-opacity="0.5"/>
<circle cx="8.45683" cy="8.45683" r="7.04736" transform="matrix(1 0 0 -1 362.684 21.5986)" stroke="#E8E8E8" stroke-width="2.81894"/>
<defs>
<linearGradient id="paint0_linear_4013_221416" x1="20.0057" y1="-3.62939" x2="-1.31664" y2="17.9175" gradientUnits="userSpaceOnUse">
<stop offset="0.0261178" stop-color="#F5AE23"/>
<stop offset="1" stop-opacity="0"/>
</linearGradient>
<linearGradient id="paint1_linear_4013_221416" x1="0.132138" y1="0.246657" x2="4.12284" y2="3.92867" gradientUnits="userSpaceOnUse">
<stop stop-color="#F5AE23"/>
<stop offset="1" stop-opacity="0"/>
</linearGradient>
<linearGradient id="paint2_linear_4013_221416" x1="0.363379" y1="17.5362" x2="20.3667" y2="10.9962" gradientUnits="userSpaceOnUse">
<stop stop-color="#8C0FD8"/>
<stop offset="1" stop-opacity="0"/>
</linearGradient>
<linearGradient id="paint3_linear_4013_221416" x1="20.0057" y1="-3.62939" x2="-1.31664" y2="17.9175" gradientUnits="userSpaceOnUse">
<stop offset="0.0261178" stop-color="#F5AE23"/>
<stop offset="1" stop-opacity="0"/>
</linearGradient>
<linearGradient id="paint4_linear_4013_221416" x1="0.132138" y1="0.246657" x2="4.12284" y2="3.92867" gradientUnits="userSpaceOnUse">
<stop stop-color="#F5AE23"/>
<stop offset="1" stop-opacity="0"/>
</linearGradient>
<linearGradient id="paint5_linear_4013_221416" x1="0.363379" y1="17.5362" x2="20.3667" y2="10.9962" gradientUnits="userSpaceOnUse">
<stop stop-color="#8C0FD8"/>
<stop offset="1" stop-opacity="0"/>
</linearGradient>
<linearGradient id="paint6_linear_4013_221416" x1="20.0057" y1="-3.62939" x2="-1.31664" y2="17.9175" gradientUnits="userSpaceOnUse">
<stop offset="0.0261178" stop-color="#F5AE23"/>
<stop offset="1" stop-opacity="0"/>
</linearGradient>
<linearGradient id="paint7_linear_4013_221416" x1="0.132138" y1="0.246657" x2="4.12284" y2="3.92867" gradientUnits="userSpaceOnUse">
<stop stop-color="#F5AE23"/>
<stop offset="1" stop-opacity="0"/>
</linearGradient>
<linearGradient id="paint8_linear_4013_221416" x1="0.363379" y1="17.5362" x2="20.3667" y2="10.9962" gradientUnits="userSpaceOnUse">
<stop stop-color="#8C0FD8"/>
<stop offset="1" stop-opacity="0"/>
</linearGradient>
<linearGradient id="paint9_linear_4013_221416" x1="20.0057" y1="-3.62939" x2="-1.31664" y2="17.9175" gradientUnits="userSpaceOnUse">
<stop offset="0.0261178" stop-color="#F5AE23"/>
<stop offset="1" stop-opacity="0"/>
</linearGradient>
<linearGradient id="paint10_linear_4013_221416" x1="0.132138" y1="0.246657" x2="4.12284" y2="3.92867" gradientUnits="userSpaceOnUse">
<stop stop-color="#F5AE23"/>
<stop offset="1" stop-opacity="0"/>
</linearGradient>
<linearGradient id="paint11_linear_4013_221416" x1="0.363379" y1="17.5362" x2="20.3667" y2="10.9962" gradientUnits="userSpaceOnUse">
<stop stop-color="#8C0FD8"/>
<stop offset="1" stop-opacity="0"/>
</linearGradient>
</defs>
</svg>
