<svg width="65" height="45" viewBox="0 0 65 45" fill="none" xmlns="http://www.w3.org/2000/svg">
<g filter="url(#filter0_d_4013_221580)">
<path fill-rule="evenodd" clip-rule="evenodd" d="M20.5513 29.7342H16.6135L13.6607 18.3607C13.5205 17.8375 13.223 17.375 12.7852 17.157C11.6928 16.6092 10.489 16.1732 9.17578 15.9533V15.5154H15.5192C16.3947 15.5154 17.0513 16.1732 17.1607 16.9371L18.6928 25.1412L22.6286 15.5154H26.4569L20.5513 29.7342ZM28.6458 29.7342H24.9269L27.9892 15.5154H31.708L28.6458 29.7342ZM36.5191 19.4545C36.6285 18.6886 37.2851 18.2508 38.0512 18.2508C39.255 18.1408 40.5663 18.3607 41.6606 18.9066L42.3172 15.8453C41.2229 15.4074 40.0191 15.1875 38.9267 15.1875C35.3172 15.1875 32.6908 17.157 32.6908 19.8904C32.6908 21.9699 34.5512 23.0618 35.8644 23.7195C37.2851 24.3754 37.8323 24.8133 37.7229 25.4692C37.7229 26.453 36.6285 26.8908 35.5361 26.8908C34.2229 26.8908 32.9097 26.5629 31.7078 26.0151L31.0512 29.0784C32.3644 29.6243 33.7851 29.8442 35.0984 29.8442C39.1455 29.9522 41.6606 27.9846 41.6606 25.0313C41.6606 21.3121 36.5191 21.0941 36.5191 19.4545ZM54.6756 29.7342L51.7228 15.5154H48.5511C47.8945 15.5154 47.2379 15.9533 47.019 16.6092L41.5511 29.7342H45.3794L46.1435 27.6567H50.8473L51.2851 29.7342H54.6756ZM49.0986 19.3445L50.191 24.7033H47.1288L49.0986 19.3445Z" fill="#172B85"/>
</g>
<defs>
<filter id="filter0_d_4013_221580" x="-4" y="0" width="73" height="53" filterUnits="userSpaceOnUse" color-interpolation-filters="sRGB">
<feFlood flood-opacity="0" result="BackgroundImageFix"/>
<feColorMatrix in="SourceAlpha" type="matrix" values="0 0 0 0 0 0 0 0 0 0 0 0 0 0 0 0 0 0 127 0" result="hardAlpha"/>
<feOffset dy="4"/>
<feGaussianBlur stdDeviation="2"/>
<feComposite in2="hardAlpha" operator="out"/>
<feColorMatrix type="matrix" values="0 0 0 0 0 0 0 0 0 0 0 0 0 0 0 0 0 0 0.25 0"/>
<feBlend mode="normal" in2="BackgroundImageFix" result="effect1_dropShadow_4013_221580"/>
<feBlend mode="normal" in="SourceGraphic" in2="effect1_dropShadow_4013_221580" result="shape"/>
</filter>
</defs>
</svg>
