<svg width="145" height="126" viewBox="0 0 145 126" fill="none" xmlns="http://www.w3.org/2000/svg">
<path d="M90.5416 30.3355C91.1752 27.971 94.5303 27.971 95.1639 30.3355L96.9134 36.8644C101.199 52.8567 113.705 65.3392 129.705 69.595L136.305 71.3505C138.675 71.981 138.675 75.3447 136.305 75.9751L129.705 77.7306C113.705 81.9864 101.199 94.4689 96.9134 110.461L95.1639 116.99C94.5303 119.355 91.1752 119.355 90.5416 116.99L88.7921 110.461C84.5066 94.4689 72.0009 81.9864 56.0007 77.7306L49.4004 75.9751C47.0302 75.3447 47.0302 71.981 49.4004 71.3505L56.0007 69.595C72.0009 65.3392 84.5066 52.8567 88.7921 36.8644L90.5416 30.3355Z" fill="#D8B265" fill-opacity="0.5"/>
<g filter="url(#filter0_d_4013_221255)">
<path d="M59.3322 8.62443C59.9658 6.25997 63.3208 6.25998 63.9544 8.62444L65.663 15.0005C69.9485 30.9928 82.4543 43.4752 98.4545 47.7309L104.902 49.4457C107.272 50.0762 107.272 53.4399 104.902 54.0703L98.4545 55.7851C82.4543 60.0408 69.9485 72.5233 65.663 88.5155L63.9544 94.8916C63.3208 97.2561 59.9658 97.2561 59.3322 94.8916L57.6235 88.5155C53.338 72.5233 40.8323 60.0408 24.8321 55.7851L18.3849 54.0703C16.0147 53.4399 16.0147 50.0762 18.3849 49.4457L24.832 47.7309C40.8323 43.4752 53.338 30.9928 57.6235 15.0005L59.3322 8.62443Z" fill="#D8B265"/>
</g>
<path d="M101.946 7.74208C102.044 6.78708 103.435 6.78708 103.533 7.74207L103.637 8.75453C103.965 11.9581 106.502 14.4886 109.706 14.809L110.699 14.9083C111.656 15.004 111.656 16.3997 110.699 16.4955L109.706 16.5947C106.502 16.9152 103.965 19.4457 103.637 22.6492L103.533 23.6617C103.435 24.6167 102.044 24.6167 101.946 23.6617L101.842 22.6492C101.514 19.4457 98.9773 16.9152 95.7729 16.5947L94.7801 16.4955C93.8225 16.3997 93.8225 15.004 94.7801 14.9083L95.7729 14.809C98.9773 14.4886 101.514 11.9581 101.842 8.75453L101.946 7.74208Z" fill="#D8B265" fill-opacity="0.4"/>
<path d="M9.17261 31.0097C9.2371 30.3855 10.1479 30.3855 10.2124 31.0097C10.428 33.0972 12.0831 34.7508 14.1714 34.958C14.796 35.02 14.796 35.9305 14.1714 35.9924C12.0831 36.1996 10.428 37.8532 10.2124 39.9407C10.1479 40.565 9.2371 40.565 9.17261 39.9407C8.95699 37.8532 7.30197 36.1996 5.21362 35.9924C4.58902 35.9305 4.58902 35.02 5.21361 34.958C7.30197 34.7508 8.95699 33.0972 9.17261 31.0097Z" fill="#D8B265" fill-opacity="0.6"/>
<defs>
<filter id="filter0_d_4013_221255" x="15.0104" y="6.85107" width="93.2644" height="93.0042" filterUnits="userSpaceOnUse" color-interpolation-filters="sRGB">
<feFlood flood-opacity="0" result="BackgroundImageFix"/>
<feColorMatrix in="SourceAlpha" type="matrix" values="0 0 0 0 0 0 0 0 0 0 0 0 0 0 0 0 0 0 127 0" result="hardAlpha"/>
<feOffset dy="1.59511"/>
<feGaussianBlur stdDeviation="0.797555"/>
<feComposite in2="hardAlpha" operator="out"/>
<feColorMatrix type="matrix" values="0 0 0 0 0 0 0 0 0 0 0 0 0 0 0 0 0 0 0.25 0"/>
<feBlend mode="normal" in2="BackgroundImageFix" result="effect1_dropShadow_4013_221255"/>
<feBlend mode="normal" in="SourceGraphic" in2="effect1_dropShadow_4013_221255" result="shape"/>
</filter>
</defs>
</svg>
