<svg width="361" height="315" viewBox="0 0 361 315" fill="none" xmlns="http://www.w3.org/2000/svg">
<path d="M227.05 76.0728C228.639 70.1435 237.053 70.1435 238.641 76.0728L243.029 92.4452C253.775 132.548 285.135 163.85 325.258 174.522L341.81 178.925C347.753 180.506 347.753 188.941 341.81 190.521L325.258 194.924C285.135 205.596 253.775 236.898 243.029 277.001L238.641 293.373C237.053 299.303 228.639 299.303 227.05 293.373L222.663 277.001C211.917 236.898 180.557 205.596 140.433 194.924L123.882 190.521C117.938 188.941 117.938 180.506 123.882 178.925L140.433 174.522C180.557 163.85 211.917 132.548 222.663 92.4451L227.05 76.0728Z" fill="#D8B265" fill-opacity="0.5"/>
<g filter="url(#filter0_d_4013_221279)">
<path d="M148.787 21.6272C150.376 15.6979 158.789 15.6979 160.378 21.6272L164.663 37.6162C175.409 77.7194 206.769 109.021 246.893 119.693L263.06 123.993C269.004 125.574 269.004 134.009 263.06 135.59L246.893 139.89C206.769 150.562 175.409 181.864 164.663 221.967L160.378 237.956C158.789 243.885 150.376 243.885 148.787 237.956L144.502 221.967C133.756 181.864 102.396 150.562 62.2724 139.89L46.105 135.59C40.1614 134.009 40.1613 125.574 46.105 123.993L62.2723 119.693C102.395 109.021 133.756 77.7194 144.502 37.6162L148.787 21.6272Z" fill="#D8B265"/>
</g>
<path d="M255.649 19.4145C255.894 17.0197 259.383 17.0197 259.628 19.4145L259.888 21.9534C260.711 29.9869 267.073 36.3325 275.108 37.136L277.598 37.3849C279.999 37.625 279.999 41.125 277.598 41.3651L275.108 41.614C267.073 42.4175 260.711 48.7631 259.888 56.7966L259.628 59.3355C259.383 61.7303 255.894 61.7303 255.649 59.3355L255.389 56.7966C254.565 48.7631 248.204 42.4175 240.169 41.614L237.679 41.3651C235.278 41.125 235.278 37.625 237.679 37.3849L240.169 37.136C248.204 36.3325 254.565 29.9869 255.389 21.9534L255.649 19.4145Z" fill="#D8B265" fill-opacity="0.4"/>
<path d="M23.0018 77.7621C23.1635 76.1966 25.4476 76.1966 25.6093 77.7621C26.15 82.9968 30.3002 87.1435 35.5371 87.6631C37.1034 87.8185 37.1034 90.1017 35.5371 90.2571C30.3002 90.7766 26.15 94.9233 25.6093 100.158C25.4476 101.723 23.1635 101.723 23.0018 100.158C22.4611 94.9233 18.3109 90.7766 13.074 90.2571C11.5077 90.1017 11.5077 87.8185 13.074 87.6631C18.3109 87.1435 22.4611 82.9968 23.0018 77.7621Z" fill="#D8B265" fill-opacity="0.6"/>
<defs>
<filter id="filter0_d_4013_221279" x="37.6484" y="17.1802" width="233.871" height="233.223" filterUnits="userSpaceOnUse" color-interpolation-filters="sRGB">
<feFlood flood-opacity="0" result="BackgroundImageFix"/>
<feColorMatrix in="SourceAlpha" type="matrix" values="0 0 0 0 0 0 0 0 0 0 0 0 0 0 0 0 0 0 127 0" result="hardAlpha"/>
<feOffset dy="4"/>
<feGaussianBlur stdDeviation="2"/>
<feComposite in2="hardAlpha" operator="out"/>
<feColorMatrix type="matrix" values="0 0 0 0 0 0 0 0 0 0 0 0 0 0 0 0 0 0 0.25 0"/>
<feBlend mode="normal" in2="BackgroundImageFix" result="effect1_dropShadow_4013_221279"/>
<feBlend mode="normal" in="SourceGraphic" in2="effect1_dropShadow_4013_221279" result="shape"/>
</filter>
</defs>
</svg>
