<svg width="81" height="24" viewBox="0 0 81 24" fill="none" xmlns="http://www.w3.org/2000/svg">
<path d="M7.36882 11.6939C6.827 11.6939 6.35742 11.9468 5.96008 12.3802C5.56274 12.8137 5.34601 13.2833 5.34601 13.8612V20.8327C5.34601 21.3745 5.56274 21.8441 5.96008 22.2414C6.35742 22.6027 6.827 22.8194 7.36882 22.8194H7.94677V23.0361H0.361217V22.8194C1.95057 22.7833 2.74525 22.097 2.74525 20.7966V14.0418C2.74525 13.5722 2.88973 13.1749 3.10646 12.8137C3.72053 11.9106 3.72053 11.0076 3.07034 10.0684C2.85361 9.70722 2.74525 9.34601 2.74525 8.91255V2.80798C2.74525 2.15779 2.56464 1.65209 2.13118 1.29087C1.73384 0.929657 1.15589 0.78517 0.361217 0.78517V0.568439H8.09126C8.9943 0.568439 9.86122 0.640683 10.7281 0.821292C11.5951 1.0019 12.4259 1.29087 13.2205 1.72433C14.0152 2.12167 14.6293 2.69962 15.135 3.45817C15.6046 4.25285 15.8574 5.11977 15.8574 6.13118C15.8574 9.85171 13.0038 11.6939 7.36882 11.6939ZM5.38213 0.78517V9.6711C5.52662 10.827 6.14068 11.4049 7.22433 11.4049C7.76616 11.4049 8.27186 11.3688 8.77757 11.2966C9.28327 11.2243 9.78897 11.0798 10.3669 10.8631C10.9449 10.6464 11.4144 10.3213 11.8118 9.96007C12.2452 9.59886 12.5703 9.05703 12.8232 8.40684C13.1122 7.75665 13.2205 6.9981 13.2205 6.13118C13.2205 4.39734 12.7148 3.06083 11.7034 2.15779C10.692 1.21863 9.42776 0.78517 7.87453 0.78517H5.38213ZM25.1023 7.43156C25.6441 7.43156 26.1859 7.5038 26.6916 7.64829L26.0414 9.45437C25.319 9.02091 24.5966 8.80418 23.8019 8.80418C23.0072 8.76806 22.3209 8.8403 21.8152 9.05703C21.3095 9.23764 20.9844 9.45437 20.8399 9.70722V20.7966C20.8399 21.0856 20.8399 21.3023 20.876 21.519C20.876 21.6996 20.9483 21.9163 21.0928 22.1331C21.2011 22.3498 21.3817 22.5304 21.6707 22.6388C21.9236 22.7471 22.2848 22.7833 22.7182 22.7833V22.9639H16.2163V22.7833C17.4445 22.7833 18.0947 22.1331 18.0947 20.7966V9.52661H17.4806V9.34601L20.8399 7.43156V9.12928C21.9597 8.0095 23.3684 7.43156 25.1023 7.43156ZM39.359 9.45437C40.6594 10.8631 41.3096 12.7053 41.3818 15.0171C41.3818 17.2567 40.6594 19.135 39.1423 20.6882C37.6974 22.2053 35.9636 22.9639 33.9046 22.9639C31.9179 22.9639 30.2202 22.2414 28.8115 20.7605C27.4388 19.3156 26.7525 17.4734 26.7525 15.3061C26.7525 13.1027 27.4388 11.2243 28.8476 9.6711C30.2202 8.11787 32.0263 7.32319 34.1936 7.32319C36.3609 7.35931 38.0586 8.08175 39.359 9.45437ZM38.0586 18.8821C38.4921 17.7624 38.6727 16.5342 38.6727 15.1616C38.6727 13.789 38.4921 12.5608 38.0586 11.4411C37.6974 10.3213 37.1556 9.41825 36.4331 8.73194C35.8913 8.19011 35.2772 7.86502 34.5909 7.72053C34.4103 7.72053 34.2297 7.68441 34.0491 7.68441C33.1822 7.68441 32.3875 8.04563 31.6651 8.73194C30.9788 9.41825 30.4369 10.3213 30.0396 11.4411C29.6423 12.5608 29.4617 13.789 29.4617 15.1255C29.4617 16.4981 29.6423 17.7624 30.0396 18.8821C30.4369 20.0019 30.9788 20.9049 31.7012 21.5913C32.243 22.1331 32.8571 22.4582 33.5073 22.5665C33.6879 22.6388 33.8685 22.6388 34.0491 22.6388C34.916 22.6388 35.7107 22.3137 36.4331 21.5913C37.1556 20.9411 37.6974 20.038 38.0586 18.8821ZM47.1497 6.63688V7.03422V7.32319V7.43156H49.931V7.90114H47.1497V20.7605C47.1497 21.0494 47.1497 21.3023 47.1858 21.4829C47.1858 21.6996 47.258 21.9163 47.4025 22.1331C47.5109 22.3498 47.6915 22.5304 47.9443 22.6388C48.2333 22.7471 48.5584 22.7833 48.9919 22.7833V22.9639H42.49V22.7833C43.7542 22.7833 44.3683 22.1331 44.3683 20.7966V7.90114H42.8512V7.43156H44.3683V5.30038C44.3683 3.60266 44.8018 2.3384 45.6687 1.47148C46.5356 0.640683 47.6554 0.207222 49.0641 0.207222C49.7143 0.207222 50.2561 0.243344 50.6896 0.279467V2.08555C50.2561 1.8327 49.7504 1.61597 49.1725 1.39924C48.5945 1.21863 47.9443 1.14639 47.2942 1.14639C46.644 1.18251 46.1744 1.39924 45.8854 1.8327C45.6687 2.12167 45.5964 2.44677 45.7048 2.84411C45.777 3.24144 45.9577 3.56654 46.1744 3.85551C46.3911 4.14449 46.6078 4.57794 46.8246 5.08365C47.0413 5.58935 47.1497 6.13118 47.1497 6.63688ZM54.0085 5.04753C53.5751 5.04753 53.1777 4.90304 52.8526 4.57794C52.5275 4.28897 52.383 3.89163 52.383 3.45817C52.383 3.02471 52.5275 2.62738 52.8526 2.30228C53.1777 1.97719 53.5751 1.79658 54.0085 1.79658C54.442 1.79658 54.8393 1.97719 55.1644 2.26616C55.4534 2.59125 55.634 2.98859 55.634 3.42205C55.634 3.89163 55.4534 4.28897 55.1644 4.57794C54.8393 4.90304 54.442 5.04753 54.0085 5.04753ZM57.2595 22.7833V22.9639H50.7576V22.7833C51.9857 22.7833 52.6359 22.1331 52.6359 20.7966V9.52661H52.0218V9.34601L55.3811 7.43156V20.7605C55.3811 21.0494 55.3811 21.3023 55.4173 21.4829C55.4534 21.6996 55.5256 21.9163 55.634 22.1331C55.7424 22.3498 55.923 22.5304 56.2119 22.6388C56.4648 22.7471 56.826 22.7833 57.2595 22.7833ZM64.751 22.7833V23H58.2491V22.8194C59.4772 22.8194 60.1274 22.1331 60.1274 20.8327V2.3384H59.5134V2.15779L62.8727 0.243344V20.7966C62.8727 21.0856 62.8727 21.3023 62.9088 21.519C62.9449 21.6996 63.0172 21.9163 63.1255 22.1331C63.2339 22.3498 63.4145 22.5304 63.7035 22.6388C63.9563 22.7471 64.3175 22.7833 64.751 22.7833ZM80.706 18.4125L80.8866 18.7376C79.9836 19.8935 78.8999 20.8688 77.5995 21.7357C76.2992 22.5665 74.8543 23 73.3372 23C72.0368 23 70.8448 22.711 69.725 22.2053C68.6053 21.6635 67.6661 20.7966 66.9075 19.6407C66.1129 18.4848 65.7516 17.1122 65.7516 15.5589C65.7516 14.8726 65.8239 14.2224 65.9684 13.5722C66.0406 13.211 66.2573 12.9943 66.6547 12.8859C67.052 12.7414 67.63 12.8498 68.3885 13.1749C69.8695 13.789 71.0254 14.1863 71.8923 14.3669C74.7098 14.9449 76.5159 14.2224 77.2745 12.1274C77.4912 11.6578 77.5634 11.1521 77.4912 10.6464C77.4189 10.1046 77.3106 9.59886 77.0938 9.12928C76.8771 8.6597 76.4437 8.26236 75.8296 7.97338C75.2155 7.68441 74.457 7.53992 73.59 7.53992C72.1813 7.53992 71.0254 8.0095 70.1224 8.94867C69.2193 9.88783 68.6775 11.0798 68.4969 12.5608C67.9189 12.5608 67.5216 12.4525 67.2688 12.2719C67.0159 12.0551 66.9075 11.8384 66.9437 11.5494C66.9437 11.2605 67.052 11.0076 67.2688 10.7186C67.9912 9.63498 68.9303 8.76806 70.0862 8.15399C71.2421 7.53992 72.398 7.21483 73.59 7.14258C74.6737 7.07034 75.649 7.21483 76.5159 7.5038C77.3828 7.79277 78.0691 8.15399 78.5387 8.6597C79.0083 9.1654 79.3695 9.6711 79.6224 10.1768C79.8752 10.6825 80.0197 11.1882 80.0197 11.6217C80.0197 12.308 79.8391 12.9582 79.514 13.5361C79.1528 14.1141 78.6832 14.5114 78.1053 14.8004C77.5273 15.0532 76.841 15.1977 76.0463 15.27C75.2516 15.3061 74.5292 15.27 73.8068 15.1616C73.0843 15.0171 72.3619 14.8726 71.6034 14.6559C70.8087 14.4392 70.1946 14.2224 69.6889 14.0418C69.1832 13.8612 68.7497 13.6806 68.3885 13.5C68.3885 13.5361 68.3524 13.6084 68.3524 13.7167C68.3524 13.789 68.3524 13.8612 68.3524 13.9335C68.3524 16.1369 68.9665 17.9791 70.1946 19.4601C71.4227 20.9049 73.0121 21.6635 75.0349 21.6635C75.6129 21.6635 76.1908 21.5551 76.8049 21.3384C77.3828 21.1217 77.9246 20.8327 78.3581 20.5437C78.7916 20.2186 79.225 19.8935 79.5862 19.6046C79.9475 19.2795 80.2003 18.9905 80.417 18.7376L80.706 18.4125Z" fill="white"/>
</svg>
