<svg width="198" height="53" viewBox="0 0 198 53" fill="none" xmlns="http://www.w3.org/2000/svg">
<path d="M28.5312 4.625L31.9766 10.8203L35.4531 4.625H36.5625L32.4609 11.7109V16H31.5V11.7109L27.3906 4.625H28.5312ZM36.9766 11.9062V11.6484C36.9766 11.0339 37.0651 10.4661 37.2422 9.94531C37.4193 9.42448 37.6719 8.97396 38 8.59375C38.3333 8.21354 38.7318 7.91927 39.1953 7.71094C39.6589 7.4974 40.1745 7.39062 40.7422 7.39062C41.3151 7.39062 41.8333 7.4974 42.2969 7.71094C42.7604 7.91927 43.1589 8.21354 43.4922 8.59375C43.8255 8.97396 44.0807 9.42448 44.2578 9.94531C44.4349 10.4661 44.5234 11.0339 44.5234 11.6484V11.9062C44.5234 12.5208 44.4349 13.0885 44.2578 13.6094C44.0807 14.125 43.8255 14.5729 43.4922 14.9531C43.1641 15.3333 42.7682 15.6302 42.3047 15.8438C41.8411 16.0521 41.3255 16.1562 40.7578 16.1562C40.1849 16.1562 39.6667 16.0521 39.2031 15.8438C38.7396 15.6302 38.3411 15.3333 38.0078 14.9531C37.6745 14.5729 37.4193 14.125 37.2422 13.6094C37.0651 13.0885 36.9766 12.5208 36.9766 11.9062ZM37.9062 11.6484V11.9062C37.9062 12.3698 37.9688 12.8099 38.0938 13.2266C38.2188 13.638 38.401 14.0052 38.6406 14.3281C38.8802 14.6458 39.1771 14.8958 39.5312 15.0781C39.8854 15.2604 40.2943 15.3516 40.7578 15.3516C41.2161 15.3516 41.6198 15.2604 41.9688 15.0781C42.3229 14.8958 42.6198 14.6458 42.8594 14.3281C43.099 14.0052 43.2786 13.638 43.3984 13.2266C43.5234 12.8099 43.5859 12.3698 43.5859 11.9062V11.6484C43.5859 11.1901 43.5234 10.7552 43.3984 10.3438C43.2786 9.93229 43.0964 9.5651 42.8516 9.24219C42.612 8.91927 42.3151 8.66406 41.9609 8.47656C41.6068 8.28906 41.2005 8.19531 40.7422 8.19531C40.2839 8.19531 39.8776 8.28906 39.5234 8.47656C39.1745 8.66406 38.8776 8.91927 38.6328 9.24219C38.3932 9.5651 38.2109 9.93229 38.0859 10.3438C37.9661 10.7552 37.9062 11.1901 37.9062 11.6484ZM51.875 14.0469V7.54688H52.8125V16H51.9141L51.875 14.0469ZM52.0469 12.4844L52.5312 12.4688C52.5312 13 52.4688 13.4896 52.3438 13.9375C52.2188 14.3854 52.0234 14.776 51.7578 15.1094C51.4922 15.4427 51.1484 15.7005 50.7266 15.8828C50.3047 16.0651 49.7969 16.1562 49.2031 16.1562C48.7917 16.1562 48.4141 16.099 48.0703 15.9844C47.7318 15.8646 47.4401 15.6771 47.1953 15.4219C46.9505 15.1667 46.7604 14.8359 46.625 14.4297C46.4948 14.0234 46.4297 13.5312 46.4297 12.9531V7.54688H47.3594V12.9688C47.3594 13.4219 47.4089 13.7995 47.5078 14.1016C47.612 14.4036 47.7526 14.6458 47.9297 14.8281C48.112 15.0104 48.3203 15.1406 48.5547 15.2188C48.7891 15.2969 49.0417 15.3359 49.3125 15.3359C50 15.3359 50.5417 15.2031 50.9375 14.9375C51.3385 14.6719 51.6224 14.3229 51.7891 13.8906C51.9609 13.4531 52.0469 12.9844 52.0469 12.4844ZM56.1875 8.94531V16H55.2578V7.54688H56.1641L56.1875 8.94531ZM59.1797 7.48438L59.1562 8.34375C59.0521 8.32812 58.9505 8.3151 58.8516 8.30469C58.7526 8.29427 58.6458 8.28906 58.5312 8.28906C58.125 8.28906 57.7682 8.36458 57.4609 8.51562C57.1589 8.66146 56.9036 8.86719 56.6953 9.13281C56.487 9.39323 56.3281 9.70052 56.2188 10.0547C56.1094 10.4036 56.0469 10.7786 56.0312 11.1797L55.6875 11.3125C55.6875 10.7604 55.7448 10.2474 55.8594 9.77344C55.974 9.29948 56.1484 8.88542 56.3828 8.53125C56.6224 8.17188 56.9219 7.89323 57.2812 7.69531C57.6458 7.49219 58.0729 7.39062 58.5625 7.39062C58.6823 7.39062 58.7995 7.40104 58.9141 7.42188C59.0339 7.4375 59.1224 7.45833 59.1797 7.48438ZM67.6719 15.3516C68.0677 15.3516 68.4375 15.2786 68.7812 15.1328C69.1302 14.9818 69.4167 14.7604 69.6406 14.4688C69.8698 14.1719 70 13.8099 70.0312 13.3828H70.9219C70.8958 13.9193 70.7318 14.3984 70.4297 14.8203C70.1328 15.237 69.7422 15.5651 69.2578 15.8047C68.7786 16.0391 68.25 16.1562 67.6719 16.1562C67.0833 16.1562 66.5625 16.0495 66.1094 15.8359C65.6615 15.6224 65.2865 15.3255 64.9844 14.9453C64.6823 14.5599 64.4531 14.112 64.2969 13.6016C64.1458 13.0859 64.0703 12.5312 64.0703 11.9375V11.6094C64.0703 11.0156 64.1458 10.4635 64.2969 9.95312C64.4531 9.4375 64.6823 8.98958 64.9844 8.60938C65.2865 8.22396 65.6615 7.92448 66.1094 7.71094C66.5573 7.4974 67.0755 7.39062 67.6641 7.39062C68.2682 7.39062 68.8099 7.51302 69.2891 7.75781C69.7734 8.0026 70.1589 8.34896 70.4453 8.79688C70.737 9.24479 70.8958 9.77604 70.9219 10.3906H70.0312C70.0052 9.9375 69.8854 9.54688 69.6719 9.21875C69.4583 8.89062 69.1771 8.63802 68.8281 8.46094C68.4792 8.28385 68.0911 8.19531 67.6641 8.19531C67.1849 8.19531 66.776 8.28906 66.4375 8.47656C66.099 8.65885 65.8229 8.91146 65.6094 9.23438C65.401 9.55208 65.2474 9.91667 65.1484 10.3281C65.0495 10.7344 65 11.1615 65 11.6094V11.9375C65 12.3906 65.0469 12.8229 65.1406 13.2344C65.2396 13.6406 65.3932 14.0026 65.6016 14.3203C65.8151 14.638 66.0911 14.8906 66.4297 15.0781C66.7734 15.2604 67.1875 15.3516 67.6719 15.3516ZM77.9453 14.4844V10.125C77.9453 9.72396 77.862 9.3776 77.6953 9.08594C77.5286 8.79427 77.2839 8.57031 76.9609 8.41406C76.638 8.25781 76.2396 8.17969 75.7656 8.17969C75.3281 8.17969 74.9375 8.25781 74.5938 8.41406C74.2552 8.5651 73.987 8.77083 73.7891 9.03125C73.5964 9.28646 73.5 9.57031 73.5 9.88281L72.5625 9.875C72.5625 9.55729 72.6406 9.25 72.7969 8.95312C72.9531 8.65625 73.1745 8.39062 73.4609 8.15625C73.7474 7.92188 74.0885 7.73698 74.4844 7.60156C74.8854 7.46094 75.3255 7.39062 75.8047 7.39062C76.4089 7.39062 76.9401 7.49219 77.3984 7.69531C77.862 7.89844 78.224 8.20312 78.4844 8.60938C78.7448 9.01562 78.875 9.52604 78.875 10.1406V14.2266C78.875 14.5182 78.8958 14.8203 78.9375 15.1328C78.9844 15.4453 79.0495 15.7031 79.1328 15.9062V16H78.1406C78.0781 15.8125 78.0286 15.5781 77.9922 15.2969C77.9609 15.0104 77.9453 14.7396 77.9453 14.4844ZM78.1641 11.0781L78.1797 11.7969H76.3438C75.8646 11.7969 75.4349 11.8411 75.0547 11.9297C74.6797 12.013 74.362 12.138 74.1016 12.3047C73.8411 12.4661 73.6406 12.6615 73.5 12.8906C73.3646 13.1198 73.2969 13.3802 73.2969 13.6719C73.2969 13.974 73.3724 14.25 73.5234 14.5C73.6797 14.75 73.8984 14.9505 74.1797 15.1016C74.4661 15.2474 74.8047 15.3203 75.1953 15.3203C75.7161 15.3203 76.1745 15.224 76.5703 15.0312C76.9714 14.8385 77.3021 14.5859 77.5625 14.2734C77.8229 13.9609 77.9974 13.6198 78.0859 13.25L78.4922 13.7891C78.4245 14.0495 78.2995 14.3177 78.1172 14.5938C77.9401 14.8646 77.7083 15.1198 77.4219 15.3594C77.1354 15.5938 76.7969 15.7865 76.4062 15.9375C76.0208 16.0833 75.5833 16.1562 75.0938 16.1562C74.5417 16.1562 74.0599 16.0521 73.6484 15.8438C73.2422 15.6354 72.9245 15.3516 72.6953 14.9922C72.4714 14.6276 72.3594 14.2161 72.3594 13.7578C72.3594 13.3411 72.4479 12.9688 72.625 12.6406C72.8021 12.3073 73.0573 12.026 73.3906 11.7969C73.7292 11.5625 74.1354 11.3854 74.6094 11.2656C75.0885 11.1406 75.625 11.0781 76.2188 11.0781H78.1641ZM82.3125 8.94531V16H81.3828V7.54688H82.2891L82.3125 8.94531ZM85.3047 7.48438L85.2812 8.34375C85.1771 8.32812 85.0755 8.3151 84.9766 8.30469C84.8776 8.29427 84.7708 8.28906 84.6562 8.28906C84.25 8.28906 83.8932 8.36458 83.5859 8.51562C83.2839 8.66146 83.0286 8.86719 82.8203 9.13281C82.612 9.39323 82.4531 9.70052 82.3438 10.0547C82.2344 10.4036 82.1719 10.7786 82.1562 11.1797L81.8125 11.3125C81.8125 10.7604 81.8698 10.2474 81.9844 9.77344C82.099 9.29948 82.2734 8.88542 82.5078 8.53125C82.7474 8.17188 83.0469 7.89323 83.4062 7.69531C83.7708 7.49219 84.1979 7.39062 84.6875 7.39062C84.8073 7.39062 84.9245 7.40104 85.0391 7.42188C85.1589 7.4375 85.2474 7.45833 85.3047 7.48438ZM92.1094 14.3594V4H93.0469V16H92.1719L92.1094 14.3594ZM86.2422 11.8594V11.6953C86.2422 11.0391 86.3177 10.4479 86.4688 9.92188C86.6198 9.39062 86.8359 8.9375 87.1172 8.5625C87.4036 8.18229 87.7474 7.89323 88.1484 7.69531C88.5495 7.49219 89.0026 7.39062 89.5078 7.39062C90.0026 7.39062 90.4401 7.47135 90.8203 7.63281C91.2005 7.79427 91.526 8.02604 91.7969 8.32812C92.0729 8.63021 92.2943 8.98958 92.4609 9.40625C92.6328 9.82292 92.7578 10.2865 92.8359 10.7969V12.8828C92.7734 13.362 92.6589 13.8021 92.4922 14.2031C92.3255 14.599 92.1042 14.9453 91.8281 15.2422C91.5521 15.5339 91.2188 15.7604 90.8281 15.9219C90.4427 16.0781 89.9974 16.1562 89.4922 16.1562C88.9922 16.1562 88.5417 16.0521 88.1406 15.8438C87.7396 15.6354 87.3984 15.3411 87.1172 14.9609C86.8359 14.5755 86.6198 14.1198 86.4688 13.5938C86.3177 13.0677 86.2422 12.4896 86.2422 11.8594ZM87.1797 11.6953V11.8594C87.1797 12.3542 87.2292 12.8125 87.3281 13.2344C87.4271 13.6562 87.5781 14.0234 87.7812 14.3359C87.9844 14.6484 88.2422 14.8932 88.5547 15.0703C88.8672 15.2474 89.237 15.3359 89.6641 15.3359C90.2005 15.3359 90.651 15.2344 91.0156 15.0312C91.3802 14.8229 91.6719 14.5495 91.8906 14.2109C92.1094 13.8672 92.2682 13.4922 92.3672 13.0859V10.6562C92.3047 10.3802 92.2135 10.099 92.0938 9.8125C91.974 9.52604 91.8099 9.26302 91.6016 9.02344C91.3984 8.77865 91.138 8.58333 90.8203 8.4375C90.5078 8.28646 90.1276 8.21094 89.6797 8.21094C89.2474 8.21094 88.875 8.29948 88.5625 8.47656C88.25 8.65365 87.9896 8.90104 87.7812 9.21875C87.5781 9.53125 87.4271 9.89844 87.3281 10.3203C87.2292 10.7422 87.1797 11.2005 87.1797 11.6953ZM100.344 4V16H99.4141V4H100.344ZM100.133 11.25L99.7188 11.0156C99.75 10.5156 99.8516 10.0469 100.023 9.60938C100.195 9.17188 100.427 8.78646 100.719 8.45312C101.016 8.11979 101.362 7.85938 101.758 7.67188C102.159 7.48438 102.602 7.39062 103.086 7.39062C103.508 7.39062 103.885 7.44792 104.219 7.5625C104.552 7.67708 104.836 7.85938 105.07 8.10938C105.305 8.35938 105.482 8.67969 105.602 9.07031C105.727 9.46094 105.789 9.9375 105.789 10.5V16H104.852V10.4922C104.852 9.90885 104.771 9.45312 104.609 9.125C104.448 8.79167 104.219 8.55469 103.922 8.41406C103.625 8.27344 103.273 8.20312 102.867 8.20312C102.419 8.20312 102.026 8.30208 101.688 8.5C101.354 8.69271 101.073 8.94531 100.844 9.25781C100.62 9.5651 100.448 9.89583 100.328 10.25C100.208 10.599 100.143 10.9323 100.133 11.25ZM113.336 14.4844V10.125C113.336 9.72396 113.253 9.3776 113.086 9.08594C112.919 8.79427 112.674 8.57031 112.352 8.41406C112.029 8.25781 111.63 8.17969 111.156 8.17969C110.719 8.17969 110.328 8.25781 109.984 8.41406C109.646 8.5651 109.378 8.77083 109.18 9.03125C108.987 9.28646 108.891 9.57031 108.891 9.88281L107.953 9.875C107.953 9.55729 108.031 9.25 108.188 8.95312C108.344 8.65625 108.565 8.39062 108.852 8.15625C109.138 7.92188 109.479 7.73698 109.875 7.60156C110.276 7.46094 110.716 7.39062 111.195 7.39062C111.799 7.39062 112.331 7.49219 112.789 7.69531C113.253 7.89844 113.615 8.20312 113.875 8.60938C114.135 9.01562 114.266 9.52604 114.266 10.1406V14.2266C114.266 14.5182 114.286 14.8203 114.328 15.1328C114.375 15.4453 114.44 15.7031 114.523 15.9062V16H113.531C113.469 15.8125 113.419 15.5781 113.383 15.2969C113.352 15.0104 113.336 14.7396 113.336 14.4844ZM113.555 11.0781L113.57 11.7969H111.734C111.255 11.7969 110.826 11.8411 110.445 11.9297C110.07 12.013 109.753 12.138 109.492 12.3047C109.232 12.4661 109.031 12.6615 108.891 12.8906C108.755 13.1198 108.688 13.3802 108.688 13.6719C108.688 13.974 108.763 14.25 108.914 14.5C109.07 14.75 109.289 14.9505 109.57 15.1016C109.857 15.2474 110.195 15.3203 110.586 15.3203C111.107 15.3203 111.565 15.224 111.961 15.0312C112.362 14.8385 112.693 14.5859 112.953 14.2734C113.214 13.9609 113.388 13.6198 113.477 13.25L113.883 13.7891C113.815 14.0495 113.69 14.3177 113.508 14.5938C113.331 14.8646 113.099 15.1198 112.812 15.3594C112.526 15.5938 112.188 15.7865 111.797 15.9375C111.411 16.0833 110.974 16.1562 110.484 16.1562C109.932 16.1562 109.451 16.0521 109.039 15.8438C108.633 15.6354 108.315 15.3516 108.086 14.9922C107.862 14.6276 107.75 14.2161 107.75 13.7578C107.75 13.3411 107.839 12.9688 108.016 12.6406C108.193 12.3073 108.448 12.026 108.781 11.7969C109.12 11.5625 109.526 11.3854 110 11.2656C110.479 11.1406 111.016 11.0781 111.609 11.0781H113.555ZM121.836 13.8438C121.836 13.6146 121.779 13.388 121.664 13.1641C121.549 12.9401 121.328 12.7344 121 12.5469C120.677 12.3594 120.201 12.2005 119.57 12.0703C119.102 11.9661 118.682 11.849 118.312 11.7188C117.948 11.5885 117.641 11.4323 117.391 11.25C117.141 11.0677 116.951 10.849 116.82 10.5938C116.69 10.3385 116.625 10.0365 116.625 9.6875C116.625 9.375 116.693 9.08073 116.828 8.80469C116.969 8.52344 117.167 8.27865 117.422 8.07031C117.682 7.85677 117.995 7.6901 118.359 7.57031C118.729 7.45052 119.143 7.39062 119.602 7.39062C120.253 7.39062 120.81 7.5026 121.273 7.72656C121.742 7.94531 122.099 8.24479 122.344 8.625C122.594 9.00521 122.719 9.4349 122.719 9.91406H121.789C121.789 9.6224 121.703 9.34635 121.531 9.08594C121.365 8.82552 121.117 8.61198 120.789 8.44531C120.466 8.27865 120.07 8.19531 119.602 8.19531C119.117 8.19531 118.724 8.26823 118.422 8.41406C118.12 8.5599 117.898 8.74479 117.758 8.96875C117.622 9.19271 117.555 9.42448 117.555 9.66406C117.555 9.85156 117.583 10.0234 117.641 10.1797C117.703 10.3307 117.812 10.4714 117.969 10.6016C118.13 10.7318 118.359 10.8542 118.656 10.9688C118.953 11.0833 119.339 11.1953 119.812 11.3047C120.495 11.4557 121.052 11.6406 121.484 11.8594C121.922 12.0729 122.245 12.3385 122.453 12.6562C122.661 12.9688 122.766 13.349 122.766 13.7969C122.766 14.1458 122.693 14.4661 122.547 14.7578C122.401 15.0443 122.19 15.2917 121.914 15.5C121.643 15.7083 121.315 15.8698 120.93 15.9844C120.549 16.099 120.122 16.1562 119.648 16.1562C118.935 16.1562 118.331 16.0391 117.836 15.8047C117.346 15.5651 116.974 15.2526 116.719 14.8672C116.469 14.4766 116.344 14.0625 116.344 13.625H117.273C117.305 14.0625 117.443 14.4089 117.688 14.6641C117.932 14.9141 118.232 15.0911 118.586 15.1953C118.945 15.2995 119.299 15.3516 119.648 15.3516C120.128 15.3516 120.529 15.2812 120.852 15.1406C121.174 15 121.419 14.8151 121.586 14.5859C121.753 14.3568 121.836 14.1094 121.836 13.8438ZM128.773 4H129.711V14.3594L129.648 16H128.773V4ZM135.594 11.6953V11.8594C135.594 12.4896 135.521 13.0677 135.375 13.5938C135.229 14.1198 135.018 14.5755 134.742 14.9609C134.466 15.3411 134.128 15.6354 133.727 15.8438C133.331 16.0521 132.875 16.1562 132.359 16.1562C131.854 16.1562 131.406 16.0781 131.016 15.9219C130.625 15.7604 130.292 15.5339 130.016 15.2422C129.74 14.9453 129.518 14.599 129.352 14.2031C129.185 13.8021 129.068 13.362 129 12.8828V10.7969C129.078 10.2865 129.203 9.82292 129.375 9.40625C129.547 8.98958 129.768 8.63021 130.039 8.32812C130.315 8.02604 130.643 7.79427 131.023 7.63281C131.409 7.47135 131.849 7.39062 132.344 7.39062C132.859 7.39062 133.318 7.49219 133.719 7.69531C134.125 7.89323 134.466 8.18229 134.742 8.5625C135.018 8.9375 135.229 9.39062 135.375 9.92188C135.521 10.4479 135.594 11.0391 135.594 11.6953ZM134.648 11.8594V11.6953C134.648 11.2005 134.602 10.7422 134.508 10.3203C134.414 9.89844 134.266 9.53125 134.062 9.21875C133.865 8.90104 133.609 8.65365 133.297 8.47656C132.984 8.29948 132.609 8.21094 132.172 8.21094C131.724 8.21094 131.341 8.28646 131.023 8.4375C130.711 8.58333 130.451 8.77865 130.242 9.02344C130.039 9.26302 129.878 9.52604 129.758 9.8125C129.638 10.099 129.549 10.3802 129.492 10.6562V13.0859C129.581 13.4766 129.734 13.8438 129.953 14.1875C130.172 14.5312 130.466 14.8099 130.836 15.0234C131.206 15.2318 131.656 15.3359 132.188 15.3359C132.615 15.3359 132.982 15.2474 133.289 15.0703C133.602 14.8932 133.857 14.6484 134.055 14.3359C134.258 14.0234 134.406 13.6562 134.5 13.2344C134.599 12.8125 134.648 12.3542 134.648 11.8594ZM140.93 16.1562C140.378 16.1562 139.87 16.0547 139.406 15.8516C138.948 15.6484 138.547 15.362 138.203 14.9922C137.865 14.6224 137.602 14.1849 137.414 13.6797C137.232 13.1693 137.141 12.612 137.141 12.0078V11.6719C137.141 11.0208 137.237 10.4323 137.43 9.90625C137.622 9.38021 137.888 8.92969 138.227 8.55469C138.565 8.17969 138.951 7.89323 139.383 7.69531C139.82 7.49219 140.279 7.39062 140.758 7.39062C141.294 7.39062 141.771 7.48698 142.188 7.67969C142.604 7.86719 142.953 8.13542 143.234 8.48438C143.521 8.82812 143.737 9.23698 143.883 9.71094C144.029 10.1797 144.102 10.6979 144.102 11.2656V11.8359H137.703V11.0391H143.172V10.9297C143.161 10.4557 143.065 10.013 142.883 9.60156C142.706 9.1849 142.44 8.84635 142.086 8.58594C141.732 8.32552 141.289 8.19531 140.758 8.19531C140.362 8.19531 139.997 8.27865 139.664 8.44531C139.336 8.61198 139.052 8.85156 138.812 9.16406C138.578 9.47135 138.396 9.83854 138.266 10.2656C138.141 10.6875 138.078 11.1562 138.078 11.6719V12.0078C138.078 12.4766 138.146 12.9141 138.281 13.3203C138.422 13.7214 138.62 14.0755 138.875 14.3828C139.135 14.6901 139.443 14.9297 139.797 15.1016C140.151 15.2734 140.542 15.3594 140.969 15.3594C141.469 15.3594 141.911 15.2682 142.297 15.0859C142.682 14.8984 143.029 14.6042 143.336 14.2031L143.922 14.6562C143.74 14.9271 143.51 15.1771 143.234 15.4062C142.964 15.6354 142.638 15.8177 142.258 15.9531C141.878 16.0885 141.435 16.1562 140.93 16.1562ZM149.211 16.1562C148.659 16.1562 148.151 16.0547 147.688 15.8516C147.229 15.6484 146.828 15.362 146.484 14.9922C146.146 14.6224 145.883 14.1849 145.695 13.6797C145.513 13.1693 145.422 12.612 145.422 12.0078V11.6719C145.422 11.0208 145.518 10.4323 145.711 9.90625C145.904 9.38021 146.169 8.92969 146.508 8.55469C146.846 8.17969 147.232 7.89323 147.664 7.69531C148.102 7.49219 148.56 7.39062 149.039 7.39062C149.576 7.39062 150.052 7.48698 150.469 7.67969C150.885 7.86719 151.234 8.13542 151.516 8.48438C151.802 8.82812 152.018 9.23698 152.164 9.71094C152.31 10.1797 152.383 10.6979 152.383 11.2656V11.8359H145.984V11.0391H151.453V10.9297C151.443 10.4557 151.346 10.013 151.164 9.60156C150.987 9.1849 150.721 8.84635 150.367 8.58594C150.013 8.32552 149.57 8.19531 149.039 8.19531C148.643 8.19531 148.279 8.27865 147.945 8.44531C147.617 8.61198 147.333 8.85156 147.094 9.16406C146.859 9.47135 146.677 9.83854 146.547 10.2656C146.422 10.6875 146.359 11.1562 146.359 11.6719V12.0078C146.359 12.4766 146.427 12.9141 146.562 13.3203C146.703 13.7214 146.901 14.0755 147.156 14.3828C147.417 14.6901 147.724 14.9297 148.078 15.1016C148.432 15.2734 148.823 15.3594 149.25 15.3594C149.75 15.3594 150.193 15.2682 150.578 15.0859C150.964 14.8984 151.31 14.6042 151.617 14.2031L152.203 14.6562C152.021 14.9271 151.792 15.1771 151.516 15.4062C151.245 15.6354 150.919 15.8177 150.539 15.9531C150.159 16.0885 149.716 16.1562 149.211 16.1562ZM155.156 9.35156V16H154.227V7.54688H155.117L155.156 9.35156ZM154.945 11.25L154.531 11.0156C154.562 10.5156 154.664 10.0469 154.836 9.60938C155.008 9.17188 155.24 8.78646 155.531 8.45312C155.828 8.11979 156.174 7.85938 156.57 7.67188C156.971 7.48438 157.414 7.39062 157.898 7.39062C158.32 7.39062 158.698 7.44792 159.031 7.5625C159.365 7.67708 159.648 7.85938 159.883 8.10938C160.117 8.35938 160.294 8.67969 160.414 9.07031C160.539 9.46094 160.602 9.9375 160.602 10.5V16H159.664V10.4922C159.664 9.90885 159.583 9.45312 159.422 9.125C159.26 8.79167 159.031 8.55469 158.734 8.41406C158.438 8.27344 158.086 8.20312 157.68 8.20312C157.232 8.20312 156.839 8.30208 156.5 8.5C156.167 8.69271 155.885 8.94531 155.656 9.25781C155.432 9.5651 155.26 9.89583 155.141 10.25C155.021 10.599 154.956 10.9323 154.945 11.25Z" fill="white"/>
<path d="M13.59 33.24C13.7233 33.4533 13.47 33.7333 12.83 34.08C12.19 34.4 11.03 34.8533 9.35 35.44C9.05667 35.52 8.72333 35.64 8.35 35.8C8.00333 35.9333 7.71 36.0533 7.47 36.16L6.59 36.52L6.83 36.8C6.88333 36.8533 6.93667 36.92 6.99 37C7.07 37.1067 7.12333 37.1867 7.15 37.24C7.36333 37.64 7.27 38.0267 6.87 38.4C6.49667 38.8 5.88333 39.1067 5.03 39.32C4.60333 39.4533 4.32333 39.52 4.19 39.52C4.08333 39.52 3.89667 39.4667 3.63 39.36C3.41667 39.3067 3.21667 39.1733 3.03 38.96C2.84333 38.7733 2.75 38.6133 2.75 38.48C2.75 38.2667 2.96333 37.9467 3.39 37.52C3.81667 37.12 4.29667 36.7733 4.83 36.48L5.19 36.28L4.51 35.84C3.68333 35.3067 3.23 34.8267 3.15 34.4C3.09667 33.9467 3.40333 33.4 4.07 32.76C4.60333 32.2267 5.04333 31.8533 5.39 31.64C5.73667 31.4 6.05667 31.28 6.35 31.28C6.64333 31.28 6.87 31.36 7.03 31.52C7.19 31.7067 7.25667 31.8933 7.23 32.08C7.17667 32.24 7.12333 32.3333 7.07 32.36C7.01667 32.3867 6.89667 32.3467 6.71 32.24C6.57667 32.16 6.45667 32.1333 6.35 32.16C6.27 32.1867 6.04333 32.3467 5.67 32.64C4.81667 33.28 4.31 33.8533 4.15 34.36C4.07 34.5733 4.08333 34.76 4.19 34.92C4.32333 35.0533 4.61667 35.2533 5.07 35.52L5.79 35.96L6.63 35.56C6.87 35.4533 7.19 35.3333 7.59 35.2C8.01667 35.04 8.40333 34.8933 8.75 34.76C9.12333 34.6267 9.45667 34.52 9.75 34.44C10.07 34.3333 10.27 34.2533 10.35 34.2C10.4567 34.1467 10.6033 34.0933 10.79 34.04C11.0033 33.96 11.2167 33.88 11.43 33.8C11.6433 33.72 11.8567 33.6267 12.07 33.52C12.31 33.3867 12.4967 33.28 12.63 33.2C12.79 33.0667 12.91 32.9867 12.99 32.96C13.07 32.9333 13.1633 32.9467 13.27 33C13.43 33.0533 13.5367 33.1333 13.59 33.24ZM4.55 38.6C5.16333 38.4133 5.63 38.1733 5.95 37.88C6.29667 37.6133 6.41667 37.36 6.31 37.12C6.20333 36.96 6.11 36.88 6.03 36.88C5.95 36.88 5.79 36.9467 5.55 37.08C5.33667 37.24 5.11 37.4133 4.87 37.6C4.63 37.7867 4.40333 37.9733 4.19 38.16C3.97667 38.3467 3.84333 38.4933 3.79 38.6C3.73667 38.7067 3.75 38.76 3.83 38.76C3.91 38.76 4.15 38.7067 4.55 38.6ZM23.5372 32.96C23.6705 33.0133 23.7905 33.0933 23.8972 33.2C24.0039 33.28 24.0572 33.3467 24.0572 33.4C24.0572 33.4533 23.8705 33.6267 23.4972 33.92C23.1505 34.1867 22.7372 34.5067 22.2572 34.88C21.5372 35.4133 20.8439 35.8533 20.1772 36.2C19.5105 36.52 18.9905 36.7067 18.6172 36.76C17.6572 36.84 17.2172 36.3867 17.2972 35.4C17.3239 35.2667 17.3505 35.1467 17.3772 35.04C17.4039 34.9067 17.4172 34.8133 17.4172 34.76C17.4439 34.68 17.2572 34.9067 16.8572 35.44C16.2439 36.1867 15.6439 36.8 15.0572 37.28C14.4705 37.7867 13.9772 38.0667 13.5772 38.12C13.3639 38.1733 13.1639 38.1733 12.9772 38.12C12.2572 37.96 11.8172 37.4267 11.6572 36.52C11.6305 36.28 11.6572 35.9733 11.7372 35.6C11.8172 35.2 11.9372 34.7733 12.0972 34.32C12.2839 33.8667 12.4972 33.4 12.7372 32.92C13.0039 32.4133 13.2839 31.92 13.5772 31.44C13.7905 31.1467 13.9372 30.9867 14.0172 30.96C14.1239 30.9067 14.2839 30.92 14.4972 31C14.7639 31.1067 14.9239 31.28 14.9772 31.52C15.0572 31.76 14.9772 31.88 14.7372 31.88C14.6039 31.88 14.4439 32.04 14.2572 32.36C14.0705 32.6533 13.8039 33.1467 13.4572 33.84C12.6839 35.4133 12.4172 36.5333 12.6572 37.2C12.7639 37.4933 13.0705 37.4933 13.5772 37.2C14.0839 36.9333 14.6305 36.4667 15.2172 35.8C15.8305 35.1333 16.5905 34.12 17.4972 32.76C17.7639 32.36 17.9772 32.0533 18.1372 31.84C18.3239 31.6 18.4705 31.44 18.5772 31.36C18.7105 31.2533 18.8172 31.2133 18.8972 31.24C18.9772 31.2667 19.0839 31.32 19.2172 31.4C19.3772 31.5067 19.4439 31.6533 19.4172 31.84C19.3905 32.0267 19.2705 32.4 19.0572 32.96C18.8172 33.5467 18.6172 34.12 18.4572 34.68C18.2972 35.2133 18.2172 35.5867 18.2172 35.8C18.2172 35.96 18.2305 36.0533 18.2572 36.08C18.2839 36.1067 18.3639 36.0933 18.4972 36.04C18.6839 35.9867 18.9505 35.8667 19.2972 35.68C19.6705 35.4667 20.0705 35.2267 20.4972 34.96C20.9239 34.6933 21.3372 34.4133 21.7372 34.12C22.1639 33.8267 22.5239 33.56 22.8172 33.32C23.1372 33.0533 23.3772 32.9333 23.5372 32.96ZM34.2469 33.16C34.4335 33.2667 34.5269 33.3733 34.5269 33.48C34.5269 33.5067 34.3802 33.5867 34.0869 33.72C33.8202 33.8267 33.4602 33.96 33.0069 34.12C32.5802 34.2533 32.0602 34.44 31.4469 34.68C30.8335 34.92 30.3002 35.1333 29.8469 35.32C28.7269 35.7733 27.7402 36.1733 26.8869 36.52C26.0335 36.84 25.4202 37.0667 25.0469 37.2C24.7269 37.3333 24.3002 37.4133 23.7669 37.44C23.2602 37.4933 22.9135 37.4933 22.7269 37.44C21.8735 37.1467 21.4469 36.64 21.4469 35.92C21.4469 35.52 21.5669 35.1067 21.8069 34.68C22.0735 34.2533 22.4069 33.84 22.8069 33.44C23.2335 33.04 23.7269 32.6667 24.2869 32.32C24.8469 31.9733 25.4469 31.6933 26.0869 31.48C27.1002 31.1333 27.9535 31.3067 28.6469 32C28.9402 32.3467 29.0602 32.64 29.0069 32.88C28.9535 33.0933 28.7535 33.0667 28.4069 32.8C28.2735 32.72 28.1802 32.5867 28.1269 32.4C28.0735 32.1333 27.8469 32.0133 27.4469 32.04C27.0469 32.0667 26.5402 32.2267 25.9269 32.52C24.9935 32.9733 24.1802 33.5467 23.4869 34.24C22.8202 34.9067 22.4469 35.5467 22.3669 36.16C22.3135 36.4533 22.3402 36.64 22.4469 36.72C22.5535 36.7733 22.7935 36.8 23.1669 36.8C23.3535 36.8 23.5535 36.7733 23.7669 36.72C23.9802 36.6667 24.2469 36.6 24.5669 36.52C24.8869 36.4133 25.2869 36.2667 25.7669 36.08C26.2469 35.8933 26.8469 35.6533 27.5669 35.36C28.2602 35.0933 28.8602 34.8667 29.3669 34.68C29.9002 34.4667 30.3669 34.28 30.7669 34.12C31.1935 33.96 31.5669 33.8267 31.8869 33.72C32.2335 33.5867 32.5802 33.4533 32.9269 33.32L34.0069 32.96L34.2469 33.16ZM44.7156 33.16C44.9023 33.2667 44.9956 33.3733 44.9956 33.48C44.9956 33.5067 44.849 33.5867 44.5556 33.72C44.289 33.8267 43.929 33.96 43.4756 34.12C43.049 34.2533 42.529 34.44 41.9156 34.68C41.3023 34.92 40.769 35.1333 40.3156 35.32C39.1956 35.7733 38.209 36.1733 37.3556 36.52C36.5023 36.84 35.889 37.0667 35.5156 37.2C35.1956 37.3333 34.769 37.4133 34.2356 37.44C33.729 37.4933 33.3823 37.4933 33.1956 37.44C32.3423 37.1467 31.9156 36.64 31.9156 35.92C31.9156 35.52 32.0356 35.1067 32.2756 34.68C32.5423 34.2533 32.8756 33.84 33.2756 33.44C33.7023 33.04 34.1956 32.6667 34.7556 32.32C35.3156 31.9733 35.9156 31.6933 36.5556 31.48C37.569 31.1333 38.4223 31.3067 39.1156 32C39.409 32.3467 39.529 32.64 39.4756 32.88C39.4223 33.0933 39.2223 33.0667 38.8756 32.8C38.7423 32.72 38.649 32.5867 38.5956 32.4C38.5423 32.1333 38.3156 32.0133 37.9156 32.04C37.5156 32.0667 37.009 32.2267 36.3956 32.52C35.4623 32.9733 34.649 33.5467 33.9556 34.24C33.289 34.9067 32.9156 35.5467 32.8356 36.16C32.7823 36.4533 32.809 36.64 32.9156 36.72C33.0223 36.7733 33.2623 36.8 33.6356 36.8C33.8223 36.8 34.0223 36.7733 34.2356 36.72C34.449 36.6667 34.7156 36.6 35.0356 36.52C35.3556 36.4133 35.7556 36.2667 36.2356 36.08C36.7156 35.8933 37.3156 35.6533 38.0356 35.36C38.729 35.0933 39.329 34.8667 39.8356 34.68C40.369 34.4667 40.8356 34.28 41.2356 34.12C41.6623 33.96 42.0356 33.8267 42.3556 33.72C42.7023 33.5867 43.049 33.4533 43.3956 33.32L44.4756 32.96L44.7156 33.16ZM55.6244 32.96C55.731 33.0133 55.8377 33.0933 55.9444 33.2C56.051 33.28 56.1044 33.3467 56.1044 33.4C56.1044 33.4267 56.0644 33.4667 55.9844 33.52C55.9044 33.5733 55.731 33.6667 55.4644 33.8C55.2244 33.9333 54.8644 34.12 54.3844 34.36C53.9044 34.6 53.2777 34.9067 52.5044 35.28C51.491 35.76 50.5844 36.1733 49.7844 36.52C49.011 36.84 48.3044 37.0933 47.6644 37.28C47.0244 37.4933 46.451 37.64 45.9444 37.72C45.4377 37.8267 44.9444 37.88 44.4644 37.88C44.2244 37.88 43.9844 37.8667 43.7444 37.84C43.531 37.8133 43.3577 37.7867 43.2244 37.76C42.771 37.6 42.411 37.3467 42.1444 37C41.8777 36.6267 41.771 36.24 41.8244 35.84C41.8777 35.52 42.011 35.16 42.2244 34.76C42.4644 34.36 42.7577 33.96 43.1044 33.56C43.451 33.16 43.8377 32.7733 44.2644 32.4C44.7177 32 45.1977 31.64 45.7044 31.32C46.3977 30.92 47.1444 30.5867 47.9444 30.32C48.7444 30.0267 49.411 29.88 49.9444 29.88C50.4777 29.88 50.9577 30.0133 51.3844 30.28C51.8377 30.52 52.0644 30.8 52.0644 31.12C52.0644 31.3333 51.9044 31.6267 51.5844 32C51.2644 32.3733 50.891 32.6933 50.4644 32.96C50.1977 33.12 49.8644 33.2667 49.4644 33.4C49.0644 33.5067 48.6377 33.6 48.1844 33.68C47.731 33.7333 47.2644 33.76 46.7844 33.76C46.3044 33.7333 45.8377 33.68 45.3844 33.6L44.4644 33.44L44.1844 33.8C43.571 34.4933 43.1444 35.1333 42.9044 35.72C42.691 36.3067 42.7044 36.7067 42.9444 36.92C43.131 37.1333 43.5577 37.2267 44.2244 37.2C44.891 37.1733 45.651 37.04 46.5044 36.8C47.3577 36.5333 48.2777 36.2 49.2644 35.8C50.2777 35.3733 51.5977 34.7733 53.2244 34C53.9177 33.6533 54.4777 33.3867 54.9044 33.2C55.331 33.0133 55.571 32.9333 55.6244 32.96ZM45.0644 32.96L45.4244 33C45.7977 33.0533 46.251 33.08 46.7844 33.08C47.3444 33.0533 47.7977 33 48.1444 32.92C49.051 32.7333 49.8244 32.36 50.4644 31.8C50.731 31.56 50.931 31.3333 51.0644 31.12C51.1977 30.88 51.211 30.7333 51.1044 30.68C50.9977 30.6267 50.7977 30.6 50.5044 30.6C50.211 30.6 49.9044 30.6267 49.5844 30.68C48.1977 30.9733 46.891 31.5733 45.6644 32.48L45.0644 32.96ZM64.9572 33.24C65.0905 33.4533 64.8372 33.7333 64.1972 34.08C63.5572 34.4 62.3972 34.8533 60.7172 35.44C60.4239 35.52 60.0905 35.64 59.7172 35.8C59.3705 35.9333 59.0772 36.0533 58.8372 36.16L57.9572 36.52L58.1972 36.8C58.2505 36.8533 58.3039 36.92 58.3572 37C58.4372 37.1067 58.4905 37.1867 58.5172 37.24C58.7305 37.64 58.6372 38.0267 58.2372 38.4C57.8639 38.8 57.2505 39.1067 56.3972 39.32C55.9705 39.4533 55.6905 39.52 55.5572 39.52C55.4505 39.52 55.2639 39.4667 54.9972 39.36C54.7839 39.3067 54.5839 39.1733 54.3972 38.96C54.2105 38.7733 54.1172 38.6133 54.1172 38.48C54.1172 38.2667 54.3305 37.9467 54.7572 37.52C55.1839 37.12 55.6639 36.7733 56.1972 36.48L56.5572 36.28L55.8772 35.84C55.0505 35.3067 54.5972 34.8267 54.5172 34.4C54.4639 33.9467 54.7705 33.4 55.4372 32.76C55.9705 32.2267 56.4105 31.8533 56.7572 31.64C57.1039 31.4 57.4239 31.28 57.7172 31.28C58.0105 31.28 58.2372 31.36 58.3972 31.52C58.5572 31.7067 58.6239 31.8933 58.5972 32.08C58.5439 32.24 58.4905 32.3333 58.4372 32.36C58.3839 32.3867 58.2639 32.3467 58.0772 32.24C57.9439 32.16 57.8239 32.1333 57.7172 32.16C57.6372 32.1867 57.4105 32.3467 57.0372 32.64C56.1839 33.28 55.6772 33.8533 55.5172 34.36C55.4372 34.5733 55.4505 34.76 55.5572 34.92C55.6905 35.0533 55.9839 35.2533 56.4372 35.52L57.1572 35.96L57.9972 35.56C58.2372 35.4533 58.5572 35.3333 58.9572 35.2C59.3839 35.04 59.7705 34.8933 60.1172 34.76C60.4905 34.6267 60.8239 34.52 61.1172 34.44C61.4372 34.3333 61.6372 34.2533 61.7172 34.2C61.8239 34.1467 61.9705 34.0933 62.1572 34.04C62.3705 33.96 62.5839 33.88 62.7972 33.8C63.0105 33.72 63.2239 33.6267 63.4372 33.52C63.6772 33.3867 63.8639 33.28 63.9972 33.2C64.1572 33.0667 64.2772 32.9867 64.3572 32.96C64.4372 32.9333 64.5305 32.9467 64.6372 33C64.7972 33.0533 64.9039 33.1333 64.9572 33.24ZM55.9172 38.6C56.5305 38.4133 56.9972 38.1733 57.3172 37.88C57.6639 37.6133 57.7839 37.36 57.6772 37.12C57.5705 36.96 57.4772 36.88 57.3972 36.88C57.3172 36.88 57.1572 36.9467 56.9172 37.08C56.7039 37.24 56.4772 37.4133 56.2372 37.6C55.9972 37.7867 55.7705 37.9733 55.5572 38.16C55.3439 38.3467 55.2105 38.4933 55.1572 38.6C55.1039 38.7067 55.1172 38.76 55.1972 38.76C55.2772 38.76 55.5172 38.7067 55.9172 38.6ZM73.8244 33.24C73.9577 33.4533 73.7044 33.7333 73.0644 34.08C72.4244 34.4 71.2644 34.8533 69.5844 35.44C69.291 35.52 68.9577 35.64 68.5844 35.8C68.2377 35.9333 67.9444 36.0533 67.7044 36.16L66.8244 36.52L67.0644 36.8C67.1177 36.8533 67.171 36.92 67.2244 37C67.3044 37.1067 67.3577 37.1867 67.3844 37.24C67.5977 37.64 67.5044 38.0267 67.1044 38.4C66.731 38.8 66.1177 39.1067 65.2644 39.32C64.8377 39.4533 64.5577 39.52 64.4244 39.52C64.3177 39.52 64.131 39.4667 63.8644 39.36C63.651 39.3067 63.451 39.1733 63.2644 38.96C63.0777 38.7733 62.9844 38.6133 62.9844 38.48C62.9844 38.2667 63.1977 37.9467 63.6244 37.52C64.051 37.12 64.531 36.7733 65.0644 36.48L65.4244 36.28L64.7444 35.84C63.9177 35.3067 63.4644 34.8267 63.3844 34.4C63.331 33.9467 63.6377 33.4 64.3044 32.76C64.8377 32.2267 65.2777 31.8533 65.6244 31.64C65.971 31.4 66.291 31.28 66.5844 31.28C66.8777 31.28 67.1044 31.36 67.2644 31.52C67.4244 31.7067 67.491 31.8933 67.4644 32.08C67.411 32.24 67.3577 32.3333 67.3044 32.36C67.251 32.3867 67.131 32.3467 66.9444 32.24C66.811 32.16 66.691 32.1333 66.5844 32.16C66.5044 32.1867 66.2777 32.3467 65.9044 32.64C65.051 33.28 64.5444 33.8533 64.3844 34.36C64.3044 34.5733 64.3177 34.76 64.4244 34.92C64.5577 35.0533 64.851 35.2533 65.3044 35.52L66.0244 35.96L66.8644 35.56C67.1044 35.4533 67.4244 35.3333 67.8244 35.2C68.251 35.04 68.6377 34.8933 68.9844 34.76C69.3577 34.6267 69.691 34.52 69.9844 34.44C70.3044 34.3333 70.5044 34.2533 70.5844 34.2C70.691 34.1467 70.8377 34.0933 71.0244 34.04C71.2377 33.96 71.451 33.88 71.6644 33.8C71.8777 33.72 72.091 33.6267 72.3044 33.52C72.5444 33.3867 72.731 33.28 72.8644 33.2C73.0244 33.0667 73.1444 32.9867 73.2244 32.96C73.3044 32.9333 73.3977 32.9467 73.5044 33C73.6644 33.0533 73.771 33.1333 73.8244 33.24ZM64.7844 38.6C65.3977 38.4133 65.8644 38.1733 66.1844 37.88C66.531 37.6133 66.651 37.36 66.5444 37.12C66.4377 36.96 66.3444 36.88 66.2644 36.88C66.1844 36.88 66.0244 36.9467 65.7844 37.08C65.571 37.24 65.3444 37.4133 65.1044 37.6C64.8644 37.7867 64.6377 37.9733 64.4244 38.16C64.211 38.3467 64.0777 38.4933 64.0244 38.6C63.971 38.7067 63.9844 38.76 64.0644 38.76C64.1444 38.76 64.3844 38.7067 64.7844 38.6ZM82.3716 33.4L81.9716 33.6C81.8382 33.6533 81.4916 33.7467 80.9316 33.88C80.3982 33.9867 79.8116 34.1067 79.1716 34.24C77.6516 34.56 76.3182 34.8667 75.1716 35.16C74.0516 35.4267 73.3982 35.6133 73.2116 35.72C73.1582 35.7733 73.2382 35.8933 73.4516 36.08C73.6916 36.2933 73.7982 36.5467 73.7716 36.84C73.7716 37.1333 73.6382 37.6533 73.3716 38.4C72.9982 39.44 72.5316 40.4 71.9716 41.28C71.4116 42.16 70.6649 43.0933 69.7316 44.08C69.4916 44.32 69.1982 44.6 68.8516 44.92C68.5049 45.2667 68.1716 45.5867 67.8516 45.88C67.5049 46.2 67.1982 46.4667 66.9316 46.68C66.6649 46.92 66.4916 47.0667 66.4116 47.12C66.0916 47.28 65.7982 47.2267 65.5316 46.96C65.3982 46.8267 65.3182 46.7333 65.2916 46.68C65.2649 46.6267 65.2782 46.5067 65.3316 46.32C65.4116 46 65.6649 45.4267 66.0916 44.6C66.4916 43.8 67.0116 42.8667 67.6516 41.8C68.2649 40.76 68.9582 39.6267 69.7316 38.4C70.5049 37.2 71.2916 36.0267 72.0916 34.88C72.3582 34.48 72.6782 34 73.0516 33.44C73.4249 32.8533 73.7716 32.2933 74.0916 31.76C74.4382 31.2 74.7182 30.72 74.9316 30.32C75.1716 29.8933 75.2916 29.6533 75.2916 29.6C75.2916 29.52 75.3316 29.4267 75.4116 29.32C75.5182 29.1867 75.6249 29.0667 75.7316 28.96C75.8649 28.8267 75.9849 28.72 76.0916 28.64C76.2249 28.56 76.3182 28.52 76.3716 28.52C76.4782 28.5467 76.5849 28.6133 76.6916 28.72C76.8249 28.8 76.8916 28.8667 76.8916 28.92C76.8916 28.9467 76.7316 29.2133 76.4116 29.72C76.1182 30.2267 75.7849 30.8 75.4116 31.44C75.0382 32.08 74.6649 32.7067 74.2916 33.32C73.9182 33.9067 73.6782 34.28 73.5716 34.44C73.3582 34.7333 73.3182 34.8533 73.4516 34.8C73.5582 34.7467 73.9582 34.64 74.6516 34.48C75.3716 34.32 76.1716 34.1467 77.0516 33.96C77.9316 33.7467 78.7982 33.5467 79.6516 33.36C80.5316 33.1733 81.1982 33.04 81.6516 32.96C81.8382 32.9333 82.0116 33 82.1716 33.16L82.3716 33.4ZM72.6116 37.88C72.8249 37.2667 72.9316 36.8533 72.9316 36.64C72.9582 36.4267 72.8782 36.2933 72.6916 36.24C72.5582 36.16 72.4649 36.12 72.4116 36.12C72.3849 36.12 72.2516 36.2933 72.0116 36.64C71.7982 36.96 71.5182 37.3733 71.1716 37.88C70.8249 38.4133 70.4516 39 70.0516 39.64C69.6516 40.3067 69.2649 40.96 68.8916 41.6C68.4916 42.24 68.1316 42.84 67.8116 43.4C67.4916 43.9867 67.2382 44.4533 67.0516 44.8L66.4116 45.96L67.0916 45.4C67.2516 45.24 67.5182 44.9867 67.8916 44.64C68.2382 44.2933 68.5716 43.9467 68.8916 43.6C69.9049 42.5867 70.6916 41.64 71.2516 40.76C71.8116 39.88 72.2649 38.92 72.6116 37.88ZM92.2872 32.96C92.4205 33.0133 92.5405 33.0933 92.6472 33.2C92.7539 33.28 92.8072 33.3467 92.8072 33.4C92.8072 33.4533 92.6205 33.6267 92.2472 33.92C91.9005 34.1867 91.4872 34.5067 91.0072 34.88C90.2872 35.4133 89.5939 35.8533 88.9272 36.2C88.2605 36.52 87.7405 36.7067 87.3672 36.76C86.4072 36.84 85.9672 36.3867 86.0472 35.4C86.0739 35.2667 86.1005 35.1467 86.1272 35.04C86.1539 34.9067 86.1672 34.8133 86.1672 34.76C86.1939 34.68 86.0072 34.9067 85.6072 35.44C84.9939 36.1867 84.3939 36.8 83.8072 37.28C83.2205 37.7867 82.7272 38.0667 82.3272 38.12C82.1139 38.1733 81.9139 38.1733 81.7272 38.12C81.0072 37.96 80.5672 37.4267 80.4072 36.52C80.3805 36.28 80.4072 35.9733 80.4872 35.6C80.5672 35.2 80.6872 34.7733 80.8472 34.32C81.0339 33.8667 81.2472 33.4 81.4872 32.92C81.7539 32.4133 82.0339 31.92 82.3272 31.44C82.5405 31.1467 82.6872 30.9867 82.7672 30.96C82.8739 30.9067 83.0339 30.92 83.2472 31C83.5139 31.1067 83.6739 31.28 83.7272 31.52C83.8072 31.76 83.7272 31.88 83.4872 31.88C83.3539 31.88 83.1939 32.04 83.0072 32.36C82.8205 32.6533 82.5539 33.1467 82.2072 33.84C81.4339 35.4133 81.1672 36.5333 81.4072 37.2C81.5139 37.4933 81.8205 37.4933 82.3272 37.2C82.8339 36.9333 83.3805 36.4667 83.9672 35.8C84.5805 35.1333 85.3405 34.12 86.2472 32.76C86.5139 32.36 86.7272 32.0533 86.8872 31.84C87.0739 31.6 87.2205 31.44 87.3272 31.36C87.4605 31.2533 87.5672 31.2133 87.6472 31.24C87.7272 31.2667 87.8339 31.32 87.9672 31.4C88.1272 31.5067 88.1939 31.6533 88.1672 31.84C88.1405 32.0267 88.0205 32.4 87.8072 32.96C87.5672 33.5467 87.3672 34.12 87.2072 34.68C87.0472 35.2133 86.9672 35.5867 86.9672 35.8C86.9672 35.96 86.9805 36.0533 87.0072 36.08C87.0339 36.1067 87.1139 36.0933 87.2472 36.04C87.4339 35.9867 87.7005 35.8667 88.0472 35.68C88.4205 35.4667 88.8205 35.2267 89.2472 34.96C89.6739 34.6933 90.0872 34.4133 90.4872 34.12C90.9139 33.8267 91.2739 33.56 91.5672 33.32C91.8872 33.0533 92.1272 32.9333 92.2872 32.96ZM101.717 17.64C101.85 17.64 101.984 17.6933 102.117 17.8C102.277 17.88 102.357 17.96 102.357 18.04C102.357 18.1733 102.317 18.32 102.237 18.48C102.157 18.6133 102.09 18.68 102.037 18.68C101.984 18.68 101.89 18.7733 101.757 18.96C101.624 19.12 101.477 19.32 101.317 19.56C101.157 19.8267 100.93 20.1733 100.637 20.6C100.344 21.0267 100.064 21.4267 99.7969 21.8C99.3969 22.36 98.9702 22.9733 98.5169 23.64C98.0635 24.28 97.6102 24.9333 97.1569 25.6C96.7302 26.24 96.3302 26.8533 95.9569 27.44C95.5835 28 95.2902 28.4533 95.0769 28.8C94.5435 29.7067 94.0235 30.6667 93.5169 31.68C93.0102 32.6933 92.5969 33.6 92.2769 34.4C91.9835 35.1467 91.7835 35.72 91.6769 36.12C91.5702 36.52 91.5302 36.8667 91.5569 37.16C91.5835 37.32 91.6102 37.4133 91.6369 37.44C91.6635 37.4933 91.7435 37.5067 91.8769 37.48C92.3835 37.4267 93.4369 36.8933 95.0369 35.88C95.8902 35.3467 96.6235 34.8667 97.2369 34.44C97.8502 33.9867 98.2769 33.6533 98.5169 33.44C98.6769 33.3067 98.8102 33.2 98.9169 33.12C99.0502 33.0133 99.1435 32.96 99.1969 32.96C99.2769 32.96 99.4102 33.0267 99.5969 33.16L99.8369 33.36L99.4769 33.72C99.2902 33.9333 98.9835 34.2 98.5569 34.52C98.1302 34.84 97.6369 35.1867 97.0769 35.56C96.5435 35.9067 95.9835 36.2667 95.3969 36.64C94.8369 36.9867 94.3169 37.2933 93.8369 37.56C93.3835 37.7733 93.0635 37.9067 92.8769 37.96C92.7169 38.04 92.4902 38.0933 92.1969 38.12C91.9035 38.12 91.6902 38.1067 91.5569 38.08C91.4502 38.08 91.3302 38.04 91.1969 37.96C90.7702 37.6933 90.5835 37.2 90.6369 36.48C90.6635 36.08 90.7835 35.5867 90.9969 35C91.2102 34.3867 91.4769 33.7067 91.7969 32.96C92.1169 32.2133 92.4769 31.44 92.8769 30.64C93.3035 29.84 93.7569 29.04 94.2369 28.24C94.4502 27.8933 94.7435 27.4267 95.1169 26.84C95.4902 26.2533 95.8902 25.64 96.3169 25C96.7702 24.36 97.2102 23.7333 97.6369 23.12C98.0635 22.48 98.4502 21.92 98.7969 21.44C99.0369 21.12 99.3035 20.7333 99.5969 20.28C99.9169 19.8267 100.184 19.4533 100.397 19.16C100.85 18.4667 101.144 18.04 101.277 17.88C101.437 17.72 101.584 17.64 101.717 17.64ZM108.67 17.64C108.803 17.64 108.937 17.6933 109.07 17.8C109.23 17.88 109.31 17.96 109.31 18.04C109.31 18.1733 109.27 18.32 109.19 18.48C109.11 18.6133 109.043 18.68 108.99 18.68C108.937 18.68 108.843 18.7733 108.71 18.96C108.577 19.12 108.43 19.32 108.27 19.56C108.11 19.8267 107.883 20.1733 107.59 20.6C107.297 21.0267 107.017 21.4267 106.75 21.8C106.35 22.36 105.923 22.9733 105.47 23.64C105.017 24.28 104.563 24.9333 104.11 25.6C103.683 26.24 103.283 26.8533 102.91 27.44C102.537 28 102.243 28.4533 102.03 28.8C101.497 29.7067 100.977 30.6667 100.47 31.68C99.9633 32.6933 99.55 33.6 99.23 34.4C98.9367 35.1467 98.7367 35.72 98.63 36.12C98.5233 36.52 98.4833 36.8667 98.51 37.16C98.5367 37.32 98.5633 37.4133 98.59 37.44C98.6167 37.4933 98.6967 37.5067 98.83 37.48C99.3367 37.4267 100.39 36.8933 101.99 35.88C102.843 35.3467 103.577 34.8667 104.19 34.44C104.803 33.9867 105.23 33.6533 105.47 33.44C105.63 33.3067 105.763 33.2 105.87 33.12C106.003 33.0133 106.097 32.96 106.15 32.96C106.23 32.96 106.363 33.0267 106.55 33.16L106.79 33.36L106.43 33.72C106.243 33.9333 105.937 34.2 105.51 34.52C105.083 34.84 104.59 35.1867 104.03 35.56C103.497 35.9067 102.937 36.2667 102.35 36.64C101.79 36.9867 101.27 37.2933 100.79 37.56C100.337 37.7733 100.017 37.9067 99.83 37.96C99.67 38.04 99.4433 38.0933 99.15 38.12C98.8567 38.12 98.6433 38.1067 98.51 38.08C98.4033 38.08 98.2833 38.04 98.15 37.96C97.7233 37.6933 97.5367 37.2 97.59 36.48C97.6167 36.08 97.7367 35.5867 97.95 35C98.1633 34.3867 98.43 33.7067 98.75 32.96C99.07 32.2133 99.43 31.44 99.83 30.64C100.257 29.84 100.71 29.04 101.19 28.24C101.403 27.8933 101.697 27.4267 102.07 26.84C102.443 26.2533 102.843 25.64 103.27 25C103.723 24.36 104.163 23.7333 104.59 23.12C105.017 22.48 105.403 21.92 105.75 21.44C105.99 21.12 106.257 20.7333 106.55 20.28C106.87 19.8267 107.137 19.4533 107.35 19.16C107.803 18.4667 108.097 18.04 108.23 17.88C108.39 17.72 108.537 17.64 108.67 17.64ZM116.823 33C117.116 33.1333 117.236 33.2667 117.183 33.4C117.13 33.5333 116.876 33.72 116.423 33.96C116.076 34.1467 115.556 34.4667 114.863 34.92C114.17 35.3733 113.463 35.84 112.743 36.32C112.05 36.8 111.436 37.2267 110.903 37.6C110.396 38 110.143 38.2267 110.143 38.28C110.143 38.3333 110.023 38.5867 109.783 39.04C109.57 39.52 109.303 40.0667 108.983 40.68C108.663 41.2933 108.33 41.9067 107.983 42.52C107.636 43.16 107.343 43.68 107.103 44.08C106.383 45.28 105.716 46.32 105.103 47.2C104.516 48.1067 103.956 48.8667 103.423 49.48C102.916 50.0933 102.436 50.5733 101.983 50.92C101.53 51.2933 101.076 51.5733 100.623 51.76C99.9831 52.0267 99.3965 52.04 98.8631 51.8C98.3031 51.5067 97.9565 51.0933 97.8231 50.56C97.6631 50.0533 97.7431 49.4533 98.0631 48.76C99.3165 46.0933 102.503 42.8267 107.623 38.96L109.423 37.6L110.543 35.12C110.863 34.4267 111.13 33.84 111.343 33.36C111.583 32.88 111.703 32.6133 111.703 32.56C111.73 32.5333 111.676 32.5867 111.543 32.72C111.41 32.8267 111.236 32.9733 111.023 33.16C110.65 33.5067 110.143 33.9067 109.503 34.36C108.89 34.8133 108.223 35.2667 107.503 35.72C106.383 36.44 105.596 36.4667 105.143 35.8C104.716 35.24 104.996 34.2933 105.983 32.96C106.596 32.16 107.036 31.6133 107.303 31.32C107.596 31 107.81 30.84 107.943 30.84C108.103 30.84 108.25 30.92 108.383 31.08C108.543 31.24 108.623 31.4267 108.623 31.64C108.623 31.8 108.61 31.8933 108.583 31.92C108.556 31.9467 108.476 31.9467 108.343 31.92C108.21 31.92 108.076 31.9867 107.943 32.12C107.836 32.2267 107.57 32.5333 107.143 33.04C106.743 33.5733 106.396 34.0667 106.103 34.52C105.836 34.9733 105.703 35.2667 105.703 35.4C105.703 35.5867 105.876 35.6 106.223 35.44C106.57 35.2533 107.156 34.88 107.983 34.32C108.463 34 108.876 33.7067 109.223 33.44C109.596 33.1467 109.943 32.8667 110.263 32.6C110.583 32.3067 110.89 32.0133 111.183 31.72C111.476 31.4 111.796 31.04 112.143 30.64C112.41 30.2667 112.61 30.08 112.743 30.08C112.823 30.08 112.956 30.1733 113.143 30.36C113.276 30.4933 113.356 30.5867 113.383 30.64C113.41 30.6933 113.41 30.7867 113.383 30.92C113.33 31.08 113.156 31.4933 112.863 32.16C112.596 32.8267 112.21 33.6933 111.703 34.76C111.49 35.2133 111.316 35.6 111.183 35.92C111.05 36.24 110.983 36.4133 110.983 36.44C110.983 36.4667 111.036 36.4533 111.143 36.4C111.25 36.32 111.37 36.2133 111.503 36.08C112.116 35.6533 112.81 35.1867 113.583 34.68C114.383 34.1733 115.036 33.7733 115.543 33.48C116.023 33.2133 116.33 33.0533 116.463 33C116.596 32.9467 116.716 32.9467 116.823 33ZM107.783 41.04C108.316 40.1067 108.57 39.5867 108.543 39.48C108.543 39.4 108.276 39.56 107.743 39.96C106.676 40.7867 105.716 41.56 104.863 42.28C104.036 43.0267 103.29 43.7333 102.623 44.4C101.93 45.0667 101.33 45.72 100.823 46.36C100.29 47 99.8098 47.64 99.3831 48.28C98.6898 49.32 98.4098 50.12 98.5431 50.68C98.7298 51.3733 99.3031 51.48 100.263 51C100.636 50.84 101.063 50.5467 101.543 50.12C102.023 49.72 102.476 49.2533 102.903 48.72C103.223 48.3467 103.583 47.8667 103.983 47.28C104.383 46.6933 104.796 46.0533 105.223 45.36C105.676 44.6667 106.116 43.9467 106.543 43.2C106.996 42.4533 107.41 41.7333 107.783 41.04ZM143.492 33.4L143.252 33.56C143.065 33.6933 142.785 33.8533 142.412 34.04C142.039 34.2267 141.599 34.4267 141.092 34.64C140.612 34.8533 140.079 35.08 139.492 35.32C138.932 35.56 138.359 35.7867 137.772 36C137.079 36.2667 136.492 36.48 136.012 36.64C135.559 36.7733 135.159 36.88 134.812 36.96C134.492 37.0133 134.212 37.0267 133.972 37C133.732 36.9733 133.519 36.92 133.332 36.84C132.665 36.4933 132.465 35.8667 132.732 34.96C132.785 34.7733 132.865 34.5733 132.972 34.36C133.079 34.12 133.172 33.9333 133.252 33.8C133.492 33.4267 133.585 33.24 133.532 33.24C133.452 33.2667 133.372 33.3067 133.292 33.36C133.239 33.4133 133.159 33.48 133.052 33.56C132.972 33.6133 132.892 33.6667 132.812 33.72C131.452 34.6267 130.159 35.3733 128.932 35.96C127.705 36.52 126.799 36.8 126.212 36.8C125.759 36.8 125.372 36.68 125.052 36.44C124.732 36.2 124.572 35.9067 124.572 35.56C124.572 35.2133 124.759 34.8 125.132 34.32C125.532 33.8133 126.025 33.32 126.612 32.84C127.199 32.3333 127.839 31.88 128.532 31.48C129.252 31.0533 129.932 30.7333 130.572 30.52C131.025 30.3867 131.492 30.3333 131.972 30.36C132.479 30.36 132.879 30.44 133.172 30.6C133.385 30.7333 133.572 30.9067 133.732 31.12C133.892 31.3067 133.972 31.48 133.972 31.64C133.972 31.7467 133.985 31.8 134.012 31.8C134.039 31.8 134.119 31.76 134.252 31.68C134.785 31.3067 135.105 31.1067 135.212 31.08C135.345 31.0267 135.505 31.04 135.692 31.12C136.119 31.28 136.225 31.52 136.012 31.84C135.985 31.8933 135.879 32.0267 135.692 32.24C135.532 32.4533 135.345 32.68 135.132 32.92C134.652 33.48 134.279 34.0267 134.012 34.56C133.745 35.0667 133.599 35.4933 133.572 35.84L133.532 36.32L134.012 36.28C134.225 36.28 134.625 36.1867 135.212 36C135.799 35.8133 136.452 35.5867 137.172 35.32C137.919 35.0533 138.679 34.76 139.452 34.44C140.225 34.12 140.919 33.8133 141.532 33.52C141.852 33.36 142.145 33.2267 142.412 33.12C142.679 33.0133 142.839 32.96 142.892 32.96C143.025 32.96 143.145 33.04 143.252 33.2L143.492 33.4ZM130.772 33.92C131.545 33.4667 132.185 33.0667 132.692 32.72C133.225 32.3733 133.492 32.1733 133.492 32.12C133.492 32.0667 133.439 32.0133 133.332 31.96C133.199 31.9067 133.132 31.76 133.132 31.52C133.132 31.28 133.025 31.1333 132.812 31.08C132.359 30.9467 131.719 31.04 130.892 31.36C130.065 31.6533 129.199 32.12 128.292 32.76C127.892 33.0533 127.505 33.3733 127.132 33.72C126.785 34.04 126.479 34.36 126.212 34.68C125.945 34.9733 125.745 35.2533 125.612 35.52C125.505 35.7867 125.492 35.9733 125.572 36.08C125.652 36.1867 126.132 36.0933 127.012 35.8C127.465 35.64 128.052 35.3867 128.772 35.04C129.492 34.6933 130.159 34.32 130.772 33.92ZM148.82 32.24C148.553 32.6667 148.3 33.12 148.06 33.6C147.82 34.08 147.607 34.5333 147.42 34.96C147.26 35.3867 147.127 35.7733 147.02 36.12C146.913 36.4667 146.86 36.72 146.86 36.88V37.24L147.34 37.16C147.5 37.1333 147.913 36.9733 148.58 36.68C149.273 36.3867 150.02 36.04 150.82 35.64C151.62 35.24 152.38 34.84 153.1 34.44C153.82 34.04 154.327 33.7333 154.62 33.52C154.833 33.36 155.033 33.2267 155.22 33.12C155.407 33.0133 155.527 32.96 155.58 32.96C155.687 32.96 155.82 33.04 155.98 33.2L156.18 33.4L155.74 33.76C155.607 33.8667 155.42 34.0133 155.18 34.2C154.94 34.36 154.713 34.5067 154.5 34.64C154.18 34.8533 153.687 35.1333 153.02 35.48C152.353 35.8267 151.66 36.1733 150.94 36.52C150.247 36.84 149.607 37.1333 149.02 37.4C148.433 37.6667 148.073 37.8133 147.94 37.84C147.353 38 146.833 37.8933 146.38 37.52C146.113 37.3067 145.967 37.0133 145.94 36.64C145.94 36.2667 146.06 35.7733 146.3 35.16C146.407 34.8133 146.447 34.64 146.42 34.64C146.393 34.64 146.18 34.7867 145.78 35.08C145.407 35.3733 144.953 35.7333 144.42 36.16C143.86 36.5867 143.393 36.9333 143.02 37.2C142.647 37.4667 142.327 37.68 142.06 37.84C141.82 38 141.607 38.1067 141.42 38.16C141.26 38.2133 141.1 38.24 140.94 38.24C140.807 38.24 140.673 38.2267 140.54 38.2C140.433 38.1733 140.353 38.1467 140.3 38.12C140.14 38.0133 139.98 37.88 139.82 37.72C139.687 37.56 139.593 37.4133 139.54 37.28C139.487 37.0133 139.567 36.6667 139.78 36.24C139.993 35.7867 140.3 35.3333 140.7 34.88C141.1 34.4267 141.553 33.9867 142.06 33.56C142.593 33.1067 143.14 32.7333 143.7 32.44C143.94 32.3067 144.14 32.2267 144.3 32.2C144.46 32.1467 144.647 32.12 144.86 32.12C145.153 32.12 145.367 32.1467 145.5 32.2C145.633 32.2533 145.807 32.3733 146.02 32.56C146.207 32.7467 146.3 32.9467 146.3 33.16C146.3 33.4 146.313 33.52 146.34 33.52C146.393 33.52 146.58 33.3867 146.9 33.12C147.06 32.9867 147.207 32.84 147.34 32.68C147.5 32.4933 147.647 32.2533 147.78 31.96C147.94 31.6667 148.167 31.2933 148.46 30.84C148.753 30.3867 149.073 29.8933 149.42 29.36C149.793 28.8267 150.167 28.2933 150.54 27.76C150.94 27.2 151.313 26.6933 151.66 26.24C151.9 25.92 152.22 25.52 152.62 25.04C153.02 24.5333 153.46 24 153.94 23.44C154.42 22.8533 154.913 22.2667 155.42 21.68C155.927 21.0667 156.407 20.4933 156.86 19.96C157.34 19.4267 157.767 18.96 158.14 18.56C158.54 18.1333 158.847 17.8133 159.06 17.6C159.54 17.1467 159.873 16.88 160.06 16.8C160.247 16.72 160.433 16.7867 160.62 17L160.86 17.24L159.82 18.28C159.607 18.4933 159.233 18.8933 158.7 19.48C158.193 20.0667 157.633 20.72 157.02 21.44C156.407 22.1333 155.793 22.8267 155.18 23.52C154.593 24.2133 154.113 24.7867 153.74 25.24C153.367 25.6933 152.953 26.2267 152.5 26.84C152.047 27.4533 151.593 28.0933 151.14 28.76C150.687 29.4 150.247 30.04 149.82 30.68C149.42 31.2933 149.087 31.8133 148.82 32.24ZM146.02 33.8L145.74 33.6C145.527 33.4933 145.42 33.32 145.42 33.08C145.42 32.92 145.407 32.8267 145.38 32.8C145.353 32.7733 145.273 32.7867 145.14 32.84C144.767 32.92 144.313 33.1333 143.78 33.48C143.273 33.8267 142.78 34.2267 142.3 34.68C141.82 35.1067 141.407 35.56 141.06 36.04C140.713 36.4933 140.513 36.88 140.46 37.2L140.42 37.6L140.74 37.52C140.847 37.52 140.967 37.48 141.1 37.4C141.26 37.32 141.407 37.24 141.54 37.16C141.673 37.08 141.98 36.8667 142.46 36.52C142.967 36.1467 143.487 35.7467 144.02 35.32L146.02 33.8ZM161.164 32.24C160.897 32.6667 160.644 33.12 160.404 33.6C160.164 34.08 159.95 34.5333 159.764 34.96C159.604 35.3867 159.47 35.7733 159.364 36.12C159.257 36.4667 159.204 36.72 159.204 36.88V37.24L159.684 37.16C159.844 37.1333 160.257 36.9733 160.924 36.68C161.617 36.3867 162.364 36.04 163.164 35.64C163.964 35.24 164.724 34.84 165.444 34.44C166.164 34.04 166.67 33.7333 166.964 33.52C167.177 33.36 167.377 33.2267 167.564 33.12C167.75 33.0133 167.87 32.96 167.924 32.96C168.03 32.96 168.164 33.04 168.324 33.2L168.524 33.4L168.084 33.76C167.95 33.8667 167.764 34.0133 167.524 34.2C167.284 34.36 167.057 34.5067 166.844 34.64C166.524 34.8533 166.03 35.1333 165.364 35.48C164.697 35.8267 164.004 36.1733 163.284 36.52C162.59 36.84 161.95 37.1333 161.364 37.4C160.777 37.6667 160.417 37.8133 160.284 37.84C159.697 38 159.177 37.8933 158.724 37.52C158.457 37.3067 158.31 37.0133 158.284 36.64C158.284 36.2667 158.404 35.7733 158.644 35.16C158.75 34.8133 158.79 34.64 158.764 34.64C158.737 34.64 158.524 34.7867 158.124 35.08C157.75 35.3733 157.297 35.7333 156.764 36.16C156.204 36.5867 155.737 36.9333 155.364 37.2C154.99 37.4667 154.67 37.68 154.404 37.84C154.164 38 153.95 38.1067 153.764 38.16C153.604 38.2133 153.444 38.24 153.284 38.24C153.15 38.24 153.017 38.2267 152.884 38.2C152.777 38.1733 152.697 38.1467 152.644 38.12C152.484 38.0133 152.324 37.88 152.164 37.72C152.03 37.56 151.937 37.4133 151.884 37.28C151.83 37.0133 151.91 36.6667 152.124 36.24C152.337 35.7867 152.644 35.3333 153.044 34.88C153.444 34.4267 153.897 33.9867 154.404 33.56C154.937 33.1067 155.484 32.7333 156.044 32.44C156.284 32.3067 156.484 32.2267 156.644 32.2C156.804 32.1467 156.99 32.12 157.204 32.12C157.497 32.12 157.71 32.1467 157.844 32.2C157.977 32.2533 158.15 32.3733 158.364 32.56C158.55 32.7467 158.644 32.9467 158.644 33.16C158.644 33.4 158.657 33.52 158.684 33.52C158.737 33.52 158.924 33.3867 159.244 33.12C159.404 32.9867 159.55 32.84 159.684 32.68C159.844 32.4933 159.99 32.2533 160.124 31.96C160.284 31.6667 160.51 31.2933 160.804 30.84C161.097 30.3867 161.417 29.8933 161.764 29.36C162.137 28.8267 162.51 28.2933 162.884 27.76C163.284 27.2 163.657 26.6933 164.004 26.24C164.244 25.92 164.564 25.52 164.964 25.04C165.364 24.5333 165.804 24 166.284 23.44C166.764 22.8533 167.257 22.2667 167.764 21.68C168.27 21.0667 168.75 20.4933 169.204 19.96C169.684 19.4267 170.11 18.96 170.484 18.56C170.884 18.1333 171.19 17.8133 171.404 17.6C171.884 17.1467 172.217 16.88 172.404 16.8C172.59 16.72 172.777 16.7867 172.964 17L173.204 17.24L172.164 18.28C171.95 18.4933 171.577 18.8933 171.044 19.48C170.537 20.0667 169.977 20.72 169.364 21.44C168.75 22.1333 168.137 22.8267 167.524 23.52C166.937 24.2133 166.457 24.7867 166.084 25.24C165.71 25.6933 165.297 26.2267 164.844 26.84C164.39 27.4533 163.937 28.0933 163.484 28.76C163.03 29.4 162.59 30.04 162.164 30.68C161.764 31.2933 161.43 31.8133 161.164 32.24ZM158.364 33.8L158.084 33.6C157.87 33.4933 157.764 33.32 157.764 33.08C157.764 32.92 157.75 32.8267 157.724 32.8C157.697 32.7733 157.617 32.7867 157.484 32.84C157.11 32.92 156.657 33.1333 156.124 33.48C155.617 33.8267 155.124 34.2267 154.644 34.68C154.164 35.1067 153.75 35.56 153.404 36.04C153.057 36.4933 152.857 36.88 152.804 37.2L152.764 37.6L153.084 37.52C153.19 37.52 153.31 37.48 153.444 37.4C153.604 37.32 153.75 37.24 153.884 37.16C154.017 37.08 154.324 36.8667 154.804 36.52C155.31 36.1467 155.83 35.7467 156.364 35.32L158.364 33.8ZM179.413 32.96C179.52 33.0133 179.627 33.0933 179.733 33.2C179.84 33.28 179.893 33.3467 179.893 33.4C179.893 33.4267 179.853 33.4667 179.773 33.52C179.693 33.5733 179.52 33.6667 179.253 33.8C179.013 33.9333 178.653 34.12 178.173 34.36C177.693 34.6 177.067 34.9067 176.293 35.28C175.28 35.76 174.373 36.1733 173.573 36.52C172.8 36.84 172.093 37.0933 171.453 37.28C170.813 37.4933 170.24 37.64 169.733 37.72C169.227 37.8267 168.733 37.88 168.253 37.88C168.013 37.88 167.773 37.8667 167.533 37.84C167.32 37.8133 167.147 37.7867 167.013 37.76C166.56 37.6 166.2 37.3467 165.933 37C165.667 36.6267 165.56 36.24 165.613 35.84C165.667 35.52 165.8 35.16 166.013 34.76C166.253 34.36 166.547 33.96 166.893 33.56C167.24 33.16 167.627 32.7733 168.053 32.4C168.507 32 168.987 31.64 169.493 31.32C170.187 30.92 170.933 30.5867 171.733 30.32C172.533 30.0267 173.2 29.88 173.733 29.88C174.267 29.88 174.747 30.0133 175.173 30.28C175.627 30.52 175.853 30.8 175.853 31.12C175.853 31.3333 175.693 31.6267 175.373 32C175.053 32.3733 174.68 32.6933 174.253 32.96C173.987 33.12 173.653 33.2667 173.253 33.4C172.853 33.5067 172.427 33.6 171.973 33.68C171.52 33.7333 171.053 33.76 170.573 33.76C170.093 33.7333 169.627 33.68 169.173 33.6L168.253 33.44L167.973 33.8C167.36 34.4933 166.933 35.1333 166.693 35.72C166.48 36.3067 166.493 36.7067 166.733 36.92C166.92 37.1333 167.347 37.2267 168.013 37.2C168.68 37.1733 169.44 37.04 170.293 36.8C171.147 36.5333 172.067 36.2 173.053 35.8C174.067 35.3733 175.387 34.7733 177.013 34C177.707 33.6533 178.267 33.3867 178.693 33.2C179.12 33.0133 179.36 32.9333 179.413 32.96ZM168.853 32.96L169.213 33C169.587 33.0533 170.04 33.08 170.573 33.08C171.133 33.0533 171.587 33 171.933 32.92C172.84 32.7333 173.613 32.36 174.253 31.8C174.52 31.56 174.72 31.3333 174.853 31.12C174.987 30.88 175 30.7333 174.893 30.68C174.787 30.6267 174.587 30.6 174.293 30.6C174 30.6 173.693 30.6267 173.373 30.68C171.987 30.9733 170.68 31.5733 169.453 32.48L168.853 32.96ZM185.226 32.24C184.96 32.6667 184.706 33.12 184.466 33.6C184.226 34.08 184.013 34.5333 183.826 34.96C183.666 35.3867 183.533 35.7733 183.426 36.12C183.32 36.4667 183.266 36.72 183.266 36.88V37.24L183.746 37.16C183.906 37.1333 184.32 36.9733 184.986 36.68C185.68 36.3867 186.426 36.04 187.226 35.64C188.026 35.24 188.786 34.84 189.506 34.44C190.226 34.04 190.733 33.7333 191.026 33.52C191.24 33.36 191.44 33.2267 191.626 33.12C191.813 33.0133 191.933 32.96 191.986 32.96C192.093 32.96 192.226 33.04 192.386 33.2L192.586 33.4L192.146 33.76C192.013 33.8667 191.826 34.0133 191.586 34.2C191.346 34.36 191.12 34.5067 190.906 34.64C190.586 34.8533 190.093 35.1333 189.426 35.48C188.76 35.8267 188.066 36.1733 187.346 36.52C186.653 36.84 186.013 37.1333 185.426 37.4C184.84 37.6667 184.48 37.8133 184.346 37.84C183.76 38 183.24 37.8933 182.786 37.52C182.52 37.3067 182.373 37.0133 182.346 36.64C182.346 36.2667 182.466 35.7733 182.706 35.16C182.813 34.8133 182.853 34.64 182.826 34.64C182.8 34.64 182.586 34.7867 182.186 35.08C181.813 35.3733 181.36 35.7333 180.826 36.16C180.266 36.5867 179.8 36.9333 179.426 37.2C179.053 37.4667 178.733 37.68 178.466 37.84C178.226 38 178.013 38.1067 177.826 38.16C177.666 38.2133 177.506 38.24 177.346 38.24C177.213 38.24 177.08 38.2267 176.946 38.2C176.84 38.1733 176.76 38.1467 176.706 38.12C176.546 38.0133 176.386 37.88 176.226 37.72C176.093 37.56 176 37.4133 175.946 37.28C175.893 37.0133 175.973 36.6667 176.186 36.24C176.4 35.7867 176.706 35.3333 177.106 34.88C177.506 34.4267 177.96 33.9867 178.466 33.56C179 33.1067 179.546 32.7333 180.106 32.44C180.346 32.3067 180.546 32.2267 180.706 32.2C180.866 32.1467 181.053 32.12 181.266 32.12C181.56 32.12 181.773 32.1467 181.906 32.2C182.04 32.2533 182.213 32.3733 182.426 32.56C182.613 32.7467 182.706 32.9467 182.706 33.16C182.706 33.4 182.72 33.52 182.746 33.52C182.8 33.52 182.986 33.3867 183.306 33.12C183.466 32.9867 183.613 32.84 183.746 32.68C183.906 32.4933 184.053 32.2533 184.186 31.96C184.346 31.6667 184.573 31.2933 184.866 30.84C185.16 30.3867 185.48 29.8933 185.826 29.36C186.2 28.8267 186.573 28.2933 186.946 27.76C187.346 27.2 187.72 26.6933 188.066 26.24C188.306 25.92 188.626 25.52 189.026 25.04C189.426 24.5333 189.866 24 190.346 23.44C190.826 22.8533 191.32 22.2667 191.826 21.68C192.333 21.0667 192.813 20.4933 193.266 19.96C193.746 19.4267 194.173 18.96 194.546 18.56C194.946 18.1333 195.253 17.8133 195.466 17.6C195.946 17.1467 196.28 16.88 196.466 16.8C196.653 16.72 196.84 16.7867 197.026 17L197.266 17.24L196.226 18.28C196.013 18.4933 195.64 18.8933 195.106 19.48C194.6 20.0667 194.04 20.72 193.426 21.44C192.813 22.1333 192.2 22.8267 191.586 23.52C191 24.2133 190.52 24.7867 190.146 25.24C189.773 25.6933 189.36 26.2267 188.906 26.84C188.453 27.4533 188 28.0933 187.546 28.76C187.093 29.4 186.653 30.04 186.226 30.68C185.826 31.2933 185.493 31.8133 185.226 32.24ZM182.426 33.8L182.146 33.6C181.933 33.4933 181.826 33.32 181.826 33.08C181.826 32.92 181.813 32.8267 181.786 32.8C181.76 32.7733 181.68 32.7867 181.546 32.84C181.173 32.92 180.72 33.1333 180.186 33.48C179.68 33.8267 179.186 34.2267 178.706 34.68C178.226 35.1067 177.813 35.56 177.466 36.04C177.12 36.4933 176.92 36.88 176.866 37.2L176.826 37.6L177.146 37.52C177.253 37.52 177.373 37.48 177.506 37.4C177.666 37.32 177.813 37.24 177.946 37.16C178.08 37.08 178.386 36.8667 178.866 36.52C179.373 36.1467 179.893 35.7467 180.426 35.32L182.426 33.8Z" fill="#FFCA60"/>
</svg>
