<svg width="134" height="134" viewBox="0 0 134 134" fill="none" xmlns="http://www.w3.org/2000/svg">
<path d="M66.6284 132.038C102.537 132.038 131.647 102.928 131.647 67.019C131.647 31.11 102.537 2 66.6284 2C30.7194 2 1.60938 31.11 1.60938 67.019C1.60938 102.928 30.7194 132.038 66.6284 132.038Z" stroke="#FFC960" stroke-width="2.88973" stroke-miterlimit="10"/>
<path d="M88.1263 85.8438C83.5519 94.1021 76.7384 100.896 66.6304 103.743H66.6284C56.7711 100.967 50.0472 94.4356 45.4766 86.4548" stroke="#FFC960" stroke-width="2.88973" stroke-miterlimit="10"/>
<path d="M41.9297 62.7266C44.3875 64.207 47.7784 65.6066 51.8112 65.6066C57.9615 65.6066 60.1543 63.276 60.1543 63.276" stroke="#FFC960" stroke-width="2.88973" stroke-miterlimit="10"/>
<path d="M90.8956 62.9492C88.4628 64.3478 85.1944 65.6162 81.3428 65.6162C75.1722 65.6162 72.9727 63.2856 72.9727 63.2856" stroke="#FFC960" stroke-width="2.88973" stroke-miterlimit="10"/>
<path d="M76.788 86.7687C73.719 86.7687 71.0954 84.4805 69.6448 84.4805C68.1942 84.4805 66.6308 85.8752 66.6308 85.8752C66.6308 85.8752 65.0713 84.4805 63.6197 84.4805C62.1681 84.4805 59.5455 86.7687 56.4766 86.7687" stroke="#FFC960" stroke-width="2.88973" stroke-miterlimit="10"/>
<path d="M59.6719 89.9375C61.1157 91.1365 63.6767 91.9375 66.6049 91.9375C69.5331 91.9375 72.0941 91.1365 73.5379 89.9375" stroke="#FFC960" stroke-width="2.88973" stroke-miterlimit="10"/>
<path d="M48.2643 90.707C48.2643 90.707 57.7005 112.113 38.8281 125.569" stroke="#FFC960" stroke-width="2.88973" stroke-miterlimit="10"/>
<path d="M84.9762 90.7656C84.9762 90.7656 75.5401 112.132 94.4124 125.563" stroke="#FFC960" stroke-width="2.88973" stroke-miterlimit="10"/>
<path d="M4.98438 46.5742C5.12028 46.7101 41.1069 49.5728 53.7836 56.5251C61.6795 60.8547 63.4848 67.1372 63.9157 75.6374C63.9879 77.0678 65.1581 78.1984 66.5904 78.1984C68.0227 78.1984 69.1928 77.0678 69.2651 75.6374C69.6959 67.1372 71.5012 60.8557 79.3972 56.5251C92.0738 49.5737 128.059 46.7111 128.196 46.5742" stroke="#FFC960" stroke-width="2.88973" stroke-miterlimit="10"/>
<path d="M31.875 53.5749C31.875 34.372 47.4423 18.8047 66.6452 18.8047C85.8482 18.8047 101.415 34.372 101.415 53.5749" stroke="#FFC960" stroke-width="2.88973" stroke-miterlimit="10"/>
<path d="M40.7994 52.1641C40.7994 52.1641 41.9965 74.0176 51.5763 86.142H32.1179L31.875 53.5703" stroke="#FFC960" stroke-width="2.88973" stroke-miterlimit="10"/>
<path d="M92.4957 52.1641C92.4957 52.1641 91.2985 74.0176 81.7188 86.142H101.177L101.42 53.5703" stroke="#FFC960" stroke-width="2.88973" stroke-miterlimit="10"/>
<path d="M66.6289 2V19.0362" stroke="#FFC960" stroke-width="2.88973" stroke-miterlimit="10"/>
<path d="M40.2578 7.625L47.8337 24.6429" stroke="#FFC960" stroke-width="2.88973" stroke-miterlimit="10"/>
<path d="M18.4531 23.4766L35.8035 39.0988" stroke="#FFC960" stroke-width="2.88973" stroke-miterlimit="10"/>
<path d="M114.826 23.4258L97.7031 38.8427" stroke="#FFC960" stroke-width="2.88973" stroke-miterlimit="10"/>
<path d="M93.0063 7.58984L85.4805 24.494" stroke="#FFC960" stroke-width="2.88973" stroke-miterlimit="10"/>
</svg>
