<svg width="52" height="43" viewBox="0 0 52 43" fill="none" xmlns="http://www.w3.org/2000/svg">
<path d="M15.436 37.2537C12.5589 37.0677 9.82507 36.1209 7.62499 34.5485C5.4249 32.9761 3.87103 30.8585 3.18524 28.4982C2.49945 26.1378 2.71681 23.6553 3.80629 21.4051C4.89577 19.155 6.80165 17.2522 9.25181 15.9686C9.77315 12.5454 11.7579 9.39946 14.8347 7.11956C17.9115 4.83966 21.8694 3.58203 25.9677 3.58203C30.0661 3.58203 34.024 4.83966 37.1008 7.11956C40.1775 9.39946 42.1623 12.5454 42.6837 15.9686C45.1338 17.2522 47.0397 19.155 48.1292 21.4051C49.2187 23.6553 49.436 26.1378 48.7502 28.4982C48.0644 30.8585 46.5106 32.9761 44.3105 34.5485C42.1104 36.1209 39.3766 37.0677 36.4994 37.2537V37.2874H15.436V37.2537ZM28.0741 23.0973H34.3931L25.9677 14.2285L17.5424 23.0973H23.8614V30.1924H28.0741V23.0973Z" fill="#FFCA60"/>
</svg>
