<svg width="138" height="26" viewBox="0 0 138 26" fill="none" xmlns="http://www.w3.org/2000/svg">
<path d="M4.52662 0.105452L15.1825 24.0902L25.8384 0.105452H26.597L15.3631 25.3906H12.0399L0.806084 0.105452H4.52662ZM43.5668 3.86211V4.44005H33.236V13.615H39.5211V14.1929H33.236V24.8127H44.5059V25.3906H30.3101V3.86211H43.5668ZM61.2486 25.3906L57.7809 16.2157C57.6605 15.9508 57.4678 15.7702 57.2029 15.6739C56.9381 15.5535 56.625 15.4933 56.2638 15.4933H51.1345V25.3906H48.2086V3.86211H59.009C59.8037 3.86211 60.5502 3.99455 61.2486 4.25944C61.9469 4.52434 62.561 4.90964 63.0908 5.41534C63.6206 5.92104 64.0299 6.53511 64.3189 7.25754C64.632 7.97998 64.7885 8.78669 64.7885 9.6777C64.7885 10.4483 64.656 11.1587 64.3912 11.8089C64.1503 12.4591 63.8132 13.037 63.3797 13.5427C62.9463 14.0243 62.4285 14.4217 61.8265 14.7347C61.2245 15.0478 60.5863 15.2645 59.9121 15.3849C60.6345 15.6498 61.2365 16.2278 61.7182 17.1188L65.547 25.3906H61.2486ZM51.1345 14.8792H57.7086C58.4552 14.8792 59.0933 14.7106 59.6231 14.3735C60.1529 14.0364 60.5863 13.615 60.9235 13.1093C61.2606 12.6036 61.5014 12.0497 61.6459 11.4477C61.8145 10.8215 61.8988 10.2316 61.8988 9.6777C61.8988 9.17199 61.8386 8.61813 61.7182 8.0161C61.5977 7.41407 61.381 6.84816 61.068 6.31838C60.779 5.7886 60.3576 5.3431 59.8037 4.98188C59.2739 4.62066 58.5756 4.44005 57.7086 4.44005H51.1345V14.8792ZM69.2467 25.3906V3.86211H72.1725V25.3906H69.2467ZM89.1138 3.86211V4.44005H78.783V13.615H85.0682V14.1929H78.783V25.3906H75.8572V3.86211H89.1138ZM92.8033 25.3906V3.86211H95.7291V25.3906H92.8033ZM112.67 3.86211V4.44005H102.34V13.615H108.625V14.1929H102.34V24.8127H113.61V25.3906H99.4138V3.86211H112.67ZM127.571 3.86211C129.04 3.86211 130.388 4.15108 131.616 4.72903C132.869 5.28289 133.94 6.05349 134.831 7.04081C135.746 8.00406 136.445 9.13587 136.926 10.4363C137.432 11.7366 137.685 13.1333 137.685 14.6264C137.685 16.1194 137.432 17.5161 136.926 18.8165C136.445 20.1169 135.746 21.2607 134.831 22.248C133.94 23.2113 132.869 23.9819 131.616 24.5598C130.388 25.1137 129.04 25.3906 127.571 25.3906H117.312V3.86211H127.571ZM125.62 24.8127C126.969 24.8127 128.197 24.5959 129.305 24.1625C130.437 23.7049 131.4 23.0427 132.194 22.1758C133.013 21.3089 133.639 20.2493 134.073 18.9971C134.53 17.7208 134.759 16.2639 134.759 14.6264C134.759 12.9407 134.53 11.4597 134.073 10.1834C133.639 8.9071 133.013 7.84753 132.194 7.00469C131.4 6.13777 130.437 5.49962 129.305 5.09024C128.197 4.65678 126.969 4.44005 125.62 4.44005H120.238V24.8127H125.62Z" fill="white"/>
</svg>
