<svg width="24" height="24" viewBox="0 0 24 24" fill="none" xmlns="http://www.w3.org/2000/svg">
<g id="Technology Ar Searching Ar Map Smartphone">
<path id="Vector" d="M11.9993 1.74121L5.86328 5.32021L11.9993 8.90021L18.1353 5.32021L11.9993 1.74121Z" stroke="#D3D3D3" stroke-linecap="round" stroke-linejoin="round"/>
<path id="Vector_2" d="M18.1353 5.31982V12.4788L11.9993 16.0588L5.86328 12.4788V5.31982" stroke="#D3D3D3" stroke-linecap="round" stroke-linejoin="round"/>
<path id="Vector_3" d="M12 8.8999V16.0589" stroke="#D3D3D3" stroke-linecap="round" stroke-linejoin="round"/>
<path id="Vector_4" d="M20.2993 10.1069C20.511 10.1147 20.7145 10.1905 20.8797 10.3231C21.0449 10.4557 21.1629 10.638 21.2163 10.8429L23.1993 17.3629C23.2559 17.518 23.2759 17.6841 23.2578 17.8482C23.2397 18.0123 23.1839 18.1701 23.0949 18.3091C23.0059 18.4481 22.886 18.5648 22.7445 18.6499C22.6031 18.735 22.4439 18.7864 22.2793 18.7999H1.71932C1.55477 18.7864 1.39557 18.735 1.2541 18.6499C1.11264 18.5648 0.992731 18.4481 0.903709 18.3091C0.814687 18.1701 0.758954 18.0123 0.740847 17.8482C0.722741 17.6841 0.742749 17.518 0.799315 17.3629L2.78232 10.8429C2.83572 10.638 2.95376 10.4557 3.11895 10.3231C3.28413 10.1905 3.48765 10.1147 3.69932 10.1069" stroke="#D3D3D3" stroke-linecap="round" stroke-linejoin="round"/>
<path id="Vector_5" d="M23.1845 18.1001L22.6495 20.7791C22.5273 21.2065 22.2693 21.5824 21.9144 21.85C21.5594 22.1176 21.127 22.2623 20.6825 22.2621H3.3145C2.87001 22.2623 2.43757 22.1176 2.08265 21.85C1.72773 21.5824 1.46965 21.2065 1.3475 20.7791L0.8125 18.1001" stroke="#D3D3D3" stroke-linecap="round" stroke-linejoin="round"/>
</g>
</svg>
