<svg width="24" height="24" viewBox="0 0 24 24" fill="none" xmlns="http://www.w3.org/2000/svg">
	<g id="App Window Hammer">
		<path id="Vector" d="M21.5 2.00391H2.5C1.96957 2.00391 1.46086 2.21462 1.08579 2.58969C0.710714 2.96477 0.5 3.47347 0.5 4.00391V20.0039C0.5 20.5343 0.710714 21.043 1.08579 21.4181C1.46086 21.7932 1.96957 22.0039 2.5 22.0039H21.5C22.0304 22.0039 22.5391 21.7932 22.9142 21.4181C23.2893 21.043 23.5 20.5343 23.5 20.0039V4.00391C23.5 3.47347 23.2893 2.96477 22.9142 2.58969C22.5391 2.21462 22.0304 2.00391 21.5 2.00391Z" stroke="white" stroke-linecap="round" stroke-linejoin="round" />
		<path id="Vector_2" d="M0.5 7.00391H23.5" stroke="white" stroke-linecap="round" stroke-linejoin="round" />
		<path id="Vector_3" d="M16.5018 18.5038L12.3828 14.3838" stroke="white" stroke-linecap="round" stroke-linejoin="round" />
		<path id="Vector_4" d="M13.8678 12.1888C13.9615 12.2825 14.0142 12.4097 14.0142 12.5423C14.0142 12.6748 13.9615 12.802 13.8678 12.8958L10.8938 15.8718C10.8475 15.9186 10.7923 15.9557 10.7316 15.9811C10.6708 16.0064 10.6056 16.0195 10.5398 16.0195C10.4739 16.0195 10.4087 16.0064 10.348 15.9811C10.2872 15.9557 10.2321 15.9186 10.1858 15.8718L8.13077 13.8168C8.03703 13.723 7.98438 13.5958 7.98438 13.4633C7.98438 13.3307 8.03703 13.2035 8.13077 13.1098L11.1058 10.1348C11.1997 10.041 11.327 9.98828 11.4598 9.98828C11.5925 9.98828 11.7198 10.041 11.8138 10.1348L13.8678 12.1888Z" stroke="white" stroke-linecap="round" stroke-linejoin="round" />
		<path id="Vector_5" d="M4 4.75391C3.9337 4.75391 3.87011 4.72757 3.82322 4.68068C3.77634 4.6338 3.75 4.57021 3.75 4.50391C3.75 4.4376 3.77634 4.37401 3.82322 4.32713C3.87011 4.28025 3.9337 4.25391 4 4.25391" stroke="white" />
		<path id="Vector_6" d="M4 4.75391C4.0663 4.75391 4.12989 4.72757 4.17678 4.68068C4.22366 4.6338 4.25 4.57021 4.25 4.50391C4.25 4.4376 4.22366 4.37401 4.17678 4.32713C4.12989 4.28025 4.0663 4.25391 4 4.25391" stroke="white" />
		<path id="Vector_7" d="M7 4.75391C6.9337 4.75391 6.87011 4.72757 6.82322 4.68068C6.77634 4.6338 6.75 4.57021 6.75 4.50391C6.75 4.4376 6.77634 4.37401 6.82322 4.32713C6.87011 4.28025 6.9337 4.25391 7 4.25391" stroke="white" />
		<path id="Vector_8" d="M7 4.75391C7.0663 4.75391 7.12989 4.72757 7.17678 4.68068C7.22366 4.6338 7.25 4.57021 7.25 4.50391C7.25 4.4376 7.22366 4.37401 7.17678 4.32713C7.12989 4.28025 7.0663 4.25391 7 4.25391" stroke="white" />
		<g id="Group">
			<path id="Vector_9" d="M10 4.75391C9.9337 4.75391 9.87011 4.72757 9.82322 4.68068C9.77634 4.6338 9.75 4.57021 9.75 4.50391C9.75 4.4376 9.77634 4.37401 9.82322 4.32713C9.87011 4.28025 9.9337 4.25391 10 4.25391" stroke="white" />
			<path id="Vector_10" d="M10 4.75391C10.0663 4.75391 10.1299 4.72757 10.1768 4.68068C10.2237 4.6338 10.25 4.57021 10.25 4.50391C10.25 4.4376 10.2237 4.37401 10.1768 4.32713C10.1299 4.28025 10.0663 4.25391 10 4.25391" stroke="white" />
		</g>
	</g>
</svg>
