<svg width="24" height="24" viewBox="0 0 24 24" fill="none" xmlns="http://www.w3.org/2000/svg">
<g id="Live Video" clip-path="url(#clip0_5444_24022)">
<path id="Vector" d="M11.9988 19.7008C13.0174 19.7124 14.0282 19.5218 14.9727 19.14C15.9171 18.7583 16.7764 18.1929 17.5008 17.4767C18.2253 16.7605 18.8004 15.9077 19.1929 14.9676C19.5854 14.0276 19.7875 13.019 19.7875 12.0003C19.7875 10.9816 19.5854 9.97305 19.1929 9.03301C18.8004 8.09298 18.2253 7.24016 17.5008 6.52395C16.7764 5.80774 15.9171 5.24237 14.9727 4.86059C14.0282 4.47881 13.0174 4.28821 11.9988 4.29982C9.9781 4.33238 8.0512 5.15795 6.63374 6.59844C5.21629 8.03893 4.42188 9.97888 4.42188 11.9998C4.42187 14.0208 5.21629 15.9607 6.63374 17.4012C8.0512 18.8417 9.9781 19.6682 11.9988 19.7008Z" stroke="#D3D3D3" stroke-miterlimit="10" stroke-linecap="round" stroke-linejoin="round"/>
<path id="Vector_2" d="M1.03516 12C1.03516 10.703 1.26016 9.45802 1.67416 8.30302M1.67416 15.696C3.19116 19.933 7.24016 22.963 11.9982 22.963C18.0532 22.963 22.9612 18.055 22.9612 12C22.9618 10.0558 22.4453 8.14636 21.4645 6.46762C20.4838 4.78887 19.0741 3.40122 17.3802 2.44702M3.58016 4.97702C4.37988 4.01929 5.33649 3.20436 6.40916 2.56702M10.0952 1.20202C11.3542 0.981487 12.6421 0.981487 13.9012 1.20202" stroke="#D3D3D3" stroke-miterlimit="10" stroke-linecap="round" stroke-linejoin="round"/>
<path id="Vector_3" d="M9.53125 14.8041V9.19606C9.5312 9.01733 9.57906 8.84186 9.66984 8.6879C9.76061 8.53394 9.89099 8.40712 10.0474 8.32065C10.2038 8.23417 10.3805 8.1912 10.5592 8.19619C10.7379 8.20119 10.9119 8.25397 11.0632 8.34906L15.5273 11.1531C15.6706 11.243 15.7888 11.368 15.8708 11.5161C15.9527 11.6643 15.9957 11.8308 15.9957 12.0001C15.9957 12.1693 15.9527 12.3359 15.8708 12.484C15.7888 12.6321 15.6706 12.7571 15.5273 12.8471L11.0632 15.6511C10.9119 15.7461 10.7379 15.7989 10.5592 15.8039C10.3805 15.8089 10.2038 15.7659 10.0474 15.6795C9.89099 15.593 9.76061 15.4662 9.66984 15.3122C9.57906 15.1583 9.5312 14.9828 9.53125 14.8041Z" stroke="#D3D3D3" stroke-linecap="round" stroke-linejoin="round"/>
</g>
<defs>
<clipPath id="clip0_5444_24022">
<rect width="24" height="24" fill="white"/>
</clipPath>
</defs>
</svg>
