<svg width="8" height="6" viewBox="0 0 8 6" fill="none" xmlns="http://www.w3.org/2000/svg">
<rect width="8" height="6" fill="black"/>
<g id="Art Auction">
<path d="M-1129 -25979C-1129 -25980.1 -1128.1 -25981 -1127 -25981H44337C44338.1 -25981 44339 -25980.1 44339 -25979V4651C44339 4652.11 44338.1 4653 44337 4653H-1127C-1128.1 4653 -1129 4652.11 -1129 4651V-25979Z" fill="#222222"/>
<path d="M-1127 -25980H44337V-25982H-1127V-25980ZM44338 -25979V4651H44340V-25979H44338ZM44337 4652H-1127V4654H44337V4652ZM-1128 4651V-25979H-1130V4651H-1128ZM-1127 4652C-1127.55 4652 -1128 4651.55 -1128 4651H-1130C-1130 4652.66 -1128.66 4654 -1127 4654V4652ZM44338 4651C44338 4651.55 44337.6 4652 44337 4652V4654C44338.7 4654 44340 4652.66 44340 4651H44338ZM44337 -25980C44337.6 -25980 44338 -25979.6 44338 -25979H44340C44340 -25980.7 44338.7 -25982 44337 -25982V-25980ZM-1127 -25982C-1128.66 -25982 -1130 -25980.7 -1130 -25979H-1128C-1128 -25979.6 -1127.55 -25980 -1127 -25980V-25982Z" fill="white" fill-opacity="0.1"/>
<g id="Profile">
<path d="M-307 -455C-307 -456.105 -306.105 -457 -305 -457H39062C39063.1 -457 39064 -456.105 39064 -455V1617C39064 1618.1 39063.1 1619 39062 1619H-305.001C-306.105 1619 -307 1618.1 -307 1617V-455Z" fill="#404040"/>
<path d="M-305 -456H39062V-458H-305V-456ZM39063 -455V1617H39065V-455H39063ZM39062 1618H-305.001V1620H39062V1618ZM-306 1617V-455H-308V1617H-306ZM-305.001 1618C-305.552 1618 -306 1617.55 -306 1617H-308C-308 1618.66 -306.658 1620 -305.001 1620V1618ZM39063 1617C39063 1617.55 39062.6 1618 39062 1618V1620C39063.7 1620 39065 1618.66 39065 1617H39063ZM39062 -456C39062.6 -456 39063 -455.553 39063 -455H39065C39065 -456.656 39063.7 -458 39062 -458V-456ZM-305 -458C-306.657 -458 -308 -456.657 -308 -455H-306C-306 -455.552 -305.552 -456 -305 -456V-458Z" fill="white" fill-opacity="0.1"/>
<g id="Profile/Completed Profile" clip-path="url(#clip0_4013_182338)">
<rect width="1280" height="720" transform="translate(-194 -78)" fill="url(#paint0_linear_4013_182338)"/>
<g id="Profile Panel">
<rect x="-178" y="-57" width="300" height="675" rx="8" fill="#1C0029"/>
<g id="Frame 632306">
<g id="Frame 632202">
<g id="Frame 632201">
<g id="Frame 632191">
<g id="Frame 632190">
<path id="Vector" d="M0.330314 2.36175L3.21591 5.1816C3.31898 5.28253 3.44141 5.36261 3.57619 5.41724C3.71097 5.47188 3.85546 5.5 4.00137 5.5C4.14729 5.5 4.29177 5.47188 4.42655 5.41724C4.56133 5.36261 4.68376 5.28253 4.78684 5.1816L7.67243 2.36175C8.37434 1.67584 7.87298 0.5 6.8814 0.5L1.11021 0.5C0.118629 0.5 -0.371588 1.67584 0.330314 2.36175Z" fill="url(#paint1_linear_4013_182338)"/>
</g>
</g>
</g>
</g>
</g>
</g>
</g>
</g>
</g>
<defs>
<linearGradient id="paint0_linear_4013_182338" x1="646.5" y1="-22" x2="640" y2="720" gradientUnits="userSpaceOnUse">
<stop stop-color="#D375FF"/>
<stop stop-color="#520079"/>
<stop stop-color="#520079"/>
<stop stop-color="#520079"/>
<stop stop-color="#520079"/>
<stop stop-color="#520079"/>
<stop offset="0.0001" stop-color="#46005F"/>
<stop offset="1" stop-color="#17071F"/>
</linearGradient>
<linearGradient id="paint1_linear_4013_182338" x1="4" y1="5.5" x2="4.24438" y2="0.511973" gradientUnits="userSpaceOnUse">
<stop stop-color="#7E8195"/>
<stop offset="1" stop-color="#7E8195"/>
</linearGradient>
<clipPath id="clip0_4013_182338">
<rect width="1280" height="720" fill="white" transform="translate(-194 -78)"/>
</clipPath>
</defs>
</svg>
