<svg width="22" height="22" viewBox="0 0 22 22" fill="none" xmlns="http://www.w3.org/2000/svg">
<g id="Computer Voice Mail">
<g clip-path="url(#clip0_4013_222946)">
<g id="Group">
<path id="Vector" d="M14.8065 10.2366C14.8065 11.247 14.4052 12.2159 13.6908 12.9303C12.9763 13.6448 12.0074 14.0461 10.997 14.0461C9.98668 14.0461 9.01771 13.6448 8.30328 12.9303C7.58886 12.2159 7.1875 11.247 7.1875 10.2366V4.90327C7.1875 3.89292 7.58886 2.92396 8.30328 2.20953C9.01771 1.49511 9.98668 1.09375 10.997 1.09375C12.0074 1.09375 12.9763 1.49511 13.6908 2.20953C14.4052 2.92396 14.8065 3.89292 14.8065 4.90327V10.2366Z" stroke="#F0F0F0" stroke-width="2" stroke-linecap="round" stroke-linejoin="round"/>
<path id="Vector_2" d="M18.6131 10.998C18.6151 11.8991 18.4391 12.7917 18.0952 13.6245C17.7513 14.4574 17.2463 15.2141 16.6092 15.8513C15.972 16.4884 15.2153 16.9934 14.3825 17.3373C13.5496 17.6812 12.657 17.8572 11.756 17.8552H10.2322C9.3311 17.8572 8.43852 17.6812 7.60567 17.3373C6.77282 16.9934 6.01609 16.4884 5.37895 15.8513C4.7418 15.2141 4.23679 14.4574 3.89289 13.6245C3.549 12.7917 3.37301 11.8991 3.37502 10.998" stroke="#F0F0F0" stroke-width="2" stroke-linecap="round" stroke-linejoin="round"/>
<path id="Vector_3" d="M11 17.8555V20.9031" stroke="#F0F0F0" stroke-width="2" stroke-linecap="round" stroke-linejoin="round"/>
</g>
</g>
</g>
<defs>
<clipPath id="clip0_4013_222946">
<rect x="0.332031" y="0.332031" width="21.3333" height="21.3333" rx="10.6667" fill="white"/>
</clipPath>
</defs>
</svg>
