<svg width="18" height="17" viewBox="0 0 18 17" fill="none" xmlns="http://www.w3.org/2000/svg">
<g id="Clock" clip-path="url(#clip0_4540_25664)">
<path id="Vector" d="M1.23828 8.49929C1.23828 10.5113 2.03754 12.4409 3.46023 13.8636C4.88292 15.2862 6.8125 16.0855 8.82449 16.0855C10.8365 16.0855 12.7661 15.2862 14.1887 13.8636C15.6114 12.4409 16.4107 10.5113 16.4107 8.49929C16.4107 6.48731 15.6114 4.55772 14.1887 3.13503C12.7661 1.71234 10.8365 0.913086 8.82449 0.913086C6.8125 0.913086 4.88292 1.71234 3.46023 3.13503C2.03754 4.55772 1.23828 6.48731 1.23828 8.49929Z" stroke="#C9B0D5" stroke-width="1.03448" stroke-linecap="round" stroke-linejoin="round"/>
<path id="Vector_2" d="M8.82812 4.28552V8.5H12.1998" stroke="#C9B0D5" stroke-width="1.03448" stroke-linecap="round" stroke-linejoin="round"/>
</g>
<defs>
<clipPath id="clip0_4540_25664">
<rect width="16.5517" height="16.5517" fill="white" transform="translate(0.550781 0.224121)"/>
</clipPath>
</defs>
</svg>
