<svg width="20" height="20" viewBox="0 0 20 20" fill="none" xmlns="http://www.w3.org/2000/svg">
<g id="Diamond" clip-path="url(#clip0_4724_23311)">
<g id="Group 484865">
<path id="Vector" d="M19.4141 6.31641H0.59375" stroke="#F8F8F8" stroke-width="0.8" stroke-linecap="round" stroke-linejoin="round"/>
<path id="Vector_2" d="M6.30469 6.31714L10.0051 0.588135L13.7055 6.31714" stroke="#F8F8F8" stroke-width="0.8" stroke-linecap="round" stroke-linejoin="round"/>
<path id="Vector_3" d="M4.69922 0.636475L10.0043 19.4094" stroke="#F8F8F8" stroke-width="0.8" stroke-linecap="round" stroke-linejoin="round"/>
<path id="Vector_4" d="M15.309 0.636475L10.0039 19.4094" stroke="#F8F8F8" stroke-width="0.8" stroke-linecap="round" stroke-linejoin="round"/>
<path id="Vector_5" d="M9.67985 19.2457C9.71666 19.297 9.76518 19.3389 9.8214 19.3677C9.87761 19.3966 9.93989 19.4117 10.0031 19.4117C10.0663 19.4117 10.1286 19.3966 10.1848 19.3677C10.241 19.3389 10.2895 19.297 10.3263 19.2457L19.2967 6.68456C19.3731 6.57668 19.4136 6.44747 19.4124 6.31527C19.4112 6.18307 19.3684 6.0546 19.2901 5.94808L15.4449 0.751797C15.4067 0.700982 15.3573 0.659737 15.3005 0.631331C15.2437 0.602924 15.1811 0.588135 15.1175 0.588135H4.89026C4.82674 0.588135 4.76409 0.602924 4.70728 0.631331C4.65047 0.659737 4.60105 0.700982 4.56294 0.751797L0.716047 5.94481C0.637731 6.05132 0.59495 6.17979 0.593775 6.31199C0.5926 6.44419 0.63309 6.5734 0.709501 6.68129L9.67985 19.2457Z" stroke="#F8F8F8" stroke-width="0.8" stroke-linecap="round" stroke-linejoin="round"/>
</g>
</g>
<defs>
<clipPath id="clip0_4724_23311">
<rect width="20" height="20" fill="white"/>
</clipPath>
</defs>
</svg>
