<svg width="28" height="22" viewBox="0 0 28 22" fill="none" xmlns="http://www.w3.org/2000/svg">
<g id="eye-optic--health-medical-eye-optic">
<path id="Vector 2095" d="M14.0007 4.76465C5.48272 4.76465 1.90625 12.719 1.90625 12.8838C1.90625 13.0485 5.48272 21.0008 14.0007 21.0008C22.5188 21.0008 26.0952 13.0485 26.0952 12.8838C26.0952 12.719 22.5188 4.76465 14.0007 4.76465Z" stroke="#F8F8F8" stroke-linecap="round" stroke-linejoin="round"/>
<path id="Vector 2096" d="M4.17163 9.38204L1 6.08496" stroke="#F8F8F8" stroke-linecap="round" stroke-linejoin="round"/>
<path id="Vector 2097" d="M10.2059 5.3395L8.91406 0.999023" stroke="#F8F8F8" stroke-linecap="round" stroke-linejoin="round"/>
<path id="Vector 2099" d="M23.8281 9.38774L26.9998 6.09277" stroke="#F8F8F8" stroke-linecap="round" stroke-linejoin="round"/>
<path id="Vector 2100" d="M17.793 5.3395L19.0848 0.999023" stroke="#F8F8F8" stroke-linecap="round" stroke-linejoin="round"/>
<path id="Ellipse 902" d="M10.5545 12.0539C10.3452 13.0029 10.5076 13.9994 11.0059 14.8241C11.5043 15.6489 12.2977 16.2343 13.2118 16.4516C14.1259 16.6689 15.0857 16.5003 15.8801 15.983C16.6745 15.4656 17.2383 14.6417 17.4477 13.6927C17.657 12.7437 17.4946 11.7472 16.9963 10.9225C16.4979 10.0977 15.7044 9.51232 14.7903 9.295C13.8762 9.07767 12.9164 9.24625 12.1221 9.76365C11.3277 10.281 10.7638 11.1049 10.5545 12.0539Z" stroke="#F8F8F8" stroke-linecap="round" stroke-linejoin="round"/>
</g>
</svg>
