<svg width="32" height="32" viewBox="0 0 32 32" fill="none" xmlns="http://www.w3.org/2000/svg">
<g id="Technology Ar Searching Ar Map Smartphone">
<path id="Vector" d="M16.0016 2.32227L7.82031 7.09427L16.0016 11.8676L24.183 7.09427L16.0016 2.32227Z" stroke="#E8E8E8" stroke-width="0.625" stroke-linecap="round" stroke-linejoin="round"/>
<path id="Vector_2" d="M24.183 7.09277V16.6381L16.0016 21.4114L7.82031 16.6381L7.82031 7.09277" stroke="#E8E8E8" stroke-width="0.625" stroke-linecap="round" stroke-linejoin="round"/>
<path id="Vector_3" d="M16 11.8667L16 21.412" stroke="#E8E8E8" stroke-width="0.625" stroke-linecap="round" stroke-linejoin="round"/>
<path id="Vector_4" d="M27.071 13.4756C27.3532 13.486 27.6245 13.587 27.8448 13.7638C28.065 13.9406 28.2224 14.1836 28.2936 14.4569L30.9376 23.1503C31.0131 23.3571 31.0397 23.5785 31.0156 23.7973C30.9914 24.0161 30.9171 24.2264 30.7984 24.4118C30.6797 24.5972 30.5199 24.7527 30.3312 24.8662C30.1426 24.9797 29.9304 25.0482 29.711 25.0663L2.29763 25.0663C2.07823 25.0482 1.86596 24.9797 1.67735 24.8662C1.48873 24.7527 1.32885 24.5972 1.21015 24.4118C1.09146 24.2264 1.01715 24.0161 0.993005 23.7973C0.968862 23.5785 0.99554 23.3571 1.07096 23.1503L3.71496 14.4569C3.78616 14.1836 3.94356 13.9406 4.1638 13.7638C4.38405 13.587 4.65541 13.486 4.93763 13.4756" stroke="#E8E8E8" stroke-width="0.625" stroke-linecap="round" stroke-linejoin="round"/>
<path id="Vector_5" d="M30.9075 24.1338L30.1941 27.7058C30.0313 28.2756 29.6872 28.7769 29.2139 29.1337C28.7407 29.4904 28.1641 29.6833 27.5715 29.6831L4.41413 29.6831C3.82147 29.6833 3.24488 29.4904 2.77165 29.1337C2.29843 28.7769 1.95433 28.2756 1.79146 27.7058L1.07812 24.1338" stroke="#E8E8E8" stroke-width="0.625" stroke-linecap="round" stroke-linejoin="round"/>
</g>
</svg>
