<svg width="18" height="18" viewBox="0 0 18 18" fill="none" xmlns="http://www.w3.org/2000/svg">
<g id="Merge PDF" clip-path="url(#clip0_3059_181118)">
<g id="merge-PDF--essential-files-folder-merge-PDF">
<path id="Intersect" d="M8.0687 1.11365C8.44329 0.827089 8.89959 0.66763 9.37113 0.65851C9.87034 0.647894 10.3697 0.64275 10.869 0.643081C12.4684 0.643081 13.7593 0.690653 15.0938 0.783224C15.6424 0.820202 16.1588 1.05543 16.5468 1.44504C16.9348 1.83465 17.1678 2.35206 17.2024 2.9008C17.3023 4.50342 17.3521 6.10878 17.3516 7.71451C17.3516 9.36408 17.3001 10.9738 17.2024 12.5282C17.1433 13.4797 16.5004 14.2678 15.6261 14.5455" stroke="#E8E8E8" stroke-width="0.799867" stroke-linecap="round" stroke-linejoin="round"/>
<path id="Intersect_2" d="M0.78556 15.0987C0.659247 13.0708 0.613353 11.0386 0.647988 9.007C0.655118 8.0874 0.960569 7.19497 1.51842 6.46386C2.31965 5.41417 3.26148 4.4797 4.31742 3.68672C4.69254 3.39917 5.14985 3.23923 5.62242 3.23029C6.1212 3.21968 6.62009 3.21454 7.11899 3.21486C8.71842 3.21486 10.0093 3.26243 11.3438 3.355C11.8924 3.39198 12.4088 3.6272 12.7968 4.01682C13.1848 4.40643 13.4178 4.92384 13.4524 5.47257C13.5523 7.0752 13.6021 8.68055 13.6016 10.2863C13.6016 11.9359 13.5501 13.5456 13.4524 15.0987C13.4181 15.6477 13.1852 16.1654 12.7972 16.5553C12.4092 16.9452 11.8926 17.1806 11.3438 17.2176C9.93768 17.3146 8.52849 17.3614 7.11899 17.3577C5.7099 17.3617 4.30113 17.315 2.89542 17.2176C2.34663 17.1806 1.83005 16.9452 1.44206 16.5553C1.05408 16.1654 0.8199 15.6477 0.78556 15.0987Z" stroke="#E8E8E8" stroke-width="0.799867" stroke-linecap="round" stroke-linejoin="round"/>
</g>
</g>
<defs>
<clipPath id="clip0_3059_181118">
<rect width="18" height="18" fill="white" transform="matrix(-1 0 0 1 18 0)"/>
</clipPath>
</defs>
</svg>
