<svg width="24" height="24" viewBox="0 0 24 24" fill="none" xmlns="http://www.w3.org/2000/svg">
<g clip-path="url(#clip0_4013_210091)">
<path d="M2.56975 3.42969C2.1151 3.42969 1.67906 3.6103 1.35757 3.93179C1.03608 4.25328 0.855469 4.68932 0.855469 5.14397V21.4297C0.855469 21.8843 1.03608 22.3204 1.35757 22.6419C1.67906 22.9634 2.1151 23.144 2.56975 23.144H21.4269C21.8816 23.144 22.3176 22.9634 22.6391 22.6419C22.9606 22.3204 23.1412 21.8843 23.1412 21.4297V5.14397C23.1412 4.68932 22.9606 4.25328 22.6391 3.93179C22.3176 3.6103 21.8816 3.42969 21.4269 3.42969H17.9983" stroke="#FFCA60" stroke-linecap="round" stroke-linejoin="round"/>
<path d="M6 0.857422V6.00028" stroke="#FFCA60" stroke-linecap="round" stroke-linejoin="round"/>
<path d="M18 0.857422V6.00028" stroke="#FFCA60" stroke-linecap="round" stroke-linejoin="round"/>
<path d="M6 3.42969H14.5714" stroke="#FFCA60" stroke-linecap="round" stroke-linejoin="round"/>
<path d="M5.99888 11.572C5.88522 11.572 5.77621 11.5268 5.69584 11.4465C5.61547 11.3661 5.57031 11.2571 5.57031 11.1434C5.57031 11.0298 5.61547 10.9207 5.69584 10.8404C5.77621 10.76 5.88522 10.7148 5.99888 10.7148" stroke="#FFCA60" stroke-linecap="round" stroke-linejoin="round"/>
<path d="M6 11.572C6.11366 11.572 6.22267 11.5268 6.30305 11.4465C6.38342 11.3661 6.42857 11.2571 6.42857 11.1434C6.42857 11.0298 6.38342 10.9207 6.30305 10.8404C6.22267 10.76 6.11366 10.7148 6 10.7148" stroke="#FFCA60" stroke-linecap="round" stroke-linejoin="round"/>
<path d="M11.9989 11.572C11.8852 11.572 11.7762 11.5268 11.6958 11.4465C11.6155 11.3661 11.5703 11.2571 11.5703 11.1434C11.5703 11.0298 11.6155 10.9207 11.6958 10.8404C11.7762 10.76 11.8852 10.7148 11.9989 10.7148" stroke="#FFCA60" stroke-linecap="round" stroke-linejoin="round"/>
<path d="M12 11.572C12.1137 11.572 12.2227 11.5268 12.303 11.4465C12.3834 11.3661 12.4286 11.2571 12.4286 11.1434C12.4286 11.0298 12.3834 10.9207 12.303 10.8404C12.2227 10.76 12.1137 10.7148 12 10.7148" stroke="#FFCA60" stroke-linecap="round" stroke-linejoin="round"/>
<path d="M5.99888 17.572C5.88522 17.572 5.77621 17.5268 5.69584 17.4465C5.61547 17.3661 5.57031 17.2571 5.57031 17.1434C5.57031 17.0298 5.61547 16.9207 5.69584 16.8404C5.77621 16.76 5.88522 16.7148 5.99888 16.7148" stroke="#FFCA60" stroke-linecap="round" stroke-linejoin="round"/>
<path d="M6 17.572C6.11366 17.572 6.22267 17.5268 6.30305 17.4465C6.38342 17.3661 6.42857 17.2571 6.42857 17.1434C6.42857 17.0298 6.38342 16.9207 6.30305 16.8404C6.22267 16.76 6.11366 16.7148 6 16.7148" stroke="#FFCA60" stroke-linecap="round" stroke-linejoin="round"/>
<path d="M11.9989 17.572C11.8852 17.572 11.7762 17.5268 11.6958 17.4465C11.6155 17.3661 11.5703 17.2571 11.5703 17.1434C11.5703 17.0298 11.6155 16.9207 11.6958 16.8404C11.7762 16.76 11.8852 16.7148 11.9989 16.7148" stroke="#FFCA60" stroke-linecap="round" stroke-linejoin="round"/>
<path d="M12 17.572C12.1137 17.572 12.2227 17.5268 12.303 17.4465C12.3834 17.3661 12.4286 17.2571 12.4286 17.1434C12.4286 17.0298 12.3834 16.9207 12.303 16.8404C12.2227 16.76 12.1137 16.7148 12 16.7148" stroke="#FFCA60" stroke-linecap="round" stroke-linejoin="round"/>
<path d="M17.9989 11.572C17.8852 11.572 17.7762 11.5268 17.6958 11.4465C17.6155 11.3661 17.5703 11.2571 17.5703 11.1434C17.5703 11.0298 17.6155 10.9207 17.6958 10.8404C17.7762 10.76 17.8852 10.7148 17.9989 10.7148" stroke="#FFCA60" stroke-linecap="round" stroke-linejoin="round"/>
<path d="M18 11.572C18.1137 11.572 18.2227 11.5268 18.303 11.4465C18.3834 11.3661 18.4286 11.2571 18.4286 11.1434C18.4286 11.0298 18.3834 10.9207 18.303 10.8404C18.2227 10.76 18.1137 10.7148 18 10.7148" stroke="#FFCA60" stroke-linecap="round" stroke-linejoin="round"/>
</g>
<defs>
<clipPath id="clip0_4013_210091">
<rect width="24" height="24" fill="white"/>
</clipPath>
</defs>
</svg>
