<svg width="14" height="14" viewBox="0 0 14 14" fill="none" xmlns="http://www.w3.org/2000/svg">
<g clip-path="url(#clip0_5110_26430)">
<path d="M0.652344 6.78051C0.652344 8.40555 1.29789 9.96402 2.44696 11.1131C3.59603 12.2622 5.1545 12.9077 6.77954 12.9077C8.40457 12.9077 9.96305 12.2622 11.1121 11.1131C12.2612 9.96402 12.9067 8.40555 12.9067 6.78051C12.9067 5.15548 12.2612 3.59701 11.1121 2.44793C9.96305 1.29886 8.40457 0.65332 6.77954 0.65332C5.1545 0.65332 3.59603 1.29886 2.44696 2.44793C1.29789 3.59701 0.652344 5.15548 0.652344 6.78051Z" fill="#220033" stroke="#220033" stroke-width="0.835526" stroke-linejoin="round"/>
<path d="M3.99609 6.22769L6.22416 8.45576L10.1233 4.55664" stroke="#C9B0D5" stroke-width="0.835526" stroke-linecap="round" stroke-linejoin="round"/>
</g>
<defs>
<clipPath id="clip0_5110_26430">
<rect width="13.3684" height="13.3684" fill="white" transform="translate(0.0976562 0.101562)"/>
</clipPath>
</defs>
</svg>
