<svg width="266" height="72" viewBox="0 0 266 72" fill="none" xmlns="http://www.w3.org/2000/svg">
<rect width="266" height="72" rx="8" fill="#3A0056"/>
<g clip-path="url(#clip0_4013_210060)">
<path d="M47.25 36.4316H48.45C49.45 36.4316 50.25 37.2316 50.25 38.2316C50.25 39.2316 49.45 40.0316 48.45 40.0316H47.25" stroke="#FFCA60" stroke-miterlimit="10" stroke-linecap="round" stroke-linejoin="round"/>
<path d="M47.25 43.6312H47.55C48.55 43.6312 49.35 42.8312 49.35 41.8312C49.35 40.8312 48.55 40.0312 47.55 40.0312H47.25" stroke="#FFCA60" stroke-miterlimit="10" stroke-linecap="round" stroke-linejoin="round"/>
<path d="M47.25 36.4319H47.95C48.95 36.4319 49.75 35.6319 49.75 34.6319C49.75 33.6319 48.95 32.8319 47.95 32.8319H41.95L42.05 32.6319C43.05 30.9319 43.65 28.9319 43.75 26.8319C43.85 26.1319 43.55 25.5319 42.95 25.1319C42.55 24.8319 42.15 24.8319 41.65 24.9319C41.15 25.0319 40.75 25.3319 40.55 25.7319C38.51 29.3009 37.153 33.8019 33.65 36.3319H31.25" stroke="#FFCA60" stroke-miterlimit="10" stroke-linecap="round" stroke-linejoin="round"/>
<path d="M47.25 43.6309H46.55C47.65 43.6309 48.45 44.5309 48.25 45.6309C48.15 46.5309 47.35 47.1309 46.45 47.1309H39.95C39.55 47.1309 39.05 47.1309 38.65 47.0309L33.35 46.1309H31.25" stroke="#FFCA60" stroke-miterlimit="10" stroke-linecap="round" stroke-linejoin="round"/>
<path d="M31.25 34.6309H27.75V47.1309H31.25V34.6309Z" stroke="#FFCA60" stroke-miterlimit="10" stroke-linecap="round" stroke-linejoin="round"/>
<path d="M35.5 25.0029V28.0029" stroke="#FFCA60" stroke-miterlimit="10" stroke-linecap="round" stroke-linejoin="round"/>
<path d="M30.5 28.0029V31.0029" stroke="#FFCA60" stroke-miterlimit="10" stroke-linecap="round" stroke-linejoin="round"/>
<path d="M48.5 25.9971V28.9971" stroke="#FFCA60" stroke-miterlimit="10" stroke-linecap="round" stroke-linejoin="round"/>
<path d="M34 26.5029H37" stroke="#FFCA60" stroke-miterlimit="10" stroke-linecap="round" stroke-linejoin="round"/>
<path d="M29 29.5029H32" stroke="#FFCA60" stroke-miterlimit="10" stroke-linecap="round" stroke-linejoin="round"/>
<path d="M47 27.4971H50" stroke="#FFCA60" stroke-miterlimit="10" stroke-linecap="round" stroke-linejoin="round"/>
</g>
<path d="M69.5225 29.2031L72.4932 35.3115L75.4639 29.2031H77.9072L73.6006 37.2891V42H71.377V37.2891L67.0703 29.2031H69.5225ZM78.3094 37.3506V37.1484C78.3094 36.4629 78.409 35.8271 78.6082 35.2412C78.8074 34.6494 79.0945 34.1367 79.4695 33.7031C79.8504 33.2637 80.3133 32.9238 80.8582 32.6836C81.409 32.4375 82.0301 32.3145 82.7215 32.3145C83.4187 32.3145 84.0398 32.4375 84.5848 32.6836C85.1355 32.9238 85.6014 33.2637 85.9822 33.7031C86.3631 34.1367 86.6531 34.6494 86.8523 35.2412C87.0516 35.8271 87.1512 36.4629 87.1512 37.1484V37.3506C87.1512 38.0361 87.0516 38.6719 86.8523 39.2578C86.6531 39.8438 86.3631 40.3564 85.9822 40.7959C85.6014 41.2295 85.1385 41.5693 84.5936 41.8154C84.0486 42.0557 83.4305 42.1758 82.7391 42.1758C82.0418 42.1758 81.4178 42.0557 80.867 41.8154C80.3221 41.5693 79.8592 41.2295 79.4783 40.7959C79.0975 40.3564 78.8074 39.8438 78.6082 39.2578C78.409 38.6719 78.3094 38.0361 78.3094 37.3506ZM80.4275 37.1484V37.3506C80.4275 37.7783 80.4715 38.1826 80.5594 38.5635C80.6473 38.9443 80.785 39.2783 80.9725 39.5654C81.16 39.8525 81.4002 40.0781 81.6932 40.2422C81.9861 40.4062 82.3348 40.4883 82.7391 40.4883C83.1316 40.4883 83.4715 40.4062 83.7586 40.2422C84.0516 40.0781 84.2918 39.8525 84.4793 39.5654C84.6668 39.2783 84.8045 38.9443 84.8924 38.5635C84.9861 38.1826 85.033 37.7783 85.033 37.3506V37.1484C85.033 36.7266 84.9861 36.3281 84.8924 35.9531C84.8045 35.5723 84.6639 35.2354 84.4705 34.9424C84.283 34.6494 84.0428 34.4209 83.7498 34.2568C83.4627 34.0869 83.1199 34.002 82.7215 34.002C82.323 34.002 81.9773 34.0869 81.6844 34.2568C81.3973 34.4209 81.16 34.6494 80.9725 34.9424C80.785 35.2354 80.6473 35.5723 80.5594 35.9531C80.4715 36.3281 80.4275 36.7266 80.4275 37.1484ZM94.8482 39.7588V32.4902H96.9752V42H94.9713L94.8482 39.7588ZM95.1471 37.7812L95.859 37.7637C95.859 38.4023 95.7887 38.9912 95.648 39.5303C95.5074 40.0635 95.2906 40.5293 94.9977 40.9277C94.7047 41.3203 94.3297 41.6279 93.8727 41.8506C93.4156 42.0674 92.8678 42.1758 92.2291 42.1758C91.7662 42.1758 91.3414 42.1084 90.9547 41.9736C90.568 41.8389 90.234 41.6309 89.9527 41.3496C89.6773 41.0684 89.4635 40.7021 89.3111 40.251C89.1588 39.7998 89.0826 39.2607 89.0826 38.6338V32.4902H91.2008V38.6514C91.2008 38.9971 91.2418 39.2871 91.3238 39.5215C91.4059 39.75 91.5172 39.9346 91.6578 40.0752C91.7984 40.2158 91.9625 40.3154 92.15 40.374C92.3375 40.4326 92.5367 40.4619 92.7477 40.4619C93.3512 40.4619 93.8258 40.3447 94.1715 40.1104C94.523 39.8701 94.7721 39.5479 94.9186 39.1436C95.0709 38.7393 95.1471 38.2852 95.1471 37.7812ZM101.473 34.3008V42H99.3549V32.4902H101.376L101.473 34.3008ZM104.382 32.4287L104.365 34.3975C104.236 34.374 104.095 34.3564 103.943 34.3447C103.796 34.333 103.65 34.3271 103.503 34.3271C103.14 34.3271 102.821 34.3799 102.545 34.4854C102.27 34.585 102.038 34.7314 101.851 34.9248C101.669 35.1123 101.529 35.3408 101.429 35.6104C101.329 35.8799 101.271 36.1816 101.253 36.5156L100.77 36.5508C100.77 35.9531 100.829 35.3994 100.946 34.8896C101.063 34.3799 101.239 33.9316 101.473 33.5449C101.713 33.1582 102.012 32.8564 102.37 32.6396C102.733 32.4229 103.152 32.3145 103.626 32.3145C103.755 32.3145 103.893 32.3262 104.039 32.3496C104.192 32.373 104.306 32.3994 104.382 32.4287ZM113.158 29.2031V42H110.952V29.2031H113.158ZM117.99 34.5205V42H115.872V32.4902H117.867L117.99 34.5205ZM117.612 36.8936L116.927 36.8848C116.932 36.2109 117.026 35.5928 117.208 35.0303C117.395 34.4678 117.653 33.9844 117.981 33.5801C118.315 33.1758 118.714 32.8652 119.177 32.6484C119.639 32.4258 120.155 32.3145 120.723 32.3145C121.18 32.3145 121.594 32.3789 121.963 32.5078C122.338 32.6309 122.657 32.833 122.921 33.1143C123.19 33.3955 123.395 33.7617 123.536 34.2129C123.677 34.6582 123.747 35.2061 123.747 35.8564V42H121.62V35.8477C121.62 35.3906 121.553 35.0303 121.418 34.7666C121.289 34.4971 121.098 34.3066 120.846 34.1953C120.6 34.0781 120.293 34.0195 119.924 34.0195C119.56 34.0195 119.235 34.0957 118.948 34.248C118.661 34.4004 118.418 34.6084 118.219 34.8721C118.025 35.1357 117.876 35.4404 117.77 35.7861C117.665 36.1318 117.612 36.501 117.612 36.8936ZM130.468 32.4902V34.0371H125.107V32.4902H130.468ZM126.654 30.1611H128.772V39.3721C128.772 39.665 128.813 39.8906 128.895 40.0488C128.983 40.2012 129.103 40.3037 129.255 40.3564C129.408 40.4092 129.587 40.4355 129.792 40.4355C129.938 40.4355 130.079 40.4268 130.213 40.4092C130.348 40.3916 130.457 40.374 130.539 40.3564L130.547 41.9736C130.372 42.0264 130.167 42.0732 129.932 42.1143C129.704 42.1553 129.44 42.1758 129.141 42.1758C128.655 42.1758 128.224 42.0908 127.849 41.9209C127.474 41.7451 127.181 41.4609 126.97 41.0684C126.759 40.6758 126.654 40.1543 126.654 39.5039V30.1611ZM136.496 42.1758C135.792 42.1758 135.157 42.0615 134.588 41.833C134.026 41.5986 133.545 41.2734 133.147 40.8574C132.754 40.4414 132.453 39.9521 132.242 39.3896C132.031 38.8271 131.925 38.2207 131.925 37.5703V37.2188C131.925 36.4746 132.034 35.8008 132.25 35.1973C132.467 34.5938 132.769 34.0781 133.156 33.6504C133.542 33.2168 133.999 32.8857 134.527 32.6572C135.054 32.4287 135.625 32.3145 136.241 32.3145C136.92 32.3145 137.515 32.4287 138.025 32.6572C138.535 32.8857 138.956 33.208 139.29 33.624C139.63 34.0342 139.882 34.5234 140.046 35.0918C140.216 35.6602 140.301 36.2871 140.301 36.9727V37.8779H132.954V36.3574H138.209V36.1904C138.198 35.8096 138.121 35.4521 137.981 35.1182C137.846 34.7842 137.638 34.5146 137.357 34.3096C137.076 34.1045 136.701 34.002 136.232 34.002C135.88 34.002 135.567 34.0781 135.291 34.2305C135.022 34.377 134.796 34.5908 134.615 34.8721C134.433 35.1533 134.292 35.4932 134.193 35.8916C134.099 36.2842 134.052 36.7266 134.052 37.2188V37.5703C134.052 37.9863 134.108 38.373 134.219 38.7305C134.336 39.082 134.506 39.3896 134.729 39.6533C134.952 39.917 135.221 40.125 135.537 40.2773C135.854 40.4238 136.214 40.4971 136.619 40.4971C137.128 40.4971 137.582 40.3945 137.981 40.1895C138.379 39.9844 138.725 39.6943 139.018 39.3193L140.134 40.4004C139.929 40.6992 139.662 40.9863 139.334 41.2617C139.006 41.5312 138.605 41.751 138.13 41.9209C137.662 42.0908 137.117 42.1758 136.496 42.1758ZM144.28 34.3008V42H142.162V32.4902H144.184L144.28 34.3008ZM147.19 32.4287L147.172 34.3975C147.043 34.374 146.903 34.3564 146.75 34.3447C146.604 34.333 146.457 34.3271 146.311 34.3271C145.947 34.3271 145.628 34.3799 145.353 34.4854C145.077 34.585 144.846 34.7314 144.658 34.9248C144.477 35.1123 144.336 35.3408 144.237 35.6104C144.137 35.8799 144.078 36.1816 144.061 36.5156L143.577 36.5508C143.577 35.9531 143.636 35.3994 143.753 34.8896C143.87 34.3799 144.046 33.9316 144.28 33.5449C144.521 33.1582 144.82 32.8564 145.177 32.6396C145.54 32.4229 145.959 32.3145 146.434 32.3145C146.563 32.3145 146.7 32.3262 146.847 32.3496C146.999 32.373 147.113 32.3994 147.19 32.4287ZM152.733 42.1758C152.03 42.1758 151.395 42.0615 150.826 41.833C150.264 41.5986 149.783 41.2734 149.385 40.8574C148.992 40.4414 148.69 39.9521 148.479 39.3896C148.269 38.8271 148.163 38.2207 148.163 37.5703V37.2188C148.163 36.4746 148.271 35.8008 148.488 35.1973C148.705 34.5938 149.007 34.0781 149.394 33.6504C149.78 33.2168 150.237 32.8857 150.765 32.6572C151.292 32.4287 151.863 32.3145 152.479 32.3145C153.158 32.3145 153.753 32.4287 154.263 32.6572C154.772 32.8857 155.194 33.208 155.528 33.624C155.868 34.0342 156.12 34.5234 156.284 35.0918C156.454 35.6602 156.539 36.2871 156.539 36.9727V37.8779H149.191V36.3574H154.447V36.1904C154.436 35.8096 154.359 35.4521 154.219 35.1182C154.084 34.7842 153.876 34.5146 153.595 34.3096C153.313 34.1045 152.938 34.002 152.47 34.002C152.118 34.002 151.805 34.0781 151.529 34.2305C151.26 34.377 151.034 34.5908 150.853 34.8721C150.671 35.1533 150.53 35.4932 150.431 35.8916C150.337 36.2842 150.29 36.7266 150.29 37.2188V37.5703C150.29 37.9863 150.346 38.373 150.457 38.7305C150.574 39.082 150.744 39.3896 150.967 39.6533C151.189 39.917 151.459 40.125 151.775 40.2773C152.092 40.4238 152.452 40.4971 152.856 40.4971C153.366 40.4971 153.82 40.3945 154.219 40.1895C154.617 39.9844 154.963 39.6943 155.256 39.3193L156.372 40.4004C156.167 40.6992 155.9 40.9863 155.572 41.2617C155.244 41.5312 154.843 41.751 154.368 41.9209C153.899 42.0908 153.354 42.1758 152.733 42.1758ZM163.726 39.4248C163.726 39.2139 163.674 39.0234 163.568 38.8535C163.463 38.6777 163.261 38.5195 162.962 38.3789C162.669 38.2383 162.235 38.1094 161.661 37.9922C161.157 37.8809 160.694 37.749 160.272 37.5967C159.856 37.4385 159.499 37.248 159.2 37.0254C158.901 36.8027 158.67 36.5391 158.506 36.2344C158.342 35.9297 158.26 35.5781 158.26 35.1797C158.26 34.793 158.345 34.4268 158.514 34.0811C158.684 33.7354 158.928 33.4307 159.244 33.167C159.56 32.9033 159.944 32.6953 160.395 32.543C160.852 32.3906 161.362 32.3145 161.925 32.3145C162.721 32.3145 163.404 32.4492 163.972 32.7188C164.547 32.9824 164.986 33.3428 165.291 33.7998C165.596 34.251 165.748 34.7607 165.748 35.3291H163.63C163.63 35.0771 163.565 34.8428 163.436 34.626C163.313 34.4033 163.126 34.2246 162.874 34.0898C162.622 33.9492 162.305 33.8789 161.925 33.8789C161.561 33.8789 161.26 33.9375 161.019 34.0547C160.785 34.166 160.609 34.3125 160.492 34.4941C160.381 34.6758 160.325 34.875 160.325 35.0918C160.325 35.25 160.354 35.3936 160.413 35.5225C160.477 35.6455 160.583 35.7598 160.729 35.8652C160.876 35.9648 161.075 36.0586 161.327 36.1465C161.585 36.2344 161.907 36.3193 162.294 36.4014C163.02 36.5537 163.644 36.75 164.166 36.9902C164.693 37.2246 165.097 37.5293 165.379 37.9043C165.66 38.2734 165.801 38.7422 165.801 39.3105C165.801 39.7324 165.71 40.1191 165.528 40.4707C165.352 40.8164 165.095 41.1182 164.755 41.376C164.415 41.6279 164.008 41.8242 163.533 41.9648C163.064 42.1055 162.537 42.1758 161.951 42.1758C161.09 42.1758 160.36 42.0234 159.762 41.7188C159.165 41.4082 158.711 41.0127 158.4 40.5322C158.096 40.0459 157.943 39.542 157.943 39.0205H159.991C160.014 39.4131 160.123 39.7266 160.316 39.9609C160.515 40.1895 160.762 40.3564 161.054 40.4619C161.353 40.5615 161.661 40.6113 161.977 40.6113C162.358 40.6113 162.678 40.5615 162.935 40.4619C163.193 40.3564 163.389 40.2158 163.524 40.04C163.659 39.8584 163.726 39.6533 163.726 39.4248ZM172.214 32.4902V34.0371H166.853V32.4902H172.214ZM168.4 30.1611H170.518V39.3721C170.518 39.665 170.559 39.8906 170.641 40.0488C170.729 40.2012 170.849 40.3037 171.002 40.3564C171.154 40.4092 171.333 40.4355 171.538 40.4355C171.684 40.4355 171.825 40.4268 171.96 40.4092C172.094 40.3916 172.203 40.374 172.285 40.3564L172.294 41.9736C172.118 42.0264 171.913 42.0732 171.678 42.1143C171.45 42.1553 171.186 42.1758 170.887 42.1758C170.401 42.1758 169.97 42.0908 169.595 41.9209C169.22 41.7451 168.927 41.4609 168.716 41.0684C168.505 40.6758 168.4 40.1543 168.4 39.5039V30.1611ZM179.384 39.4248C179.384 39.2139 179.331 39.0234 179.226 38.8535C179.121 38.6777 178.918 38.5195 178.62 38.3789C178.327 38.2383 177.893 38.1094 177.319 37.9922C176.815 37.8809 176.352 37.749 175.93 37.5967C175.514 37.4385 175.157 37.248 174.858 37.0254C174.559 36.8027 174.328 36.5391 174.163 36.2344C173.999 35.9297 173.917 35.5781 173.917 35.1797C173.917 34.793 174.002 34.4268 174.172 34.0811C174.342 33.7354 174.585 33.4307 174.902 33.167C175.218 32.9033 175.602 32.6953 176.053 32.543C176.51 32.3906 177.02 32.3145 177.582 32.3145C178.379 32.3145 179.062 32.4492 179.63 32.7188C180.204 32.9824 180.644 33.3428 180.949 33.7998C181.253 34.251 181.406 34.7607 181.406 35.3291H179.287C179.287 35.0771 179.223 34.8428 179.094 34.626C178.971 34.4033 178.784 34.2246 178.532 34.0898C178.28 33.9492 177.963 33.8789 177.582 33.8789C177.219 33.8789 176.917 33.9375 176.677 34.0547C176.443 34.166 176.267 34.3125 176.15 34.4941C176.038 34.6758 175.983 34.875 175.983 35.0918C175.983 35.25 176.012 35.3936 176.071 35.5225C176.135 35.6455 176.241 35.7598 176.387 35.8652C176.534 35.9648 176.733 36.0586 176.985 36.1465C177.243 36.2344 177.565 36.3193 177.952 36.4014C178.678 36.5537 179.302 36.75 179.824 36.9902C180.351 37.2246 180.755 37.5293 181.037 37.9043C181.318 38.2734 181.458 38.7422 181.458 39.3105C181.458 39.7324 181.368 40.1191 181.186 40.4707C181.01 40.8164 180.752 41.1182 180.412 41.376C180.073 41.6279 179.665 41.8242 179.191 41.9648C178.722 42.1055 178.195 42.1758 177.609 42.1758C176.747 42.1758 176.018 42.0234 175.42 41.7188C174.823 41.4082 174.369 41.0127 174.058 40.5322C173.753 40.0459 173.601 39.542 173.601 39.0205H175.649C175.672 39.4131 175.781 39.7266 175.974 39.9609C176.173 40.1895 176.419 40.3564 176.712 40.4619C177.011 40.5615 177.319 40.6113 177.635 40.6113C178.016 40.6113 178.335 40.5615 178.593 40.4619C178.851 40.3564 179.047 40.2158 179.182 40.04C179.317 39.8584 179.384 39.6533 179.384 39.4248Z" fill="#E8E8E8"/>
<defs>
<clipPath id="clip0_4013_210060">
<rect width="24" height="24" fill="white" transform="translate(27 24)"/>
</clipPath>
</defs>
</svg>
