<svg width="24" height="24" viewBox="0 0 24 24" fill="none" xmlns="http://www.w3.org/2000/svg">
<g clip-path="url(#clip0_4013_210117)">
<path d="M0.75 12C0.75 14.9837 1.93526 17.8452 4.04505 19.955C6.15483 22.0647 9.01631 23.25 12 23.25C14.9837 23.25 17.8452 22.0647 19.955 19.955C22.0647 17.8452 23.25 14.9837 23.25 12C23.25 9.01631 22.0647 6.15483 19.955 4.04505C17.8452 1.93526 14.9837 0.75 12 0.75C9.01631 0.75 6.15483 1.93526 4.04505 4.04505C1.93526 6.15483 0.75 9.01631 0.75 12Z" stroke="#FFCA60" stroke-linecap="round" stroke-linejoin="round"/>
<path d="M5 20.8L6 15.75H7.08C7.30808 15.7508 7.53325 15.6988 7.73795 15.5982C7.94264 15.4976 8.1213 15.3511 8.26 15.17C8.40286 14.9931 8.50181 14.7849 8.54874 14.5624C8.59567 14.34 8.58925 14.1095 8.53 13.89L7.78 10.89C7.70141 10.5648 7.51563 10.2755 7.2526 10.0687C6.98957 9.86187 6.66459 9.74962 6.33 9.75H1" stroke="#FFCA60" stroke-linecap="round" stroke-linejoin="round"/>
<path d="M20.9992 5.25H16.9192C16.5846 5.24962 16.2596 5.36187 15.9966 5.56867C15.7335 5.77546 15.5478 6.06477 15.4692 6.39L14.7192 9.39C14.6613 9.6103 14.6565 9.84118 14.7051 10.0637C14.7538 10.2862 14.8546 10.494 14.9992 10.67C15.1379 10.8511 15.3165 10.9976 15.5212 11.0982C15.7259 11.1988 15.9511 11.2508 16.1792 11.25H17.7592L18.5392 16C18.5977 16.3463 18.7759 16.6611 19.0427 16.8896C19.3095 17.118 19.648 17.2455 19.9992 17.25H21.9992" stroke="#FFCA60" stroke-linecap="round" stroke-linejoin="round"/>
</g>
<defs>
<clipPath id="clip0_4013_210117">
<rect width="24" height="24" fill="white"/>
</clipPath>
</defs>
</svg>
