<svg width="24" height="24" viewBox="0 0 24 24" fill="none" xmlns="http://www.w3.org/2000/svg">
<g id="App Window Hammer">
<g id="Group">
<g id="Group_2">
<path id="Vector" d="M8.04024 13.7223L11.4772 10.2863C11.4772 10.2863 12.0072 9.75634 12.5372 10.2863L14.4752 12.2233C14.4752 12.2233 15.0052 12.7533 14.4752 13.2833L11.0392 16.7203C11.0392 16.7203 10.5092 17.2503 9.97924 16.7203L8.04024 14.7833C8.04024 14.7833 7.51024 14.2533 8.04024 13.7233" stroke="#FFCA60" stroke-linecap="round" stroke-linejoin="round"/>
<path id="Vector_2" d="M12.7617 15L16.5117 18.75" stroke="#FFCA60" stroke-linecap="round" stroke-linejoin="round"/>
</g>
<g id="Group_3">
<path id="Vector_3" d="M2.25 2H21.75C21.75 2 23.25 2 23.25 3.5V20.5C23.25 20.5 23.25 22 21.75 22H2.25C2.25 22 0.75 22 0.75 20.5V3.5C0.75 3.5 0.75 2 2.25 2Z" stroke="#FFCA60" stroke-linecap="round" stroke-linejoin="round"/>
<path id="Vector_4" d="M0.75 6.5H23.25" stroke="#FFCA60" stroke-linecap="round" stroke-linejoin="round"/>
</g>
</g>
</g>
</svg>
