<svg width="12" height="12" viewBox="0 0 12 12" fill="none" xmlns="http://www.w3.org/2000/svg">
<g id="Image Picture Landscape 1" clip-path="url(#clip0_5420_26262)">
<path id="Vector" d="M9.95156 0.601562H1.55156C1.2333 0.601563 0.928078 0.727991 0.703034 0.953034C0.477991 1.17808 0.351563 1.4833 0.351562 1.80156V10.2016C0.351563 10.5198 0.477991 10.825 0.703034 11.0501C0.928078 11.2751 1.2333 11.4016 1.55156 11.4016H9.95156C10.2698 11.4016 10.575 11.2751 10.8001 11.0501C11.0251 10.825 11.1516 10.5198 11.1516 10.2016V1.80156C11.1516 1.4833 11.0251 1.17808 10.8001 0.953034C10.575 0.727991 10.2698 0.601563 9.95156 0.601562Z" stroke="#E8E8E8" stroke-linecap="round" stroke-linejoin="round"/>
<path id="Vector_2" d="M7.55156 5.4C7.86982 5.4 8.17505 5.27357 8.40009 5.04853C8.62513 4.82348 8.75156 4.51826 8.75156 4.2C8.75156 3.88174 8.62513 3.57652 8.40009 3.35147C8.17505 3.12643 7.86982 3 7.55156 3C7.2333 3 6.92808 3.12643 6.70303 3.35147C6.47799 3.57652 6.35156 3.88174 6.35156 4.2C6.35156 4.51826 6.47799 4.82348 6.70303 5.04853C6.92808 5.27357 7.2333 5.4 7.55156 5.4Z" stroke="#E8E8E8" stroke-linecap="round" stroke-linejoin="round"/>
<path id="Vector_3" d="M7.73996 11.401C7.47295 9.97222 6.70525 8.68542 5.57474 7.77178C4.44423 6.85813 3.02499 6.37751 1.57196 6.41623C1.16276 6.41623 0.753563 6.45223 0.351562 6.52783" stroke="#E8E8E8" stroke-linecap="round" stroke-linejoin="round"/>
<path id="Vector_4" d="M11.1525 7.99858C10.4745 7.77306 9.76456 7.65878 9.05009 7.66018C8.05616 7.65729 7.0746 7.88052 6.17969 8.31298" stroke="#E8E8E8" stroke-linecap="round" stroke-linejoin="round"/>
</g>
<defs>
<clipPath id="clip0_5420_26262">
<rect width="12" height="12" fill="white"/>
</clipPath>
</defs>
</svg>
