<svg width="24" height="24" viewBox="0 0 24 24" fill="none" xmlns="http://www.w3.org/2000/svg">
<g clip-path="url(#clip0_4013_210064)">
<path d="M14.8867 3C12.5962 1.67584 10.0279 0.905346 7.38672 0.75C4.38672 0.75 3.63672 2.25 3.63672 3.75C3.63672 5.407 4.31172 6.75 5.88672 6.75H14.8867C16.1867 6.75 17.1367 6.623 17.1367 5.25C17.1803 4.94437 17.1522 4.63279 17.0545 4.33992C16.9569 4.04704 16.7924 3.78092 16.5741 3.56262C16.3558 3.34432 16.0897 3.17984 15.7968 3.08218C15.5039 2.98453 15.1923 2.95639 14.8867 3Z" stroke="#FFCA60" stroke-linecap="round" stroke-linejoin="round"/>
<path d="M14.8867 3C14.8867 2.40326 15.1238 1.83097 15.5457 1.40901C15.9677 0.987053 16.54 0.75 17.1367 0.75" stroke="#FFCA60" stroke-linecap="round" stroke-linejoin="round"/>
<path d="M7.5 13.998C5.95956 14.6407 4.53047 15.685 3.5 16.998C2.46953 18.3111 1.00808 21.599 0.75 23.248" stroke="#FFCA60" stroke-linecap="round" stroke-linejoin="round"/>
<path d="M22.8245 13.3827C22.6709 13.6391 22.4677 13.8623 22.2268 14.0393C21.986 14.2163 21.7123 14.3435 21.4217 14.4135C21.1311 14.4835 20.8295 14.495 20.5345 14.4472C20.2395 14.3993 19.9569 14.2932 19.7033 14.135C19.4498 13.9767 19.2303 13.7695 19.0577 13.5255C18.8851 13.2815 18.7628 13.0056 18.698 12.7138C18.6332 12.422 18.6272 12.1202 18.6804 11.8261C18.7335 11.532 18.8447 11.2514 19.0075 11.0007C19.8015 9.72872 21.7075 10.9207 22.9025 9.01172C22.9015 9.00972 23.4825 12.3287 22.8245 13.3827Z" stroke="#FFCA60" stroke-linecap="round" stroke-linejoin="round"/>
<path d="M19.7214 14.1007C19.4804 13.9505 19.2106 13.8525 18.9294 13.8129C18.6482 13.7733 18.3618 13.7929 18.0886 13.8706C17.8155 13.9483 17.5616 14.0824 17.3434 14.2641C17.1251 14.4458 16.9473 14.6711 16.8214 14.9257L13.5594 20.8607C13.3764 21.2296 13.3373 21.6535 13.4496 22.0497C13.5619 22.4459 13.8177 22.7861 14.1671 23.0041C14.5165 23.2221 14.9345 23.3023 15.3398 23.229C15.745 23.1557 16.1085 22.9342 16.3594 22.6077L20.2594 17.0727C20.4331 16.8473 20.5577 16.5879 20.625 16.3114C20.6923 16.0349 20.7008 15.7473 20.6502 15.4673C20.5995 15.1872 20.4906 14.9209 20.3306 14.6855C20.1707 14.4501 19.9631 14.2509 19.7214 14.1007Z" stroke="#FFCA60" stroke-linecap="round" stroke-linejoin="round"/>
<path d="M5.20122 6.65234C5.07931 7.40013 5.1207 8.16545 5.32254 8.89573C5.52438 9.62601 5.8819 10.3039 6.37054 10.883C6.85918 11.462 7.46736 11.9284 8.15331 12.2502C8.83925 12.5719 9.58671 12.7414 10.3444 12.747C11.102 12.7525 11.8519 12.594 12.5424 12.2823C13.233 11.9707 13.848 11.5132 14.3451 10.9414C14.8421 10.3696 15.2095 9.69695 15.4221 8.96971C15.6346 8.24247 15.6872 7.47784 15.5762 6.72834" stroke="#FFCA60" stroke-linecap="round" stroke-linejoin="round"/>
</g>
<defs>
<clipPath id="clip0_4013_210064">
<rect width="24" height="24" fill="white"/>
</clipPath>
</defs>
</svg>
