<svg width="24" height="24" viewBox="0 0 24 24" fill="none" xmlns="http://www.w3.org/2000/svg">
<g clip-path="url(#clip0_4013_210128)">
<path d="M22.7917 14.5209C22.978 14.7083 23.0825 14.9618 23.0825 15.2259C23.0825 15.4901 22.978 15.7436 22.7917 15.9309L15.7217 23.0009C15.5344 23.1872 15.2809 23.2917 15.0167 23.2917C14.7525 23.2917 14.4991 23.1872 14.3117 23.0009L1.21172 9.91094C0.794301 9.4349 0.547922 8.83303 0.511719 8.20094V1.71094C0.511719 1.44572 0.617076 1.19137 0.804612 1.00383C0.992148 0.816294 1.2465 0.710938 1.51172 0.710938H8.00172C8.63486 0.74248 9.2382 0.989463 9.71172 1.41094L22.7917 14.5209Z" stroke="#FFCA60" stroke-linecap="round" stroke-linejoin="round"/>
<path d="M3.5 5.71094C3.5 6.24137 3.71071 6.75008 4.08579 7.12515C4.46086 7.50022 4.96957 7.71094 5.5 7.71094C6.03043 7.71094 6.53914 7.50022 6.91421 7.12515C7.28929 6.75008 7.5 6.24137 7.5 5.71094C7.5 5.1805 7.28929 4.6718 6.91421 4.29672C6.53914 3.92165 6.03043 3.71094 5.5 3.71094C4.96957 3.71094 4.46086 3.92165 4.08579 4.29672C3.71071 4.6718 3.5 5.1805 3.5 5.71094Z" stroke="#FFCA60" stroke-linecap="round" stroke-linejoin="round"/>
</g>
<defs>
<clipPath id="clip0_4013_210128">
<rect width="24" height="24" fill="white"/>
</clipPath>
</defs>
</svg>
