<svg width="20" height="20" viewBox="0 0 20 20" fill="none" xmlns="http://www.w3.org/2000/svg">
<g id="Tools AR Kit">
<path id="Vector" d="M7.40625 7.8894L9.99824 9.25361L12.5902 7.8894" stroke="#E8E8E8" stroke-linecap="round" stroke-linejoin="round"/>
<path id="Vector_2" d="M1.98047 5.03296L5.05343 6.65031" stroke="#E8E8E8" stroke-linecap="round" stroke-linejoin="round"/>
<path id="Vector_3" d="M18.0182 5.03296L14.9453 6.65031" stroke="#E8E8E8" stroke-linecap="round" stroke-linejoin="round"/>
<path id="Vector_4" d="M10 0.751953V4.39384" stroke="#E8E8E8" stroke-linecap="round" stroke-linejoin="round"/>
<path id="Vector_5" d="M10 9.26904V12.3911" stroke="#E8E8E8" stroke-linecap="round" stroke-linejoin="round"/>
<path id="Vector_6" d="M10 15.6738V19.248" stroke="#E8E8E8" stroke-linecap="round" stroke-linejoin="round"/>
<path id="Vector_7" d="M1.98047 11.7405V15.1075L4.99174 16.6924" stroke="#E8E8E8" stroke-linecap="round" stroke-linejoin="round"/>
<path id="Vector_8" d="M5.05344 13.4783L1.98047 15.0956" stroke="#E8E8E8" stroke-linecap="round" stroke-linejoin="round"/>
<path id="Vector_9" d="M14.9453 13.4783L18.0183 15.0956" stroke="#E8E8E8" stroke-linecap="round" stroke-linejoin="round"/>
<path id="Vector_10" d="M4.99174 3.39282L1.98047 4.9777V8.55349" stroke="#E8E8E8" stroke-linecap="round" stroke-linejoin="round"/>
<path id="Vector_11" d="M7.21484 2.22201L9.9982 0.75708L12.7815 2.22201" stroke="#E8E8E8" stroke-linecap="round" stroke-linejoin="round"/>
<path id="Vector_12" d="M15.0078 3.39282L18.0191 4.9777V8.55349" stroke="#E8E8E8" stroke-linecap="round" stroke-linejoin="round"/>
<path id="Vector_13" d="M18.0191 11.7405V15.1075L15.0078 16.6924" stroke="#E8E8E8" stroke-linecap="round" stroke-linejoin="round"/>
<path id="Vector_14" d="M7.21484 17.7725L9.9982 19.2374L12.7815 17.7725" stroke="#E8E8E8" stroke-linecap="round" stroke-linejoin="round"/>
</g>
</svg>
