<svg width="18" height="18" viewBox="0 0 18 18" fill="none" xmlns="http://www.w3.org/2000/svg">
<g id="bell-notification--alert-bell-ring-notification-alarm">
<path id="Ellipse 85" d="M7.26172 15.9844C7.42994 16.2911 7.68051 16.5475 7.98667 16.7263C8.29284 16.905 8.6431 16.9995 9.00007 16.9995C9.35703 16.9995 9.7073 16.905 10.0135 16.7263C10.3196 16.5475 10.5702 16.2911 10.7384 15.9844" stroke="#D3D3D3" stroke-linecap="round" stroke-linejoin="round"/>
<path id="Vector" d="M5.40268 2.45158C6.1142 1.75848 7.02074 1.28647 8.00766 1.09524C8.99459 0.904003 10.0176 1.00214 10.9472 1.37724C11.8769 1.75234 12.6715 2.38755 13.2305 3.20254C13.7895 4.01753 14.0879 4.9757 14.0878 5.95586C14.0878 6.7289 14.2192 7.45459 14.4163 8.19819C14.4702 8.36713 14.532 8.52584 14.5963 8.67558C14.9012 9.37311 15.7408 9.61244 16.3675 10.063C17.3018 10.7374 17.1217 12.1799 16.3439 12.7404C16.3439 12.7404 15.0878 13.7989 9.00026 13.7989C2.91145 13.7989 1.65663 12.7404 1.65663 12.7404C0.878774 12.1799 0.69745 10.7374 1.63298 10.063C2.25973 9.61244 3.09934 9.37311 3.40417 8.67558C3.7077 7.97933 3.91267 7.08854 3.91267 5.95586C3.91267 4.64144 4.44876 3.38077 5.40268 2.45158Z" stroke="#D3D3D3" stroke-linecap="round" stroke-linejoin="round"/>
</g>
</svg>
