<svg width="21" height="20" viewBox="0 0 21 20" fill="none" xmlns="http://www.w3.org/2000/svg">
<g id="Chat Bubble Typing Oval">
<path id="Vector" d="M10.5042 1C8.86759 1.00055 7.26197 1.44669 5.85964 2.29056C4.45731 3.13442 3.31119 4.34417 2.54425 5.79C1.77983 7.23545 1.42514 8.86239 1.51856 10.4949C1.61197 12.1273 2.14993 13.7032 3.07425 15.052L1.50425 19L5.70425 17.584C6.88462 18.3244 8.22061 18.781 9.60724 18.918C10.9939 19.0549 12.3934 18.8685 13.6958 18.3733C14.9982 17.8781 16.168 17.0877 17.1134 16.0641C18.0588 15.0405 18.7539 13.8116 19.1442 12.474C19.5314 11.1367 19.6017 9.7277 19.3497 8.35855C19.0976 6.98939 18.5302 5.69775 17.6922 4.586C16.8539 3.4722 15.7682 2.56848 14.5207 1.94615C13.2733 1.32382 11.8983 0.99992 10.5042 1Z" stroke="#FFFAEF" stroke-linecap="round" stroke-linejoin="round"/>
</g>
</svg>
