<svg width="20" height="20" viewBox="0 0 20 20" fill="none" xmlns="http://www.w3.org/2000/svg">
<g id="Expand 5" clip-path="url(#clip0_4746_8389)">
<path id="Vector" d="M6.2513 5.41577H13.7513C13.7513 5.41577 14.5846 5.41577 14.5846 6.2491V13.7491C14.5846 13.7491 14.5846 14.5824 13.7513 14.5824H6.2513C6.2513 14.5824 5.41797 14.5824 5.41797 13.7491V6.2491C5.41797 6.2491 5.41797 5.41577 6.2513 5.41577Z" stroke="#E8E8E8" stroke-linecap="round" stroke-linejoin="round"/>
<path id="Vector_2" d="M16.25 3.7491L19.5833 0.415771" stroke="#E8E8E8" stroke-linecap="round" stroke-linejoin="round"/>
<path id="Vector_3" d="M0.417969 19.5826L3.7513 16.2493" stroke="#E8E8E8" stroke-linecap="round" stroke-linejoin="round"/>
<path id="Vector_4" d="M4.58464 19.5824H0.417969V15.4158" stroke="#E8E8E8" stroke-linecap="round" stroke-linejoin="round"/>
<path id="Vector_5" d="M19.5846 4.58244V0.415771H15.418" stroke="#E8E8E8" stroke-linecap="round" stroke-linejoin="round"/>
<path id="Vector_6" d="M16.25 16.2476L19.5833 19.5826" stroke="#E8E8E8" stroke-linecap="round" stroke-linejoin="round"/>
<path id="Vector_7" d="M0.417969 0.415771L3.7513 3.7491" stroke="#E8E8E8" stroke-linecap="round" stroke-linejoin="round"/>
<path id="Vector_8" d="M0.417969 4.58244V0.415771H4.58464" stroke="#E8E8E8" stroke-linecap="round" stroke-linejoin="round"/>
<path id="Vector_9" d="M15.418 19.5824H19.5846V15.4158" stroke="#E8E8E8" stroke-linecap="round" stroke-linejoin="round"/>
</g>
<defs>
<clipPath id="clip0_4746_8389">
<rect width="20" height="20" fill="white"/>
</clipPath>
</defs>
</svg>
