<svg width="20" height="20" viewBox="0 0 20 20" fill="none" xmlns="http://www.w3.org/2000/svg">
<g id="Location Pin">
<g id="location-pin--navigation-map-maps-pin-gps-location">
<path id="Vector" d="M10.827 18.2515C12.6484 16.673 16.8542 12.5301 16.8542 7.92439C16.8542 6.1069 16.1322 4.36385 14.847 3.07869C13.5618 1.79353 11.8188 1.07153 10.0013 1.07153C8.1838 1.07153 6.44075 1.79353 5.15559 3.07869C3.87043 4.36385 3.14844 6.1069 3.14844 7.92439C3.14844 12.5301 7.35415 16.673 9.17701 18.253C9.65415 18.6672 10.3484 18.6672 10.827 18.253V18.2515Z" stroke="#E8E8E8" stroke-linecap="round" stroke-linejoin="round"/>
<path id="Vector_2" d="M10.0008 9.66298C10.5687 9.66298 11.1134 9.43737 11.515 9.03577C11.9166 8.63418 12.1422 8.0895 12.1422 7.52156C12.1422 6.95361 11.9166 6.40893 11.515 6.00734C11.1134 5.60574 10.5687 5.38013 10.0008 5.38013C9.43286 5.38013 8.88818 5.60574 8.48658 6.00734C8.08499 6.40893 7.85938 6.95361 7.85938 7.52156C7.85938 8.0895 8.08499 8.63418 8.48658 9.03577C8.88818 9.43737 9.43286 9.66298 10.0008 9.66298Z" stroke="#E8E8E8" stroke-linecap="round" stroke-linejoin="round"/>
</g>
</g>
</svg>
