<svg width="24" height="24" viewBox="0 0 24 24" fill="none" xmlns="http://www.w3.org/2000/svg">
<g id="User Experience Design">
<path id="Vector" d="M11.7653 13.5384C12.9431 13.5384 13.8978 12.5837 13.8978 11.4059C13.8978 10.2282 12.9431 9.27344 11.7653 9.27344C10.5876 9.27344 9.63281 10.2282 9.63281 11.4059C9.63281 12.5837 10.5876 13.5384 11.7653 13.5384Z" stroke="#E8E8E8" stroke-miterlimit="10" stroke-linecap="round" stroke-linejoin="round"/>
<path id="Vector_2" d="M15.3395 16.8564C14.8725 15.3267 13.4265 14.1797 11.7654 14.1797C10.1044 14.1797 8.65832 15.3267 8.19141 16.8564" stroke="#E8E8E8" stroke-miterlimit="10" stroke-linecap="round" stroke-linejoin="round"/>
<path id="Vector_3" d="M21.1488 13.062C21.1488 9.86764 19.5526 7.04613 17.1143 5.35156M6.41735 5.35156C3.97903 7.04613 2.38281 9.86764 2.38281 13.062C2.38281 13.3702 2.39767 13.675 2.42672 13.9756M13.848 22.2131C13.1783 22.3648 12.4814 22.445 11.7658 22.445C10.2904 22.445 8.89446 22.1044 7.65242 21.4976" stroke="#E8E8E8" stroke-linecap="round"/>
<path id="Vector_4" d="M0.941406 18.8908C0.941406 19.556 1.20564 20.1939 1.67598 20.6642C2.14632 21.1346 2.78424 21.3988 3.44941 21.3988C4.11457 21.3988 4.75249 21.1346 5.22283 20.6642C5.69317 20.1939 5.95741 19.556 5.95741 18.8908C5.95741 18.2256 5.69317 17.5877 5.22283 17.1174C4.75249 16.647 4.11457 16.3828 3.44941 16.3828C2.78424 16.3828 2.14632 16.647 1.67598 17.1174C1.20564 17.5877 0.941406 18.2256 0.941406 18.8908Z" stroke="#E8E8E8"/>
<path id="Vector_5" d="M14.129 6.28113H9.40234V1.55444H14.129V6.28113Z" stroke="#E8E8E8" stroke-linejoin="round"/>
<path id="Vector_6" d="M16.9922 21.3474L20.0268 16.1641L23.0614 21.3474H16.9922Z" stroke="#E8E8E8" stroke-linecap="round" stroke-linejoin="round"/>
</g>
</svg>
