<svg width="20" height="20" viewBox="0 0 20 20" fill="none" xmlns="http://www.w3.org/2000/svg">
<g id="Video Collage" clip-path="url(#clip0_4746_4806)">
<path id="Vector" d="M7.8125 17.4969C7.8125 18.4173 8.55868 19.1636 9.47918 19.1636H14.6407C15.5612 19.1636 16.3073 18.4173 16.3073 17.4969V16.795C16.3588 16.8439 16.417 16.8867 16.481 16.9217L17.946 17.7242C18.5013 18.0284 19.1797 17.6266 19.1797 16.9933V13.9007C19.1797 13.2675 18.5013 12.8657 17.946 13.1698L16.481 13.9723C16.417 14.0074 16.3588 14.0502 16.3073 14.0991V13.3959C16.3073 12.4754 15.5612 11.7292 14.6407 11.7292H9.47918C8.55868 11.7292 7.8125 12.4754 7.8125 13.3959V17.4969Z" stroke="#E8E8E8" stroke-linecap="round" stroke-linejoin="round"/>
<path id="Vector_2" d="M15.0733 9.59612V2.50212C15.0733 1.58164 14.327 0.835449 13.4066 0.835449H2.48698C1.5665 0.835449 0.820312 1.58164 0.820312 2.50212V13.2218C0.820313 14.1423 1.5665 14.8885 2.48698 14.8885H5.63633" stroke="#E8E8E8" stroke-linecap="round" stroke-linejoin="round"/>
<path id="Vector_3" d="M7.8125 0.835693V9.59542" stroke="#E8E8E8" stroke-linecap="round" stroke-linejoin="round"/>
<path id="Vector_4" d="M15.0749 7.86206H0.820312" stroke="#E8E8E8" stroke-linecap="round" stroke-linejoin="round"/>
</g>
<defs>
<clipPath id="clip0_4746_4806">
<rect width="20" height="20" fill="white"/>
</clipPath>
</defs>
</svg>
