<svg width="31" height="31" viewBox="0 0 31 31" fill="none" xmlns="http://www.w3.org/2000/svg">
<g id="Icon/Backspace">
<g id="Union">
<path d="M13.5854 9.65499L18.1413 13.9939L22.6972 9.65499L24.0751 11.1019L19.5899 15.3735L24.0751 19.6452L22.6972 21.0921L18.1413 16.7531L13.5854 21.0921L12.2074 19.6452L16.6927 15.3735L12.2074 11.1019L13.5854 9.65499Z" fill="#DADCE0"/>
<path fill-rule="evenodd" clip-rule="evenodd" d="M9.49753 5.3833C9.12759 5.3833 8.77836 5.5541 8.55124 5.84612L1.71347 14.6375C1.37676 15.0704 1.37676 15.6766 1.71347 16.1096L8.55124 24.901C8.77836 25.193 9.12758 25.3638 9.49753 25.3638H28.1815C28.8436 25.3638 29.3803 24.8271 29.3803 24.165V6.58213C29.3803 5.92003 28.8436 5.3833 28.1815 5.3833H9.49753ZM3.67227 15.3735L9.88842 7.38135H27.3823V23.3657H9.88842L3.67227 15.3735Z" fill="#DADCE0"/>
</g>
</g>
</svg>
