<svg width="20" height="21" viewBox="0 0 20 21" fill="none" xmlns="http://www.w3.org/2000/svg">
<g id="Package Dimension" clip-path="url(#clip0_5101_6450)">
<g id="package-dimension--package-dimension-size-measurements-height-width-box-parcel">
<path id="vector 1265" d="M13.572 3.02271H0.714844" stroke="#E887D3" stroke-linecap="round" stroke-linejoin="round"/>
<path id="Vector 3164" d="M17.8594 7.30859V20.1657" stroke="#E887D3" stroke-linecap="round" stroke-linejoin="round"/>
<path id="Vector 3165" d="M0.714844 8.73717V18.7372C0.714844 19.116 0.865354 19.4794 1.13326 19.7473C1.40117 20.0152 1.76453 20.1657 2.14342 20.1657H12.1434C12.5223 20.1657 12.8857 20.0152 13.1536 19.7473C13.4215 19.4794 13.572 19.116 13.572 18.7372V8.73717C13.572 8.35828 13.4215 7.99492 13.1536 7.72701C12.8857 7.4591 12.5223 7.30859 12.1434 7.30859H2.14342C1.76453 7.30859 1.40117 7.4591 1.13326 7.72701C0.865354 7.99492 0.714844 8.35828 0.714844 8.73717Z" stroke="#E887D3" stroke-linecap="round" stroke-linejoin="round"/>
<path id="Vector 3166" d="M5 7.30859V11.5943H9.28571V7.30859" stroke="#E887D3" stroke-linecap="round" stroke-linejoin="round"/>
<path id="Vector 3177" d="M0.714844 1.59424V4.45138" stroke="#E887D3" stroke-linecap="round" stroke-linejoin="round"/>
<path id="Vector 3178" d="M13.5703 1.59424V4.45138" stroke="#E887D3" stroke-linecap="round" stroke-linejoin="round"/>
<path id="Vector 3179" d="M16.4297 7.30859H19.2868" stroke="#E887D3" stroke-linecap="round" stroke-linejoin="round"/>
<path id="Vector 3180" d="M16.4297 20.1658H19.2868" stroke="#E887D3" stroke-linecap="round" stroke-linejoin="round"/>
</g>
</g>
<defs>
<clipPath id="clip0_5101_6450">
<rect width="20" height="20" fill="white" transform="translate(0 0.879883)"/>
</clipPath>
</defs>
</svg>
