<svg width="20" height="21" viewBox="0 0 20 21" fill="none" xmlns="http://www.w3.org/2000/svg">
<g id="Move Back">
<path id="Vector" d="M4.5151 14.555C4.63158 14.6692 4.77901 14.7467 4.93912 14.7779C5.09923 14.8091 5.26498 14.7926 5.41581 14.7305C5.56665 14.6684 5.69594 14.5634 5.78765 14.4285C5.87937 14.2936 5.92948 14.1348 5.93177 13.9717V11.23C5.93177 11.1747 5.95372 11.1218 5.99279 11.0827C6.03186 11.0436 6.08485 11.0217 6.1401 11.0217H17.4318C17.487 11.0217 17.54 11.0436 17.5791 11.0827C17.6182 11.1218 17.6401 11.1747 17.6401 11.23V15.5633C17.6401 15.8396 17.7499 16.1046 17.9452 16.2999C18.1406 16.4953 18.4055 16.605 18.6818 16.605C18.958 16.605 19.223 16.4953 19.4183 16.2999C19.6137 16.1046 19.7234 15.8396 19.7234 15.5633V9.98C19.7234 9.70374 19.6137 9.43878 19.4183 9.24343C19.223 9.04808 18.958 8.93834 18.6818 8.93834H6.18177C6.12718 8.93627 6.07538 8.91366 6.03674 8.87503C5.99811 8.8364 5.9755 8.7846 5.97344 8.73V5.98C5.9733 5.81643 5.92503 5.65651 5.83464 5.52018C5.74425 5.38384 5.61573 5.27713 5.4651 5.21334C5.31256 5.15056 5.14481 5.13447 4.98311 5.16711C4.82141 5.19974 4.67303 5.27964 4.55677 5.39667L0.523438 9.38834C0.444697 9.46552 0.382056 9.55755 0.339142 9.65912C0.296228 9.76068 0.273895 9.86975 0.273438 9.98C0.276568 10.1998 0.366426 10.4095 0.523438 10.5633L4.5151 14.555Z" fill="#E8E8E8"/>
</g>
</svg>
