<svg width="14" height="18" viewBox="0 0 14 18" fill="none" xmlns="http://www.w3.org/2000/svg">
<g id="Group 484860">
<path id="Vector" d="M7.22266 15.1021V16.8798" stroke="#E8B857" stroke-linecap="round" stroke-linejoin="round"/>
<path id="Vector_2" d="M13.4443 7.10156V8.87932C13.4443 9.69643 13.2834 10.5055 12.9707 11.2604C12.658 12.0154 12.1997 12.7013 11.6219 13.2791C11.0441 13.8568 10.3582 14.3152 9.60329 14.6279C8.84838 14.9406 8.03927 15.1015 7.22217 15.1015C6.40506 15.1015 5.59595 14.9406 4.84105 14.6279C4.08614 14.3152 3.40021 13.8568 2.82243 13.2791C2.24465 12.7013 1.78633 12.0154 1.47363 11.2604C1.16094 10.5055 1 9.69643 1 8.87932V7.10156" stroke="#E8B857" stroke-linecap="round" stroke-linejoin="round"/>
<path id="Vector_3" d="M4.55469 8.87981C4.55469 9.58705 4.83564 10.2653 5.33573 10.7654C5.83582 11.2655 6.51409 11.5465 7.22133 11.5465C7.92857 11.5465 8.60684 11.2655 9.10693 10.7654C9.60702 10.2653 9.88797 9.58705 9.88797 8.87981V3.54653C9.88797 2.83929 9.60702 2.16102 9.10693 1.66092C8.60684 1.16083 7.92857 0.879883 7.22133 0.879883C6.51409 0.879883 5.83582 1.16083 5.33573 1.66092C4.83564 2.16102 4.55469 2.83929 4.55469 3.54653V8.87981Z" stroke="#E8B857" stroke-linecap="round" stroke-linejoin="round"/>
</g>
</svg>
