<svg width="20" height="21" viewBox="0 0 20 21" fill="none" xmlns="http://www.w3.org/2000/svg">
<g id="Paint Palette" clip-path="url(#clip0_5101_6442)">
<g id="paint-palette--color-colors-design-paint-painting-palette">
<path id="Subtract" d="M15.9608 12.767C17.6479 12.7665 18.9046 11.3786 18.6608 9.70947C18.0542 5.56155 14.4383 2.12988 10.0021 2.12988C5.16792 2.12988 1.25 6.04738 1.25 10.8799C1.25 15.7124 5.16833 19.6299 10.0021 19.6299C11.3117 19.6299 12.2854 19.3615 12.4754 18.5836C12.6658 17.8053 12.4067 17.5961 11.5242 15.4453C11.0729 14.3453 11.5633 13.3328 12.2854 12.9724C12.9713 12.6295 14.4808 12.7674 15.9608 12.767Z" stroke="#E887D3" stroke-linecap="round" stroke-linejoin="round"/>
<path id="Ellipse 166" d="M9.58203 6.71322C9.58203 7.26575 9.80152 7.79565 10.1922 8.18636C10.5829 8.57706 11.1128 8.79655 11.6654 8.79655C12.2179 8.79655 12.7478 8.57706 13.1385 8.18636C13.5292 7.79565 13.7487 7.26575 13.7487 6.71322C13.7487 6.16068 13.5292 5.63078 13.1385 5.24008C12.7478 4.84938 12.2179 4.62988 11.6654 4.62988C11.1128 4.62988 10.5829 4.84938 10.1922 5.24008C9.80152 5.63078 9.58203 6.16068 9.58203 6.71322Z" stroke="#E887D3" stroke-linecap="round" stroke-linejoin="round"/>
<path id="Ellipse 167" d="M4.16797 9.83813C4.16797 10.3354 4.36551 10.8123 4.71714 11.164C5.06877 11.5156 5.54569 11.7131 6.04297 11.7131C6.54025 11.7131 7.01716 11.5156 7.36879 11.164C7.72042 10.8123 7.91797 10.3354 7.91797 9.83813C7.91797 9.34085 7.72042 8.86394 7.36879 8.51231C7.01716 8.16068 6.54025 7.96313 6.04297 7.96313C5.54569 7.96313 5.06877 8.16068 4.71714 8.51231C4.36551 8.86394 4.16797 9.34085 4.16797 9.83813Z" stroke="#E887D3" stroke-linecap="round" stroke-linejoin="round"/>
<path id="Ellipse 168" d="M6.25 15.255C6.25 15.6417 6.40365 16.0127 6.67714 16.2862C6.95063 16.5597 7.32156 16.7133 7.70833 16.7133C8.09511 16.7133 8.46604 16.5597 8.73953 16.2862C9.01302 16.0127 9.16667 15.6417 9.16667 15.255C9.16667 14.8682 9.01302 14.4973 8.73953 14.2238C8.46604 13.9503 8.09511 13.7966 7.70833 13.7966C7.32156 13.7966 6.95063 13.9503 6.67714 14.2238C6.40365 14.4973 6.25 14.8682 6.25 15.255Z" stroke="#E887D3" stroke-linecap="round" stroke-linejoin="round"/>
</g>
</g>
<defs>
<clipPath id="clip0_5101_6442">
<rect width="20" height="20" fill="white" transform="translate(0 0.879883)"/>
</clipPath>
</defs>
</svg>
