<svg width="8" height="9" viewBox="0 0 8 9" fill="none" xmlns="http://www.w3.org/2000/svg">
<path id="Vector" d="M7.78925 0.974946C7.73618 0.93633 7.67598 0.908616 7.61213 0.893405C7.54829 0.878194 7.48206 0.875789 7.41728 0.886327C7.3525 0.896866 7.29045 0.920139 7.23472 0.954803C7.17898 0.989467 7.13067 1.03483 7.09258 1.08828L2.41591 7.61161L0.85258 6.04828C0.757797 5.95996 0.632432 5.91188 0.502898 5.91416C0.373364 5.91645 0.249774 5.96892 0.158165 6.06053C0.0665568 6.15214 0.0140821 6.27573 0.0117966 6.40526C0.00951117 6.5348 0.0575933 6.66016 0.145913 6.75495L2.12258 8.73495C2.17474 8.78466 2.23684 8.82276 2.30479 8.84673C2.37274 8.8707 2.445 8.88 2.51681 8.87402C2.58862 8.86803 2.65834 8.8469 2.72139 8.81201C2.78443 8.77713 2.83937 8.72927 2.88258 8.67161L7.90591 1.67161C7.94436 1.61834 7.97186 1.55797 7.98681 1.494C8.00176 1.43002 8.00387 1.36372 7.99302 1.29892C7.98217 1.23413 7.95857 1.17213 7.9236 1.11652C7.88862 1.06091 7.84295 1.01279 7.78925 0.974946Z" fill="#D3D3D3"/>
</svg>
