<svg width="44" height="26" viewBox="0 0 44 26" fill="none" xmlns="http://www.w3.org/2000/svg">
<g id="Mastercard">
<path id="Left" fill-rule="evenodd" clip-rule="evenodd" d="M21.8404 22.8934C19.5768 24.8135 16.6404 25.9727 13.4318 25.9727C6.27252 25.9727 0.46875 20.2018 0.46875 13.083C0.46875 5.96425 6.27252 0.193359 13.4318 0.193359C16.6404 0.193359 19.5768 1.35249 21.8404 3.27259C24.104 1.35249 27.0404 0.193359 30.249 0.193359C37.4083 0.193359 43.212 5.96425 43.212 13.083C43.212 20.2018 37.4083 25.9727 30.249 25.9727C27.0404 25.9727 24.104 24.8135 21.8404 22.8934Z" fill="#FF0007"/>
<path id="Right" fill-rule="evenodd" clip-rule="evenodd" d="M21.8398 22.8936C24.6272 20.5294 26.3946 17.0115 26.3946 13.083C26.3946 9.15456 24.6272 5.63658 21.8398 3.27238C24.1034 1.3524 27.0397 0.193359 30.2482 0.193359C37.4075 0.193359 43.2113 5.96425 43.2113 13.083C43.2113 20.2018 37.4075 25.9727 30.2482 25.9727C27.0397 25.9727 24.1034 24.8136 21.8398 22.8936Z" fill="#F9A000"/>
<path id="Middle" fill-rule="evenodd" clip-rule="evenodd" d="M21.8396 22.8942C24.6268 20.53 26.3941 17.0121 26.3941 13.0838C26.3941 9.15551 24.6268 5.63764 21.8396 3.27344C19.0525 5.63764 17.2852 9.15551 17.2852 13.0838C17.2852 17.0121 19.0525 20.53 21.8396 22.8942Z" fill="#FF5E00"/>
</g>
</svg>
