<svg width="82" height="57" viewBox="0 0 82 57" fill="none" xmlns="http://www.w3.org/2000/svg">
<g id="Payment Method" filter="url(#filter0_d_4013_217529)">
<path id="visa-logo" fill-rule="evenodd" clip-rule="evenodd" d="M25.9918 37.2343H21.1146L17.4573 23.1473C17.2837 22.4993 16.9151 21.9264 16.3729 21.6564C15.0199 20.9779 13.5289 20.4379 11.9023 20.1656V19.6232H19.7591C20.8435 19.6232 21.6567 20.4379 21.7923 21.3841L23.6899 31.5455L28.5647 19.6232H33.3064L25.9918 37.2343ZM36.0161 37.2343H31.41L35.2028 19.6232H39.8089L36.0161 37.2343ZM45.7687 24.5018C45.9042 23.5532 46.7175 23.0109 47.6663 23.0109C49.1573 22.8747 50.7814 23.1471 52.1369 23.8232L52.9501 20.0315C51.5947 19.4891 50.1037 19.2168 48.7507 19.2168C44.2801 19.2168 41.027 21.6562 41.027 25.0418C41.027 27.6173 43.3313 28.9697 44.9578 29.7844C46.7175 30.5967 47.3952 31.1391 47.2597 31.9514C47.2597 33.17 45.9042 33.7123 44.5512 33.7123C42.9246 33.7123 41.2981 33.3061 39.8095 32.6276L38.9963 36.4217C40.6228 37.0979 42.3825 37.3702 44.009 37.3702C49.0217 37.5041 52.1369 35.067 52.1369 31.4091C52.1369 26.8026 45.7687 26.5326 45.7687 24.5018ZM68.2571 37.2343L64.5998 19.6232H60.6714C59.8581 19.6232 59.0449 20.1656 58.7738 20.9779L52.0013 37.2343H56.743L57.6894 34.6611H63.5154L64.0576 37.2343H68.2571ZM61.3501 24.3646L62.7031 31.002H58.9103L61.3501 24.3646Z" fill="#172B85"/>
</g>
<defs>
<filter id="filter0_d_4013_217529" x="-4.41916" y="0.40625" width="90.4164" height="65.645" filterUnits="userSpaceOnUse" color-interpolation-filters="sRGB">
<feFlood flood-opacity="0" result="BackgroundImageFix"/>
<feColorMatrix in="SourceAlpha" type="matrix" values="0 0 0 0 0 0 0 0 0 0 0 0 0 0 0 0 0 0 127 0" result="hardAlpha"/>
<feOffset dy="4.95431"/>
<feGaussianBlur stdDeviation="2.47716"/>
<feComposite in2="hardAlpha" operator="out"/>
<feColorMatrix type="matrix" values="0 0 0 0 0 0 0 0 0 0 0 0 0 0 0 0 0 0 0.25 0"/>
<feBlend mode="normal" in2="BackgroundImageFix" result="effect1_dropShadow_4013_217529"/>
<feBlend mode="normal" in="SourceGraphic" in2="effect1_dropShadow_4013_217529" result="shape"/>
</filter>
</defs>
</svg>
